<?xml version="1.0" standalone="no"?>
<!DOCTYPE svg PUBLIC "-//W3C//DTD SVG 1.1//EN" "http://www.w3.org/Graphics/SVG/1.1/DTD/svg11.dtd" >
<svg xmlns="http://www.w3.org/2000/svg">
<metadata></metadata>
<defs>
<font id="aovel_sansrounded" horiz-adv-x="1024" >
<font-face units-per-em="2048" ascent="1638" descent="-410" />
<missing-glyph horiz-adv-x="569" />
<glyph unicode="&#xfb01;" horiz-adv-x="684" d="M124 55v1152q1 75 25.5 121t72.5 66q69 26 140 26h-1q226 14 226 -346q0 -5 -0.5 -10t-0.5 -10v-18q0 -23 -15.5 -39t-38.5 -16h-37q-23 0 -39 16.5t-15 40.5q0 8 0.5 15.5t0.5 15.5v25q0 184 -84 180q-60 0 -76 -16q-13 -13 -12 -64v-213h149q23 0 38.5 -15.5 t15.5 -39.5v-36q0 -23 -15.5 -39t-38.5 -16h-149v-780q0 -23 -15.5 -39t-39.5 -16h-36q-23 0 -39 16t-16 39zM441 55v943q0 23 15.5 39t38.5 16h37q23 0 38.5 -16t15.5 -39v-943q0 -23 -15.5 -39t-38.5 -16h-37q-23 0 -38.5 16t-15.5 39z" />
<glyph unicode="&#xfb02;" horiz-adv-x="684" d="M124 55v1152q1 75 25.5 121t72.5 66q68 26 143 26q29 -1 66.5 -4.5t82.5 -9.5q22 -4 36.5 -21.5t12.5 -39.5l-8 -48q-3 -24 -22.5 -38t-43.5 -9q-102 24 -131 24q-60 0 -76 -16q-13 -13 -12 -64v-213h149q23 0 38.5 -15.5t15.5 -39.5v-36q0 -23 -15.5 -39t-38.5 -16h-149 v-780q0 -23 -15.5 -39t-39.5 -16h-36q-23 0 -39 16t-16 39zM441 55v1310q0 23 15.5 39t38.5 16h37q23 0 38.5 -16t15.5 -39v-1310q0 -23 -15.5 -39t-38.5 -16h-37q-23 0 -38.5 16t-15.5 39z" />
<glyph horiz-adv-x="2048" />
<glyph horiz-adv-x="2048" />
<glyph horiz-adv-x="0" />
<glyph horiz-adv-x="569" />
<glyph horiz-adv-x="266" d="M-154 1388q-4 26 12 44t42 18h37q20 0 35 -12.5t18 -31.5q11 -53 46 -82q31 -33 85 -33q61 0 100 30q35 25 39 81q3 20 19.5 34t35.5 14h37q26 0 41 -17t13 -43q-5 -57 -29 -102t-64 -77q-38 -30 -87.5 -48t-104.5 -18q-111 0 -188 71q-70 67 -87 172z" />
<glyph horiz-adv-x="266" d="M-152 1397q0 21 15 37t41 16h36q8 0 23 -6t20 -13l146 -175q16 21 32.5 41.5t33.5 41.5q17 22 37 45t37 46q7 6 20.5 13t21.5 7h38q25 0 40.5 -15.5t15.5 -36.5q0 -18 -14 -35l-208 -256q-7 -6 -21 -13.5t-21 -7.5h-28q-8 0 -21.5 7t-20.5 13q-52 63 -105 128t-105 128 q-13 17 -13 35z" />
<glyph horiz-adv-x="266" d="M53 55v943q0 23 16 39t39 16h36q24 0 39.5 -16t15.5 -39v-943q0 -23 -15.5 -39t-39.5 -16h-36q-23 0 -39 16t-16 39z" />
<glyph horiz-adv-x="266" d="M53 1137v149q0 23 16 39t39 16h36q24 0 39.5 -16t15.5 -39v-149q0 -23 -15.5 -39t-39.5 -16h-36q-23 0 -39 16t-16 39z" />
<glyph horiz-adv-x="266" d="M-127 1131q0 19 16 38l243 265q5 6 18.5 11t20.5 5h54q26 0 41 -16t15 -37q0 -22 -18 -40l-268 -264q-6 -6 -19 -10.5t-19 -4.5h-28q-26 0 -41 16t-15 37zM148 1131q0 19 16 38l242 265q6 6 20 11t21 5h54q25 0 40 -16t15 -37q0 -22 -18 -40q-66 -64 -134 -131.5 t-134 -132.5q-6 -6 -19 -10.5t-19 -4.5h-28q-26 0 -41 16t-15 37z" />
<glyph horiz-adv-x="266" d="M-90 1290q0 23 6 46t14 43q8 16 20 33.5t26 31.5q61 61 150 63q45 -1 82.5 -16t69.5 -47q63 -64 64 -152v-2q-1 -86 -63 -151q-62 -63 -153 -63q-90 0 -151 63q-64 64 -65 151zM56 1290q2 -28 23 -48q18 -20 47 -20t51 20q19 20 19 49q0 32 -18 52q-20 19 -52 19 q-31 0 -47 -19q-21 -19 -23 -53z" />
<glyph horiz-adv-x="266" d="M-77 -178q1 44 24 92q10 17 23.5 37.5t27.5 36.5q29 32 64 63t77 58h70q26 0 40.5 -17t14.5 -37q0 -26 -22 -44q-176 -135 -173 -187q0 -7 9 -14q5 -6 14.5 -8t23.5 -3q42 1 68 13h-1q10 5 18.5 11.5t13.5 12.5q15 15 36 17.5t38 -8.5q8 -5 15 -11t15 -11q24 -17 24 -45 q0 -16 -14 -35q-21 -25 -49 -42t-56 -28q-26 -10 -54.5 -14.5t-54.5 -4.5q-89 0 -140 54q-52 49 -52 114z" />
<glyph unicode=" "  horiz-adv-x="569" />
<glyph unicode="&#x09;" horiz-adv-x="569" />
<glyph unicode="&#xa0;" horiz-adv-x="569" />
<glyph unicode="!" horiz-adv-x="379" d="M108 55v180q0 23 15.5 39t38.5 16h37q23 0 39 -16t16 -39v-180q0 -23 -16 -39t-39 -16h-37q-23 0 -38.5 16t-15.5 39zM108 389v976q0 23 15.5 39t38.5 16h37q23 0 39 -16t16 -39v-976q0 -23 -16 -38.5t-39 -15.5h-37q-23 0 -38.5 15.5t-15.5 38.5z" />
<glyph unicode="&#x22;" horiz-adv-x="569" d="M94 952v413q0 23 15.5 39t38.5 16h37q23 0 39 -16t16 -39v-413q0 -23 -16 -39t-39 -16h-37q-23 0 -38.5 16t-15.5 39zM300 952v413q0 23 15.5 39t38.5 16h37q23 0 39 -16t16 -39v-413q0 -23 -16 -39t-39 -16h-37q-23 0 -38.5 16t-15.5 39z" />
<glyph unicode="#" horiz-adv-x="1139" d="M39 475v36q0 24 15.5 39.5t38.5 15.5h191q7 52 13 98t14 102q0 3 1 8t2 7h-170q-23 0 -38.5 16t-15.5 39v36q0 24 15.5 39.5t38.5 15.5h192q7 49 13 96.5t13 96.5q7 48 13.5 95t12.5 95q3 20 19 34t36 14h36q26 0 42 -18.5t13 -44.5l-50 -368h202q5 31 8.5 61.5t8.5 60.5 q4 30 8.5 63.5t9 67.5t9 67t8.5 63q3 20 19.5 34t35.5 14h36q26 0 41.5 -18.5t13.5 -44.5q-12 -93 -24.5 -183.5t-25.5 -184.5h151q24 0 39.5 -15.5t15.5 -39.5v-36q0 -23 -15.5 -39t-39.5 -16h-173q-7 -52 -13.5 -98t-14.5 -102q-1 -7 -1.5 -7.5t-1.5 -7.5h153 q24 0 39.5 -15.5t15.5 -39.5v-36q0 -23 -15.5 -39t-39.5 -16h-173q-14 -94 -26.5 -186t-24.5 -187q-3 -20 -19.5 -33.5t-35.5 -13.5h-37q-26 0 -41.5 18.5t-13.5 43.5q12 90 24 178.5t25 179.5h-204q-5 -42 -11.5 -87t-12.5 -88q-7 -48 -13.5 -98.5t-13.5 -99.5 q-3 -20 -19 -33.5t-36 -13.5h-36q-26 0 -41.5 18.5t-13.5 43.5q12 90 24 178.5t24 179.5h-166q-23 0 -38.5 16t-15.5 39zM431 566h203q7 52 13.5 98t14.5 102q0 3 1 8t2 7h-203z" />
<glyph unicode="$" horiz-adv-x="1139" d="M-16 490q0 23 16 38.5t39 15.5h38q21 0 37.5 -16.5t16.5 -37.5q2 -191 104 -280h-1q44 -34 102 -58t124 -32v552q-2 1 -6 1.5t-6 1.5h1q-26 6 -52.5 12.5t-51.5 13.5q-42 13 -80 28t-72 34q-77 42 -120 113v-1q-49 73 -49 184q2 105 49.5 186t120.5 128q60 33 128 53.5 t138 23.5v25q0 23 16 39t39 16h37q23 0 39 -16t16 -39v-27q83 -8 155 -33t129 -70q140 -109 152 -344q1 -23 -14.5 -40t-40.5 -17h-36q-21 0 -37.5 16t-17.5 37q-7 164 -96 233q-40 30 -87 48.5t-107 23.5v-514q35 -8 70 -16.5t67 -16.5q3 -1 6.5 -1.5t6.5 -1.5 q46 -15 84.5 -31.5t69.5 -35.5q73 -42 118 -118q21 -38 30.5 -86t9.5 -106q-2 -107 -47 -185.5t-126 -129.5q-63 -38 -137 -61t-152 -28v-109q0 -23 -16 -38.5t-39 -15.5h-37q-23 0 -39 15.5t-16 38.5v112q-99 9 -178.5 40t-145.5 88h1q-152 129 -153 388zM169 1059 q0 -64 25 -101q13 -20 31.5 -36t41.5 -31v1q24 -14 53.5 -25.5t62.5 -21.5q22 -7 38 -11.5t39 -10.5v480q-49 -5 -96 -19.5t-89 -36.5q-46 -25 -78 -72q-28 -43 -28 -116zM460 754l3 58q0 5 4 7.5t9 0.5q20 -5 45 -10q2 -1 4.5 -1.5t4.5 -1.5q5 -3 6 -8t-4 -9l-56 -44 q-5 -5 -10.5 -2t-5.5 10zM607 118q56 5 108.5 21.5t99.5 43.5q104 61 109 194q0 82 -28 123v-1q-16 22 -36.5 40.5t-46.5 32.5q-57 29 -125 48q-5 2 -9.5 3.5t-8.5 1.5q-12 3 -17 5t-10 3t-12.5 3t-23.5 5v-523z" />
<glyph unicode="%" horiz-adv-x="1403" d="M20 1007q0 169 87 265l-1 -1q90 108 247 108q168 0 257 -108q41 -51 62 -116t21 -146q0 -73 -22 -138t-62 -116q-45 -51 -110 -81t-145 -31q-170 2 -255 117q-79 102 -79 247zM142.5 -8q0.5 15 8.5 29l875 1374h-1q6 8 20.5 16.5t25.5 8.5h42q17 0 30 -7.5t20 -19.5 t6.5 -27t-10.5 -30l-874 -1373h1q-6 -9 -20.5 -17.5t-25.5 -8.5h-42q-17 0 -29.5 8t-19.5 20t-6.5 27zM166 1007q0 -96 49 -158q46 -60 140 -60q96 0 142 60q50 62 50 158q0 109 -47 170v-1q-24 26 -60.5 41t-84.5 17q-101 -2 -142 -57q-47 -64 -47 -170zM636 343 q0 80 23.5 148t63.5 116q45 51 108 79t138 29q85 -1 149 -28.5t108 -80.5q84 -102 84 -261q0 -73 -22.5 -137.5t-61.5 -115.5q-45 -53 -110.5 -83.5t-146.5 -31.5q-82 2 -146 33t-107 85q-37 51 -58.5 114.5t-21.5 133.5zM783 343q0 -48 11.5 -87.5t37.5 -70.5 q22 -31 56 -45.5t81 -15.5q100 2 144 61q50 62 50 158q0 110 -47 170q-23 26 -60 40t-85 16q-49 -1 -84 -14.5t-56 -43.5q-48 -60 -48 -168z" />
<glyph unicode="&#x26;" horiz-adv-x="1175" d="M59 348q2 89 38 165t99 136q27 26 59 53t61 45h-1q11 8 22.5 14.5t22.5 14.5q7 5 13.5 8.5t12.5 7.5l-6 10t-7 10l-9 11q-4 5 -8 10.5t-8 10.5q-12 17 -24.5 33.5t-25.5 33.5q-16 25 -29.5 50.5t-25.5 50.5q-13 25 -19.5 54t-6.5 55q1 79 28 136.5t80 95.5q97 67 214 67 q135 0 225 -75q96 -83 97 -224q0 -40 -7 -74.5t-24 -65.5q-17 -30 -38 -56.5t-47 -52.5q-35 -29 -73 -59t-73 -56q26 -32 48 -61t44 -56q32 -40 72.5 -93.5t82.5 -105.5l1 3l-1 -1q9 55 8 119q-1 23 15 39t39 16h37q22 0 38.5 -16t16.5 -39q1 -74 -10.5 -136.5t-37.5 -120.5 l172 -217q6 -8 10 -18t4 -18q0 -20 -15 -36t-41 -16h-48q-10 0 -23.5 7t-18.5 13l-116 146q-25 -34 -54.5 -61.5t-64.5 -53.5q-55 -42 -122 -61.5t-148 -20.5q-80 1 -152 26t-134 73q-67 50 -104 121t-38 159zM205 348q1 -57 21 -98.5t62 -70.5q83 -64 199 -64q115 0 190 57 q31 24 58 53.5t48 64.5l-308 387q-45 -27 -88 -58.5t-86 -68.5v1q-42 -39 -70 -92q-26 -50 -26 -111zM362 1124q-1 -37 36 -100t110 -155q11 6 22.5 14.5t21.5 17.5q21 15 42 32.5t41 35.5q17 17 33.5 37t28.5 37v1q18 37 18 77q-2 71 -48 113l1 -1q-50 41 -128 41 q-76 0 -129 -41q-48 -37 -49 -109zM391 784l1 -1zM462 831q-1 7 5 11l16 11l-1 -1l17 12q7 6 13 -2q-1 2 6 -6.5t13 -14.5h-1q2 -2 4 -5t4 -5q5 -5 2 -11t-10 -5l-59 8q-8 1 -9 8zM697 1043q1 1 1 2t1 2q5 6 11.5 4.5t6.5 -9.5l-2 -3z" />
<glyph unicode="'" horiz-adv-x="342" d="M91 952v413q0 23 15.5 39t38.5 16h36q23 0 38.5 -16t15.5 -39v-413q0 -23 -15.5 -39t-38.5 -16h-36q-23 0 -38.5 16t-15.5 39z" />
<glyph unicode="(" horiz-adv-x="455" d="M84 572q1 450 220 851q6 11 21.5 19t26.5 8h37q16 0 29 -7t20 -18.5t7 -25.5t-8 -29q-104 -188 -155 -386t-52 -412q0 -432 209 -815q8 -15 8 -29.5t-7 -26.5t-20 -19t-29 -7h-37q-12 0 -27.5 9.5t-20.5 20.5v-1q-222 403 -222 868z" />
<glyph unicode=")" horiz-adv-x="455" d="M-15.5 1399q0.5 14 7.5 25.5t19.5 18.5t29.5 7h36q12 0 27 -8.5t21 -19.5v1q221 -406 221 -870q-2 -452 -219 -849v1q-6 -11 -21 -20.5t-27 -9.5h-37q-17 0 -29.5 7t-19.5 19t-7 26.5t8 29.5q103 189 154 387t52 409q-1 219 -52 422t-156 395q-8 15 -7.5 29z" />
<glyph unicode="*" horiz-adv-x="721" d="M25 1168q2 9 5.5 17.5t5.5 17.5q6 22 27 32.5t42 2.5l160 -55v182q0 23 15.5 39t38.5 16h37q23 0 39 -16t16 -39v-181q20 5 39.5 11.5t39.5 13.5l46 16t46 15v-1q25 8 45.5 -4t24.5 -40l4 -16l4 -16q2 -20 -8 -38t-30 -24l-165 -56q26 -35 48.5 -64t48.5 -62q2 -3 5 -6.5 t5 -6.5q10 -17 10 -33q0 -12 -5.5 -24t-16.5 -20q-8 -5 -15.5 -10.5t-15.5 -10.5q-18 -12 -40 -9t-35 19l-110 143q-14 -16 -26 -32t-25 -31q-15 -19 -29.5 -36.5t-29.5 -36.5q-18 -21 -42 -21q-17 0 -36 13q-7 6 -14.5 12.5t-15.5 12.5q-9 8 -13.5 18.5t-4.5 21.5 q0 18 13 36l109 129q-20 7 -37 12.5t-37 12.5l-88 29q-21 8 -31 27t-4 41v-1z" />
<glyph unicode="+" horiz-adv-x="1229" d="M64 500v38q0 22 16.5 38.5t38.5 16.5h390v390q0 23 16 38.5t39 15.5h37q23 0 38.5 -15.5t15.5 -38.5v-390h390q23 0 38.5 -16.5t15.5 -38.5v-38q0 -23 -15.5 -38t-38.5 -15h-390v-392q0 -23 -15.5 -39t-38.5 -16h-37q-23 0 -39 16t-16 39v392h-390q-22 0 -38.5 15 t-16.5 38z" />
<glyph unicode="," horiz-adv-x="569" d="M151 -128q0 8 6 21.5t12 18.5l-1 -1q13 13 19 41q9 34 9 103v180q0 23 15.5 39t38.5 16h37q23 0 38.5 -16t15.5 -39v-180q1 -184 -103 -264q-17 -12 -34 -12q-20 0 -36.5 15.5t-16.5 41.5v36z" />
<glyph unicode="-" horiz-adv-x="682" d="M108 528v36q0 24 16 39.5t39 15.5h321q23 0 38.5 -15.5t15.5 -39.5v-36q0 -23 -15.5 -39t-38.5 -16h-321q-23 0 -39 16t-16 39z" />
<glyph unicode="." horiz-adv-x="569" d="M197 55v180q0 23 15.5 39t38.5 16h37q23 0 39 -16t16 -39v-180q0 -23 -16 -39t-39 -16h-37q-23 0 -38.5 16t-15.5 39z" />
<glyph unicode="/" horiz-adv-x="682" d="M-48.5 17.5q-1.5 13.5 3.5 27.5q146 337 299.5 687t300.5 686q5 13 20 22.5t30 9.5h36q31 0 45 -24t5 -51q-146 -337 -299.5 -687t-300.5 -687q-5 -12 -20.5 -22t-29.5 -10h-36q-15 0 -26.5 7t-18.5 17.5t-8.5 24z" />
<glyph unicode="0" horiz-adv-x="1139" d="M13 678q-1 131 27 248t83 219q60 111 165 171t251 63q149 -3 254 -63t166 -170q54 -102 81 -219.5t26 -248.5q1 -131 -26 -247t-81 -216q-60 -112 -165.5 -173t-254.5 -65q-146 4 -251 65t-165 172q-55 101 -83 217.5t-27 246.5zM159 678q0 -97 22 -198q8 -50 23.5 -95 t38.5 -87q42 -80 114 -124q37 -26 82 -38t100 -12q56 0 101.5 12t80.5 38q38 23 66.5 53.5t50.5 70.5q24 41 39 87t25 95q8 50 13.5 100t5.5 98t-5.5 101.5t-13.5 103.5q-10 49 -25.5 94t-38.5 85q-84 167 -300 172q-110 -2 -181 -47h1q-36 -24 -65 -55t-51 -71 q-23 -39 -38 -83.5t-23 -95.5q-22 -98 -22 -204z" />
<glyph unicode="1" horiz-adv-x="1139" d="M180 1035v37q0 14 11 30t25 21q48 17 92 39.5t78 45.5q33 26 69.5 59t68.5 71q6 5 20 12.5t22 7.5h41q23 0 38 -16t15 -39v-1248q0 -23 -15 -39t-38 -16h-38q-23 0 -38.5 16t-15.5 39v1068q-14 -12 -31.5 -24.5t-34.5 -22.5q-48 -31 -99.5 -55.5t-99.5 -38.5 q-29 -8 -49.5 8t-20.5 45z" />
<glyph unicode="2" horiz-adv-x="1139" d="M77 56q1 48 11 90t29 80q19 33 43.5 66t56.5 65t66 60t69 54q35 25 70.5 50t70.5 48q73 48 135.5 98.5t119.5 104.5q48 48 72.5 102t26.5 115q-1 59 -20.5 105t-55.5 76q-85 64 -216 64q-81 -1 -141.5 -24t-95.5 -66q-74 -95 -74 -251q0 -23 -15.5 -38.5t-38.5 -15.5h-38 q-23 0 -38.5 15.5t-15.5 38.5q3 480 457 486q91 0 167 -24t139 -70q130 -102 132 -298q-2 -85 -36.5 -162.5t-94.5 -141.5q-58 -60 -125.5 -117t-142.5 -105h1q-144 -96 -258 -191h1q-70 -59 -99 -124h733q23 0 39 -15.5t16 -39.5v-36q0 -23 -16 -39t-39 -16h-841 q-23 0 -38.5 16.5t-15.5 39.5z" />
<glyph unicode="3" horiz-adv-x="1139" d="M47 448v14q0 4 0.5 7.5t0.5 7.5q0 23 16 38.5t39 15.5h37q24 0 40 -17t14 -42v-28q0 -150 87 -228q98 -92 276 -92q140 0 235 74q47 35 70 85.5t25 115.5q-1 131 -79 188q-83 62 -226 67h-88q-24 0 -39.5 15.5t-15.5 38.5v37q0 22 15.5 38.5t39.5 16.5h89q114 -1 200 53 q74 44 80 165q-6 118 -84 164q-45 24 -99.5 38t-116.5 14q-322 0 -334 -320q-1 -23 -16.5 -38t-37.5 -15h-37q-23 0 -38.5 15.5t-15.5 38.5q0 114 33.5 200.5t98.5 146.5q63 57 151 87t196 30q170 0 300 -77q70 -45 107 -115t39 -169q-1 -78 -24 -138.5t-68 -104.5 q-13 -13 -28.5 -26t-30.5 -22q17 -11 33 -22t33 -25q53 -47 81 -117t29 -164q-2 -200 -148 -312q-69 -54 -150.5 -81.5t-178.5 -28.5q-117 1 -212.5 35.5t-164.5 98.5q-61 60 -97 146.5t-36 190.5z" />
<glyph unicode="4" horiz-adv-x="1139" d="M37 379v63l634 893q6 8 21 15.5t24 7.5h46q23 0 38.5 -16t15.5 -39v-833h171q24 0 39.5 -15.5t15.5 -38.5v-37q0 -23 -15.5 -38.5t-39.5 -15.5h-171v-270q0 -23 -15.5 -39t-38.5 -16h-38q-23 0 -38.5 16t-15.5 39v270h-578q-23 0 -39 15.5t-16 38.5zM235 470h435v614 q-74 -103 -143.5 -202t-140.5 -199q-38 -54 -73.5 -103.5t-77.5 -109.5zM670 1115v136q0 8 6 10t11 -3l38 -38l28 14l13 -15q-9 -13 -18 -25.5t-18 -23.5q-10 -15 -20.5 -30.5t-21.5 -30.5q-5 -6 -11.5 -4t-6.5 10z" />
<glyph unicode="5" horiz-adv-x="1139" d="M42 454q0 23 16.5 39t38.5 16h37q23 0 38.5 -15.5t15.5 -39.5q0 -77 23 -139t64 -104q45 -40 111.5 -62.5t141.5 -24.5q74 5 134.5 31t105 71t71 106.5t31.5 137.5q-3 72 -25.5 136t-65.5 109q-90 94 -249 95q-101 -1 -176.5 -41.5t-125.5 -124.5q-6 -9 -21.5 -17.5 t-25.5 -8.5h-46q-26 0 -42 19.5t-11 46.5l133 630q4 17 19.5 30.5t34.5 13.5h641q22 0 38.5 -16t16.5 -39v-37q0 -23 -16.5 -38.5t-38.5 -15.5h-567q-8 -39 -17 -79t-17 -78q-5 -24 -9.5 -43.5t-8.5 -39l-8 -39t-9 -43.5q53 31 117.5 48t138.5 17q109 0 197 -33.5 t154 -102.5q133 -136 135 -349q-1 -221 -134 -354q-66 -68 -153.5 -103t-198.5 -36q-107 1 -197 35t-156 94q-67 63 -101.5 149.5t-33.5 198.5z" />
<glyph unicode="6" horiz-adv-x="1139" d="M46 644q-1 128 26 250.5t78 231.5q60 122 165 186t254 67q94 0 169 -26.5t134 -78.5v1q112 -99 138 -258q4 -26 -12 -44t-42 -18h-36q-19 0 -34.5 12.5t-19.5 30.5q-8 35 -20.5 67t-26.5 55l1 -1q-15 21 -34 38.5t-38 28.5q-45 23 -91 36t-89 12q-58 -1 -105 -15t-85 -43 q-38 -31 -67.5 -69t-49.5 -84q-20 -47 -34.5 -104t-21.5 -110v-1q11 10 22.5 20t23.5 21q65 50 138 75t158 26q95 -1 178 -33.5t155 -99.5v1q150 -130 153 -354q-3 -214 -146 -346q-68 -69 -153 -104.5t-188 -36.5q-72 1 -134 19t-114 53q-109 70 -160 151q-31 49 -49 101.5 t-26 110.5v-1q-9 55 -13.5 112.5t-3.5 120.5zM206 464q1 -144 100 -241q95 -98 241 -99q146 1 242 99t98 241q-1 143 -98 243q-50 49 -110 72.5t-132 24.5q-143 -2 -241 -98q-99 -97 -100 -242z" />
<glyph unicode="7" horiz-adv-x="1139" d="M87 1266v37q0 23 15.5 39t38.5 16h797q23 0 38.5 -16t15.5 -39v-50q0 -8 -5 -21t-10 -18q-252 -243 -399 -525q-148 -278 -149 -634q0 -22 -16 -38.5t-39 -16.5h-36q-22 0 -37.5 17.5t-17.5 38.5q6 163 41.5 320t97 304t148 281t194.5 251h-623q-23 0 -38.5 15.5 t-15.5 38.5z" />
<glyph unicode="8" horiz-adv-x="1139" d="M32 403q4 255 202 346q-26 18 -47 43q-45 43 -69 97t-25 119q2 199 141 287h-1q124 84 306 84q186 0 311 -84q132 -91 134 -287q-2 -131 -88 -216q-3 -3 -5 -3q-12 -12 -23.5 -21.5t-23.5 -18.5q197 -92 203 -346q-2 -109 -42 -190t-115 -134q-73 -51 -160.5 -76.5 t-190.5 -25.5q-100 0 -188 27t-160 75q-75 52 -116.5 134.5t-42.5 189.5zM177 402q1 -145 102 -210q53 -34 117.5 -51.5t142.5 -16.5q80 -1 144.5 16.5t117.5 51.5h-1q49 34 74 85.5t27 125.5q-2 72 -27 123t-71 79q-54 29 -121 44.5t-143 14.5q-75 1 -140.5 -14.5 t-119.5 -44.5q-47 -29 -73.5 -80t-28.5 -123zM240 1009q0 -50 21 -77q27 -44 67 -66q48 -26 101 -40.5t110 -14.5q117 0 214 55q42 23 63 59.5t23 85.5q0 61 -21 105q-13 23 -28 40t-30 27v-1q-48 25 -103 38.5t-118 13.5t-116 -13.5t-101 -38.5l-1 1q-17 -12 -30.5 -29 t-25.5 -38q-25 -44 -25 -107zM317 1200q1 0 1.5 1t1.5 1q8 0 10 -7t-5 -10q-1 -1 -2 -1t-2 -1z" />
<glyph unicode="9" horiz-adv-x="1139" d="M46 893q1 107 37 194.5t110 154.5q142 137 339 137q143 0 253 -69q49 -32 88.5 -71.5t67.5 -81.5q29 -45 49.5 -98.5t30.5 -110.5q8 -57 11 -115t3 -120q2 -260 -104 -480q-63 -109 -162 -181q-54 -36 -118.5 -55t-142.5 -20q-180 1 -300 106v-1q-57 50 -91 115.5 t-48 143.5q-3 24 12.5 43t41.5 19h36q17 0 32.5 -11.5t20.5 -28.5q39 -142 124 -189q21 -13 44 -22.5t45 -16.5h-1q23 -5 44.5 -8t41.5 -3q60 1 108.5 15.5t85.5 44.5q38 29 66.5 68.5t49.5 87.5q21 47 35.5 101.5t22.5 111.5q-20 -21 -45 -42q-62 -51 -136.5 -77 t-164.5 -26q-188 0 -332 135v-1q-149 130 -154 351zM193 893q1 -146 99 -240q95 -99 240 -100q145 2 241 100q51 50 74.5 110t24.5 130q-2 145 -98 242t-242 99q-71 -1 -130.5 -25t-109.5 -75q-97 -93 -99 -241z" />
<glyph unicode=":" horiz-adv-x="569" d="M197 55v180q0 23 15.5 39t38.5 16h37q23 0 39 -16t16 -39v-180q0 -23 -16 -39t-39 -16h-37q-23 0 -38.5 16t-15.5 39zM197 818v180q0 23 15.5 39t38.5 16h37q23 0 39 -16t16 -39v-180q0 -23 -16 -39t-39 -16h-37q-23 0 -38.5 16t-15.5 39z" />
<glyph unicode=";" horiz-adv-x="569" d="M151 -128q0 8 6 21.5t12 18.5q12 14 18 40q9 34 9 103v180q0 23 15.5 39t38.5 16h37q23 0 38.5 -16t15.5 -39v-180q1 -184 -103 -264q-17 -12 -34 -12q-20 0 -36.5 15.5t-16.5 41.5v36zM196 818v180q0 23 15.5 39t38.5 16h37q23 0 38.5 -16t15.5 -39v-180 q0 -23 -15.5 -39t-38.5 -16h-37q-23 0 -38.5 16t-15.5 39z" />
<glyph unicode="&#x3c;" horiz-adv-x="1229" d="M61 498v44q0 11 9.5 26.5t20.5 22.5l934 456q15 7 29 6.5t25 -7.5t18 -19.5t7 -28.5v-38q0 -13 -10 -28t-22 -21q-202 -99 -399 -195.5t-400 -195.5q201 -98 400 -196t399 -196q12 -6 22 -21.5t10 -27.5v-39q0 -16 -7 -28.5t-18 -19.5t-25 -7.5t-29 6.5l-933 457 q-11 5 -21 21t-10 29z" />
<glyph unicode="=" horiz-adv-x="1229" d="M64 323v36q0 24 16.5 39.5t38.5 15.5h926q23 0 38.5 -15.5t15.5 -39.5v-36q0 -24 -15.5 -39.5t-38.5 -15.5h-926q-22 0 -38.5 15.5t-16.5 39.5zM64 678v37q0 23 16.5 38.5t38.5 15.5h926q23 0 38.5 -15.5t15.5 -38.5v-37q0 -23 -15.5 -38.5t-38.5 -15.5h-926 q-22 0 -38.5 15.5t-16.5 38.5z" />
<glyph unicode="&#x3e;" horiz-adv-x="1229" d="M61 40v39q0 11 10 27t21 22l799 392q-118 57 -235 115t-235 115q-81 39 -164.5 80t-164.5 81q-11 5 -21 20.5t-10 28.5v38q0 16 7 28.5t18 19.5t25 7.5t29 -6.5l932 -456q12 -7 22 -22.5t10 -26.5v-44q0 -13 -10 -28.5t-22 -21.5q-228 -112 -466 -228.5t-466 -228.5 q-15 -7 -29 -6.5t-25 7.5t-18 19.5t-7 28.5z" />
<glyph unicode="?" d="M36 959q-4 215 113 352q119 139 339 139q173 0 292 -90q123 -97 123 -269q0 -75 -21 -138q-22 -58 -53 -104q-15 -20 -31 -39t-33 -34q-3 -3 -7 -6.5t-6 -5.5q-11 -10 -20 -19t-19 -17l-3 -3q-1 -1 -2 -2.5t-3 -2.5q-44 -40 -76.5 -78t-49.5 -73q-37 -66 -37 -180 q0 -23 -15.5 -38.5t-38.5 -15.5h-37q-22 0 -38 15.5t-16 37.5q-1 68 10 125.5t35 105.5v-1q23 48 61.5 98.5t89.5 99.5l6 6l40 35q12 9 25.5 23t26.5 31q15 16 27.5 36t20.5 43v-1q8 21 13 46t7 55q-2 51 -20 91t-49 66q-37 28 -89 43t-113 15q-155 -1 -231 -92 q-82 -94 -76 -251q1 -25 -15 -41t-39 -16h-37q-22 0 -38 15.5t-16 38.5zM397 55v180q0 23 15.5 39t38.5 16h37q23 0 38.5 -16t15.5 -39v-180q0 -23 -15.5 -39t-38.5 -16h-37q-23 0 -38.5 16t-15.5 39z" />
<glyph unicode="@" horiz-adv-x="1638" d="M93 703q2 155 57.5 284.5t154.5 227.5q102 97 229 148t276 53q276 -2 459 -162q186 -160 192 -445q-3 -121 -39.5 -219.5t-103.5 -175.5v1l-14 -18q8 7 20 12t20 5h42q17 0 29.5 -8t18.5 -20t6 -26.5t-9 -28.5q-56 -82 -123.5 -146.5t-145.5 -109.5t-166.5 -70 t-184.5 -28q-274 0 -487 175q-226 177 -231 551zM238 704q5 -289 172 -433q165 -147 401 -147q78 0 146 21v1q37 13 71 27.5t65 30.5q32 19 61 40t54 44q52 48 90 103q-131 -149 -289 -149q-38 0 -69.5 12t-53.5 36q-8 5 -16 18q-17 -13 -33.5 -21.5t-36.5 -16.5h1 q-37 -15 -76 -22t-78 -6q-129 0 -217 97l-3 3q-42 45 -63 100t-21 120q1 103 33.5 198t97.5 187q67 90 155 143q94 56 204 58q103 0 186 -48v-1q17 -11 30.5 -21t25.5 -21q2 5 3 9.5t3 9.5q6 14 21 25.5t30 11.5h38q30 0 45.5 -23t5.5 -52q-25 -67 -50.5 -132.5 t-51.5 -131.5q-16 -41 -31.5 -82t-31.5 -82v1q-9 -26 -19 -51.5t-20 -51.5q-28 -67 -24 -112q0 -8 19 -8q48 1 96.5 29.5t97.5 88.5q104 117 108 305q-1 103 -36 186t-101 146q-71 61 -163.5 93.5t-201.5 33.5q-126 -2 -227.5 -43t-181.5 -124q-163 -158 -165 -399zM489 562 q0 -74 47 -123q48 -51 119 -51q62 -2 127 37q29 18 56 53q14 19 26 44t23 51l124 321q-11 32 -26.5 50.5t-38.5 29.5h1q-57 28 -121 28q-71 0 -128 -36h1q-30 -21 -58 -49t-52 -60q-48 -72 -73.5 -146t-26.5 -149z" />
<glyph unicode="A" horiz-adv-x="1178" d="M-56 49q0 3 -1 6q0 11 5 23l548 1349q5 14 21 24.5t30 10.5h51q14 0 30.5 -11t21.5 -24l533 -1350q5 -13 5 -25q0 -16 -9 -28q-16 -24 -49 -24h-41q-14 0 -30 11t-21 25v-1q-42 104 -83 204.5t-83 204.5h-611q-29 -75 -59.5 -148.5t-60.5 -148.5q-12 -28 -23.5 -56 t-22.5 -56v1q-5 -14 -21.5 -25t-30.5 -11h-44q-16 0 -28 6.5t-18.5 17.5t-8.5 25zM321 594h493q-51 131 -103 265.5t-103 267.5q-6 14 -10 25t-8 21.5t-8 22t-10 25.5q-44 -109 -84.5 -210t-83.5 -206q-20 -51 -40.5 -102.5t-42.5 -108.5zM523 1349q-1 2 -1 3q0 4 4 7 q2 2 5 2t6 -2l35 -24q9 7 18 12.5t18 10.5l14 -11q-11 -27 -21 -52.5t-20 -51.5q-2 -7 -8 -7h-1q-7 0 -9 8q-3 8 -6.5 16.5t-6.5 16.5v-1q-7 17 -13.5 35.5t-13.5 37.5z" />
<glyph unicode="B" horiz-adv-x="1251" d="M55 1328q0 41 8.5 67.5t38 41.5t85.5 21t152 6h52q17 0 34.5 -0.5t37.5 -0.5q49 -1 106 -1h125q91 0 167.5 -24t136.5 -69q63 -51 97 -126t35 -174q-1 -74 -25 -135.5t-69 -112.5q-16 -16 -31 -29.5t-33 -24.5q23 -12 44.5 -27.5t40.5 -32.5q54 -51 84 -123t31 -162 q-1 -101 -39 -181t-107 -135q-69 -51 -159 -78.5t-196 -27.5h-558q-24 0 -40.5 16.5t-16.5 39.5v1238q0 9 -0.5 17.5t-0.5 16.5zM206 150h482q152 0 244 70q89 65 90 200q-2 72 -26 123t-66 79q-51 29 -110.5 46t-125.5 17h-488v-535zM206 835h488q123 0 207 62 q38 27 58.5 70t20.5 103q0 62 -19.5 107t-54.5 74q-39 29 -93 45t-119 16q-97 0 -172.5 1t-132.5 3q-29 1 -61 1.5t-52 0.5q-27 0 -41.5 -1t-21 -4t-7 -8t-0.5 -13v-457z" />
<glyph unicode="C" horiz-adv-x="1403" d="M17 720q0 280 158 514v-1q165 255 534 262q150 -3 260.5 -46.5t184.5 -126.5h-1q150 -164 152 -320q0 -23 -16.5 -40t-39.5 -17h-39q-21 0 -37 15.5t-18 35.5q-6 67 -37.5 127t-90.5 112q-116 106 -319 110q-149 -1 -250 -61q-51 -29 -92 -66.5t-72 -82.5v1 q-64 -102 -96 -205q-32 -100 -31 -205v-6q0 -248 140 -424q130 -174 379 -179q219 2 344 135q62 65 101 152.5t54 188.5q2 20 19 34t37 14h38q25 -1 41 -19q14 -16 14 -38v-6q-18 -134 -68 -243t-133 -192q-84 -87 -195.5 -131t-253.5 -45q-299 5 -479 217l1 -1 q-94 106 -141 238.5t-48 298.5z" />
<glyph unicode="D" horiz-adv-x="1327" d="M72 56v1261q0 46 2 76t19.5 46.5t58 23t117.5 6.5h35t40 -1q16 -1 33.5 -1.5t37.5 -0.5h30.5t32.5 -1q26 -1 59.5 -1.5t64.5 -1.5q54 -1 107.5 -8.5t112.5 -24.5q55 -19 108.5 -50.5t96.5 -69.5q48 -43 85.5 -99.5t63.5 -126.5q55 -144 56 -353q-2 -192 -56 -332 t-158 -228q-202 -170 -476 -170h-413q-25 0 -41 16.5t-16 39.5zM222 150h329q114 0 207 35.5t170 106.5q76 69 114 178.5t40 261.5q0 44 -3 86t-8 82q-5 35 -12.5 65.5t-18.5 59.5v-1q-20 55 -49 99t-61 76q-34 29 -73.5 52t-80.5 37q-42 12 -90 18t-96 6q-67 0 -121 0.5 t-97 1.5q-28 1 -50 1h-40q-23 0 -35 -0.5t-17.5 -1t-6.5 -2t-1 -4.5v-1157z" />
<glyph unicode="E" horiz-adv-x="1100" d="M69 56v1350q0 23 16.5 39.5t39.5 16.5h896q24 0 40 -16.5t16 -39.5v-38q0 -23 -16 -39.5t-40 -16.5h-802v-477h752q23 0 39 -16.5t16 -40.5v-38q0 -24 -16 -39.5t-39 -15.5h-752v-535h809q24 0 40 -16.5t16 -39.5v-38q0 -23 -16 -39.5t-40 -16.5h-903q-23 0 -39.5 16.5 t-16.5 39.5z" />
<glyph unicode="F" horiz-adv-x="985" d="M68 56v1350q0 23 16 39.5t40 16.5h832q23 0 39.5 -16.5t16.5 -39.5v-38q0 -23 -16.5 -39.5t-39.5 -16.5h-738v-477h662q24 0 40 -16.5t16 -40.5v-38q0 -24 -16 -39.5t-40 -15.5h-662v-629q0 -23 -16.5 -39.5t-39.5 -16.5h-38q-24 0 -40 16.5t-16 39.5z" />
<glyph unicode="G" horiz-adv-x="1479" d="M32 731q1 326 183 539q91 109 217 166t290 59q520 -10 615 -501q5 -27 -11 -46.5t-45 -19.5h-37q-20 0 -35.5 13.5t-19.5 31.5q-19 87 -60 154t-101.5 113.5t-138 72.5t-168.5 32q-128 -3 -227 -47t-168 -130q-145 -175 -145 -437t140 -434l-1 1q42 -45 80 -75 q41 -32 91 -55q51 -26 109.5 -38.5t127.5 -12.5q202 2 341 132v1q134 127 139 329v-1q-2 16 -10 16h-457q-24 0 -40.5 16t-16.5 40v38q0 23 16.5 39.5t40.5 16.5h460q48 0 79 -14t49.5 -39.5t25.5 -61.5t7 -80q0 -85 -36 -182q-150 -394 -604 -400q-166 2 -297 61.5 t-220 168.5q-83 107 -128 243t-45 291z" />
<glyph unicode="H" horiz-adv-x="1327" d="M71 56v1350q0 23 16.5 39.5t40.5 16.5h37q25 0 40.5 -16.5t15.5 -39.5v-571h833v571q0 23 16.5 39.5t39.5 16.5h38q24 0 40 -16.5t16 -39.5v-1350q0 -23 -16 -39.5t-40 -16.5h-38q-23 0 -39.5 16.5t-16.5 39.5v629h-833v-629q0 -23 -15.5 -39.5t-40.5 -16.5h-37 q-24 0 -40.5 16.5t-16.5 39.5z" />
<glyph unicode="I" horiz-adv-x="262" d="M51 56v1350q0 23 16.5 39.5t39.5 16.5h38q24 0 40 -16.5t16 -39.5v-1350q0 -23 -16 -39.5t-40 -16.5h-38q-23 0 -39.5 16.5t-16.5 39.5z" />
<glyph unicode="J" horiz-adv-x="948" d="M-5 393v82q0 23 16 39.5t39 16.5h39q23 0 39.5 -16.5t16.5 -39.5v-82q2 -276 265 -276h4q136 0 204 66t68 253v970q0 23 16 39.5t40 16.5h38q24 0 40 -16.5t16 -39.5v-999q0 -93 -24 -170.5t-71 -138.5q-51 -61 -134.5 -95.5t-196.5 -35.5q-104 1 -184.5 34t-132.5 93 q-50 58 -75 133q-23 72 -23 159v7z" />
<glyph unicode="K" horiz-adv-x="1214" d="M72 56v1350q0 23 16 39.5t40 16.5h38q24 0 40 -16.5t16 -39.5v-697q114 100 228 201.5t230 202.5q97 85 200.5 175.5t198.5 173.5h80q26 0 41.5 -17t15.5 -38q0 -26 -20 -44l-618 -543q62 -106 124 -201t133 -180.5t154.5 -162t188.5 -145.5q10 -7 18.5 -23t7.5 -29 l-3 -29q-2 -16 -10 -27.5t-20 -17.5q-11 -6 -24 -6q-1 1 -3 1q-14 0 -28 8q-119 67 -213 149t-171.5 173.5t-143 190.5t-127.5 201l-239 -212v-454q0 -23 -16 -39.5t-40 -16.5h-38q-24 0 -40 16.5t-16 39.5z" />
<glyph unicode="L" horiz-adv-x="985" d="M68 56v1350q0 23 16 39.5t40 16.5h37q24 0 40.5 -16.5t16.5 -39.5v-1256h732q23 0 39 -16.5t16 -39.5v-38q0 -23 -16 -39.5t-39 -16.5h-826q-24 0 -40 16.5t-16 39.5z" />
<glyph unicode="M" horiz-adv-x="1597" d="M77 56v1350q0 23 16 39.5t39 16.5h63q13 0 29 -10.5t22 -23.5q131 -297 261 -593t261 -594q131 298 261 593.5t261 593.5q6 13 21.5 23.5t29.5 10.5h62q25 0 40.5 -16.5t15.5 -39.5v-1350q0 -23 -15.5 -39.5t-40.5 -16.5h-37q-24 0 -40.5 16.5t-16.5 39.5v1045 q-35 -82 -71.5 -164t-72.5 -164q-39 -89 -80 -182.5t-82.5 -187.5t-82.5 -187.5t-80 -181.5q-6 -13 -22 -23.5t-29 -10.5h-42q-14 0 -30 10.5t-21 23.5q-118 268 -234.5 531.5t-234.5 533.5v-1043q0 -23 -16 -39.5t-40 -16.5h-39q-23 0 -39 16.5t-16 39.5z" />
<glyph unicode="N" horiz-adv-x="1327" d="M71 56v1350q0 23 16.5 39.5t40.5 16.5h56q9 0 23.5 -7.5t22.5 -16.5q203 -285 412 -580.5t412 -583.5v1132q0 23 16.5 39.5t39.5 16.5h38q24 0 40 -16.5t16 -39.5v-1350q0 -23 -16 -39.5t-40 -16.5h-57q-10 0 -25.5 7.5t-20.5 17.5l1 -1q-105 148 -207.5 292.5 t-204.5 288.5t-205 288.5t-208 293.5v-1131q0 -23 -15.5 -39.5t-40.5 -16.5h-37q-24 0 -40.5 16.5t-16.5 39.5z" />
<glyph unicode="O" horiz-adv-x="1477" d="M33 731q0 160 43.5 293t128.5 240q175 227 505 231q167 -2 294 -60t216 -170q169 -217 169 -534q0 -151 -45 -287t-123 -242q-88 -109 -217.5 -171t-293.5 -64q-168 2 -293 61t-211 173q-173 215 -173 530zM182 731q3 -140 40 -250.5t106 -195.5q134 -166 382 -168 q125 1 220 42.5t164 126.5q72 85 107.5 195.5t37.5 249.5q-5 277 -144 447v-1q-68 78 -166 122t-219 46q-125 -2 -219.5 -44t-162.5 -123q-69 -85 -106 -196t-40 -251z" />
<glyph unicode="P" horiz-adv-x="1175" d="M70 56v1237q0 56 8 90t38 52t88 23.5t158 5.5h50q15 0 31 -0.5t34 -0.5h84q26 0 53.5 -0.5t57.5 -0.5q460 -1 468 -424q-1 -103 -36.5 -182t-104.5 -135q-135 -106 -346 -106h-433v-559q0 -23 -16 -39.5t-40 -16.5h-38q-23 0 -39.5 16.5t-16.5 39.5zM220 765h452 q145 0 232 74q84 68 86 199q0 269 -319 274q-75 0 -135 1t-110 3q-29 1 -59.5 1.5t-51.5 0.5q-56 0 -75.5 -5.5t-19.5 -24.5v-523z" />
<glyph unicode="Q" horiz-adv-x="1477" d="M33 731q0 160 43.5 293t128.5 240q175 227 506 231q167 -2 293.5 -60t215.5 -170q169 -217 169 -534q0 -157 -43.5 -290.5t-128.5 -240.5q18 -12 34 -23t33 -23q25 -17 49.5 -33.5t48.5 -33.5q18 -13 23 -35q1 -6 1 -12q0 -16 -9 -30l-19 -28q-13 -18 -36 -22 q-6 -2 -12 -2q-16 0 -31 10l-185 128q-162 -127 -404 -129q-168 2 -293 61t-211 173q-173 215 -173 530zM182 731q7 -276 147 -446q132 -166 382 -168q97 0 180 30t145 82l25 24q174 168 178 478q-2 139 -38.5 251t-105.5 196v-1q-68 78 -165.5 122t-218.5 46 q-248 -4 -382 -167q-140 -170 -147 -447z" />
<glyph unicode="R" horiz-adv-x="1251" d="M72 56v1350q0 23 16 39.5t40 16.5h552q466 0 468 -402q0 -236 -179 -343q35 -18 60 -43t43 -56q26 -52 42.5 -139.5t21.5 -201.5v1q3 -48 3 -77q-1 -11 -1 -19q-2 -30 5 -27q14 7 28.5 6t26.5 -7.5t19.5 -19.5t7.5 -30l-2 -45q0 -17 -12 -33t-29 -21q-11 -3 -21 -5 t-22 -2q-70 0 -107.5 69.5t-43.5 194.5q-4 112 -19.5 189.5t-40.5 112.5q-28 36 -91 52t-163 17h-452v-577q0 -23 -16 -39.5t-40 -16.5h-38q-24 0 -40 16.5t-16 39.5zM222 783h448q141 0 236 70q92 66 92 212v13q0 229 -309 234h-467v-529z" />
<glyph unicode="S" horiz-adv-x="1251" d="M32 504q0 24 16 40t40 16h38q23 0 39.5 -16.5t16.5 -39.5q2 -212 115 -295q60 -45 139 -69q76 -23 172 -23h8q72 0 141 19t129 51q52 32 80.5 82.5t30.5 119.5q0 84 -32 131q-17 23 -39.5 42t-53.5 33q-32 16 -67.5 28t-72.5 20q-42 11 -81 20t-81 17q-11 2 -21 4.5 t-20 4.5q-23 5 -44 10.5t-43 11.5q-10 3 -19.5 6t-18.5 5q-88 23 -159 62q-40 23 -70.5 51.5t-52.5 65.5l1 -1q-51 75 -51 190q0 61 13 110.5t38 87.5l-1 -1q47 77 128 127q77 46 166 65q42 8 85 12t87 4h8q217 0 360 -102q75 -56 116 -147t49 -214q-1 -23 -17 -41t-39 -18 h-38q-22 0 -38.5 15.5t-17.5 38.5q-4 86 -31.5 148.5t-75.5 98.5q-51 36 -121 54q-66 18 -146 17h-8.5h-8.5q-66 -1 -126 -15q-64 -16 -121 -44q-49 -26 -79 -75q-17 -23 -24.5 -53.5t-7.5 -67.5q0 -35 7 -63t22 -46q34 -45 86 -73h-1q29 -14 63.5 -25.5t75.5 -20.5 q29 -8 60 -15.5t63 -15.5h-1q11 -3 22 -6.5t22 -6.5v1q49 -11 97 -22.5t90 -22.5q40 -12 81.5 -30.5t76.5 -38.5q36 -21 66.5 -52t53.5 -69q22 -39 31.5 -88t9.5 -110q-2 -110 -47.5 -191.5t-130.5 -132.5q-77 -47 -165.5 -71t-187.5 -24q-125 0 -230 33t-186 94 q-75 66 -121 171t-47 239z" />
<glyph unicode="T" d="M-69 1368v38q0 23 16 39.5t41 16.5h1010q23 0 39 -16.5t16 -39.5v-38q0 -23 -16 -39.5t-39 -16.5h-431v-1256q0 -23 -16 -39.5t-41 -16.5h-37q-24 0 -40 16.5t-16 39.5v1256h-429q-25 0 -41 16.5t-16 39.5z" />
<glyph unicode="U" horiz-adv-x="1294" d="M71 559v847q0 23 16 39.5t41 16.5h37q24 0 40 -16.5t16 -39.5v-847v-7q1 -100 27 -178q28 -80 79 -135.5t126 -86t169 -35.5q93 5 167.5 35.5t126.5 85.5t80 135.5t28 185.5v847q0 23 16 39.5t41 16.5h37q24 0 40 -16.5t16 -39.5v-848q-8 -591 -552 -591q-546 0 -551 592 z" />
<glyph unicode="V" horiz-adv-x="1102" d="M-65 1385q-3 11 -3 20q0 17 9 33q14 24 46 24h37q15 0 31.5 -11.5t21.5 -24.5v1q58 -149 115 -295t114 -290.5t114 -290.5t116 -295q112 294 223 585.5t223 585.5q6 13 22 24t31 11h38q15 0 27 -6.5t20 -17.5q6 -10 8 -24q0 -3 1 -7q0 -11 -4 -22l-515 -1349l1 1 q-5 -15 -21.5 -26t-31.5 -11h-41q-16 0 -32 11t-21 25z" />
<glyph unicode="W" horiz-adv-x="1782" d="M-39 1390q-3 9 -3 18q0 18 12 32q16 22 46 22h39q17 0 32.5 -12t20.5 -28l330 -1124q41 136 81.5 271.5t82.5 272.5q44 146 86.5 290t86.5 290q5 16 21.5 28t33.5 12h55q17 0 33 -12.5t21 -27.5q85 -278 171 -562.5t171 -564.5q82 283 162.5 564t162.5 563 q5 15 21.5 27.5t32.5 12.5h38q30 0 46 -22q11 -15 11 -32q0 -9 -3 -18l-392 -1350q-5 -15 -21 -27.5t-33 -12.5h-50q-17 0 -33.5 11.5t-21.5 27.5l-345 1129q-85 -285 -168.5 -564t-168.5 -564q-5 -16 -21.5 -28t-31.5 -12h-52q-17 0 -33 12t-21 28z" />
<glyph unicode="X" horiz-adv-x="1065" d="M-87 54q0 20 12 36l495 661q-118 156 -234 311t-234 310q-12 16 -12 36q0 21 15.5 37.5t42.5 16.5h49q9 0 24 -7.5t21 -15.5l422 -565l426 565q6 8 20.5 15.5t23.5 7.5h48q26 0 42 -16t16 -37q0 -19 -13 -37q-55 -73 -114.5 -151.5t-119.5 -158.5t-119 -159t-114 -152 q61 -83 120.5 -163.5t121.5 -164.5q63 -84 124.5 -167t122.5 -166q12 -16 12 -36q0 -21 -15 -37.5t-42 -16.5h-46q-10 0 -25 7.5t-21 15.5l-448 604q-32 -42 -63.5 -85t-63.5 -84q-78 -105 -162 -217t-163 -218q-6 -8 -21 -15.5t-25 -7.5h-46q-27 0 -42 16.5t-15 37.5z" />
<glyph unicode="Y" horiz-adv-x="1102" d="M-92 1408q0 21 15.5 37.5t41.5 16.5h46q11 0 25.5 -7.5t21.5 -16.5l471 -675l475 675l-1 -1q5 9 20 17t26 8h46q26 0 41.5 -16.5t15.5 -37.5q0 -8 -2.5 -17.5t-8.5 -17.5l-537 -766v-551q0 -23 -16 -39.5t-40 -16.5h-37q-25 0 -41 16.5t-16 39.5v551 q-134 193 -267.5 383.5t-267.5 382.5q-11 17 -11 35z" />
<glyph unicode="Z" d="M-73 56v69l887 1187h-778q-24 0 -40 16.5t-16 39.5v38q0 23 16 39.5t40 16.5h928q25 0 40.5 -16.5t15.5 -39.5v-69l-888 -1187h847q24 0 40 -16.5t16 -39.5v-38q0 -23 -16 -39.5t-40 -16.5h-995q-25 0 -41 16.5t-16 39.5z" />
<glyph unicode="[" horiz-adv-x="455" d="M138 -270v1666q0 23 15.5 38.5t38.5 15.5h207q24 0 39.5 -15.5t15.5 -38.5v-37q0 -23 -15.5 -38.5t-39.5 -15.5h-115v-1484h115q24 0 39.5 -15.5t15.5 -38.5v-37q0 -23 -15.5 -39t-39.5 -16h-207q-23 0 -38.5 16t-15.5 39z" />
<glyph unicode="\" horiz-adv-x="682" d="M-45 1375q-9 27 5 51t45 24h36q15 0 30 -9.5t20 -22.5q147 -336 300.5 -686t299.5 -687q4 -14 3 -27.5t-8 -24t-18.5 -17.5t-26.5 -7h-36q-14 0 -29.5 10t-20.5 22z" />
<glyph unicode="]" horiz-adv-x="455" d="M-23 -233q0 23 15.5 38.5t39.5 15.5h115v1484h-115q-24 0 -39.5 15.5t-15.5 38.5v37q0 23 15.5 38.5t39.5 15.5h207q23 0 38.5 -15.5t15.5 -38.5v-1666q0 -23 -15.5 -39t-38.5 -16h-207q-24 0 -39.5 16t-15.5 39v37z" />
<glyph unicode="^" horiz-adv-x="1229" d="M84 467q-1 14 7 29l424 833v-1q5 11 20.5 20.5t28.5 9.5h37q12 0 27 -9t22 -20l424 -833q7 -15 6.5 -29t-7.5 -25.5t-19.5 -18t-28.5 -6.5h-37q-13 0 -28.5 9.5t-20.5 20.5v-1q-46 89 -90.5 176t-88.5 173t-88.5 173t-89.5 176q-45 -88 -88 -172l-86 -168 q-45 -88 -89.5 -176.5t-92.5 -181.5q-7 -11 -22 -20t-27 -9h-37q-16 0 -28.5 6.5t-19.5 18t-8 25.5z" />
<glyph unicode="_" d="M-28 -83q0 23 15.5 39t38.5 16h918q23 0 39 -16t16 -39v-92q0 -23 -16 -39t-39 -16h-918q-23 0 -38.5 16t-15.5 39v92z" />
<glyph unicode="`" horiz-adv-x="266" d="M-122 1397q0 21 15 37t41 16h54q8 0 22 -6t19 -11l231 -265q14 -19 14 -37q0 -21 -15 -37t-41 -16h-28q-8 0 -21 5t-18 10l-256 265q-9 9 -13 19.5t-4 19.5z" />
<glyph unicode="a" horiz-adv-x="985" d="M11 287q0 51 9 94t28 76q17 32 40.5 57t53.5 45q28 17 59.5 30.5t63.5 19.5q27 6 60 10t62 5q11 2 25 2t25 1q3 0 6 0.5t5 0.5h-1l38 3q19 2 36 3l34 2q32 3 58 7t45 10q27 8 37 20q10 14 10 49q0 18 -1 37.5t-3 39.5q-1 1 -1 3q-6 34 -28 65q-9 11 -23.5 22.5 t-31.5 19.5q-52 19 -132 19q-246 -5 -269 -226q-2 -20 -18 -35t-36 -15h-37q-23 0 -39 16t-16 40q4 81 32.5 146.5t81.5 116.5q104 103 299 104h8q69 0 127 -16q62 -17 116 -51q108 -76 117 -257v-599q1 1 3 1q8 2 17 3t20 -1q29 -5 42 -28q6 -12 6.5 -24t-6.5 -25 q-17 -34 -50 -55.5t-67 -21.5q-37 0 -67 22t-40 77q-12 -11 -22.5 -19.5t-24.5 -19.5q-117 -83 -281 -84q-80 0 -145 20.5t-115 57.5q-51 41 -80 99.5t-30 132.5zM158 288q0 -34 9 -56q9 -30 38 -54q44 -52 173 -54q78 1 140.5 25t104.5 70h-1q83 95 83 216v77 q-19 -7 -41.5 -10.5t-45.5 -5.5q-51 -5 -108 -9.5t-117 -7.5q-23 -1 -47 -3.5t-47 -8.5q-23 -5 -42 -13.5t-38 -19.5q-26 -15 -43 -51q-10 -17 -14 -40.5t-4 -54.5zM705 526v82q0 8 6 10q2 1 3 1q4 0 8 -4l38 -38q7 4 14 7.5t14 7.5q6 4 12 -2q3 -3 2 -7q0 -3 -2 -6 q-25 -36 -76 -58q-5 -3 -9 -3q-10 0 -10 10z" />
<glyph unicode="b" horiz-adv-x="1100" d="M73 728q0 52 1 94t2 68v475q0 23 15.5 39t39.5 16h36q23 0 39 -16t16 -39v-417q57 59 140 91.5t187 35.5q114 -2 199.5 -45t142.5 -124q58 -78 86 -173.5t28 -208.5q0 -233 -118 -384q-61 -78 -145 -119.5t-193 -43.5q-81 1 -150 26t-126 70q-54 43 -94 101t-63 127 q-12 36 -20.5 87t-13.5 109t-7 117.5t-2 113.5zM222 523q0 -167 89 -284q83 -113 238 -115q153 2 229 113q42 60 61.5 131t19.5 156q0 77 -21 150.5t-56 135.5h1q-35 56 -94 85.5t-139 32.5q-73 -5 -132.5 -33.5t-102.5 -79.5t-67 -124t-26 -168z" />
<glyph unicode="c" d="M28 506q0 114 30 213t89 180q61 83 155 128.5t221 47.5q152 0 271 -90q114 -96 140 -267q2 -24 -14 -42.5t-40 -18.5h-37q-19 0 -34.5 13.5t-19.5 32.5q-9 56 -33.5 99.5t-56.5 70.5q-73 55 -175 55q-48 0 -89 -9t-74 -26q-32 -18 -60 -42.5t-45 -50.5q-39 -65 -61 -140 q-21 -72 -21 -147v-7q0 -161 86 -271q42 -57 101.5 -83.5t139.5 -27.5q125 0 206 69h-1q76 66 90 188q2 20 18 34.5t36 14.5h37q26 0 42 -18q13 -15 13 -36v-8q-56 -381 -441 -391q-113 2 -201.5 44t-149.5 118q-58 74 -90 167.5t-32 199.5z" />
<glyph unicode="d" horiz-adv-x="1100" d="M62 524q0 113 28 208t85 173q58 82 143.5 125t199.5 45q111 -3 190 -32t137 -95v417q0 23 16 39t39 16h36q24 0 39.5 -16t15.5 -39v-491q0 -7 0.5 -15.5t0.5 -19.5v-49q0 -16 0.5 -31.5t0.5 -33.5q0 -55 -1.5 -115t-6 -117t-13 -107t-21.5 -86v1q-47 -141 -156 -227 q-57 -46 -127 -71t-151 -26q-107 2 -191.5 44.5t-144.5 118.5q-57 74 -88 171.5t-31 212.5zM208 524q0 -171 80 -287q74 -111 230 -113q78 1 136.5 29t100.5 86q45 59 67 131t23 153q-5 90 -30 163t-67.5 125t-101 82t-129.5 35q-78 -3 -137.5 -33.5t-94.5 -84.5 q-38 -63 -57.5 -134t-19.5 -152z" />
<glyph unicode="e" d="M17 526q5 264 145 403q136 146 323 146q124 -2 215.5 -47.5t149.5 -128.5q51 -75 77.5 -162t26.5 -184v-19.5t-1 -19.5q-2 -20 -18 -35t-36 -15h-733q6 -70 24.5 -129.5t50.5 -104.5q35 -54 95 -79.5t145 -26.5q131 1 209 69t107 200q3 18 18.5 31t34.5 13h37 q25 0 41.5 -18.5t13.5 -43.5q-26 -185 -148 -291q-63 -52 -139.5 -79t-169.5 -28q-245 2 -357 165q-111 150 -111 376v8zM168 610h637q-6 63 -25.5 117t-53.5 98q-41 53 -100 77.5t-138 25.5q-64 -1 -120 -25.5t-100 -70.5q-38 -42 -63.5 -96.5t-36.5 -125.5z" />
<glyph unicode="f" horiz-adv-x="418" d="M122 55v1152q1 75 25.5 121t72.5 66q68 26 143 26q25 -1 47.5 -3t39.5 -6q20 -4 33 -19t13 -34v-37q0 -26 -18.5 -41.5t-43.5 -12.5q-22 3 -41 5t-39 2q-60 0 -74 -16q-12 -12 -12 -57v-7v-213h148q23 0 39 -15.5t16 -39.5v-36q0 -23 -16 -39t-39 -16h-148v-780 q0 -23 -16 -39t-39 -16h-36q-24 0 -39.5 16t-15.5 39z" />
<glyph unicode="g" horiz-adv-x="1063" d="M22 557q0 107 29.5 197t86.5 165q120 154 345 156q76 -1 144.5 -24.5t122.5 -65.5q54 -45 96.5 -103.5t59.5 -123.5q21 -67 28 -146t7 -164q0 -76 -3 -149q0 -8 -0.5 -22t-0.5 -23q-1 -26 -1.5 -53t-0.5 -52v-31t1 -32q-7 -432 -446 -432h-2h-169q-24 0 -39.5 15.5 t-15.5 38.5v36q0 23 15.5 38.5t39.5 15.5l167 1h4q149 0 223 71q75 72 77 217v88q-27 -25 -55 -43q-59 -38 -127 -59.5t-137 -21.5q-111 1 -195 41.5t-142 115.5q-55 72 -83.5 159.5t-28.5 189.5zM168 557q0 -159 81 -261q74 -97 220 -99q78 1 136 26t100 77q83 102 83 257 q1 153 -80 263q-37 54 -92.5 80t-133.5 28q-78 -1 -135 -26t-95 -77q-84 -105 -84 -268z" />
<glyph unicode="h" d="M73 55v1310q0 23 15.5 39t38.5 16h38q22 0 38 -16t16 -39v-400q5 5 9.5 8t9.5 8q2 2 5 4l6 6q105 83 259 84q173 0 280 -102q54 -51 81.5 -124t28.5 -169v-625q0 -23 -16 -39t-39 -16h-37q-23 0 -39 16t-16 39v620q-1 69 -17 117t-50 77q-71 59 -175 59q-69 -2 -124 -28 t-89 -67q-35 -51 -56 -113.5t-21 -130.5v-534q0 -23 -16 -39t-38 -16h-38q-23 0 -38.5 16t-15.5 39z" />
<glyph unicode="i" horiz-adv-x="266" d="M53 55v943q0 23 16 39t39 16h36q24 0 39.5 -16t15.5 -39v-943q0 -23 -15.5 -39t-39.5 -16h-36q-23 0 -39 16t-16 39zM53 1180v185q0 23 16 39t39 16h36q24 0 39.5 -16t15.5 -39v-185q0 -24 -15.5 -39.5t-39.5 -15.5h-36q-23 0 -39 15.5t-16 39.5z" />
<glyph unicode="j" horiz-adv-x="266" d="M-143 -233q0 23 16 39t40 15q14 -1 26 -1q28 0 49 4q29 4 46 12l-3 -1q17 15 17 95v1068q0 23 15.5 39t38.5 16h38q23 0 38.5 -16t15.5 -39v-1081q0 -78 -22.5 -129.5t-64.5 -74.5q-19 -11 -42 -19t-49 -11q-11 -1 -23.5 -1.5t-25.5 -0.5q-14 -1 -25.5 -2t-22.5 -3 q-5 -1 -10 -1q-20 0 -34 13q-18 16 -18 42v37zM48 1180v185q0 23 15.5 39t38.5 16h38q23 0 38.5 -16t15.5 -39v-185q0 -24 -15.5 -39.5t-38.5 -15.5h-38q-23 0 -38.5 15.5t-15.5 39.5z" />
<glyph unicode="k" horiz-adv-x="909" d="M76 55v1310q0 23 15.5 39t39.5 16h36q23 0 39 -16t16 -39v-793q81 66 158.5 131.5t157.5 131.5q65 54 130.5 109t130.5 109h73q26 0 41 -16.5t15 -36.5q0 -24 -22 -43q-100 -83 -200 -167.5t-200 -167.5q38 -77 89 -143.5t112.5 -126t131.5 -113.5t145 -104 q8 -5 15.5 -20.5t7.5 -25.5l-2 -34q0 -17 -7 -29.5t-18 -19.5q-12 -8 -26 -8h-2q-13 0 -27 8q-189 102 -323 237t-210 284l-170 -142v-330q0 -23 -16 -39t-39 -16h-36q-24 0 -39.5 16t-15.5 39z" />
<glyph unicode="l" horiz-adv-x="266" d="M53 55v1310q0 23 16 39t39 16h36q24 0 39.5 -16t15.5 -39v-1310q0 -23 -15.5 -39t-39.5 -16h-36q-23 0 -39 16t-16 39z" />
<glyph unicode="m" horiz-adv-x="1593" d="M88 55v943q0 23 15.5 39t39.5 16h36q23 0 39 -16t16 -39v-29q6 5 11.5 10t11.5 10l-1 -1q96 85 227 87q202 -1 289 -147q16 22 35.5 40.5t41.5 35.5q98 70 219 71q197 -2 282 -118q73 -104 73 -273v-9v-620q0 -23 -15.5 -39t-39.5 -16h-36q-23 0 -39 16t-16 39v620v10 q-1 57 -11 101q-12 48 -33 83q-22 30 -62.5 44t-101.5 15q-57 -1 -100 -19t-72 -58q-66 -83 -69 -198v-598q0 -23 -15.5 -39t-38.5 -16h-38q-23 0 -38.5 16t-15.5 39v606v15q0 110 -40 186h1q-21 29 -55 48q-36 18 -103 18q-54 -2 -100.5 -28.5t-78.5 -65.5v1 q-33 -51 -52.5 -114t-19.5 -132v-534q0 -23 -16 -39t-39 -16h-36q-24 0 -39.5 16t-15.5 39z" />
<glyph unicode="n" d="M73 55v943q0 23 15.5 39t38.5 16h38q22 0 38 -16t16 -39v-33q5 5 9.5 8t9.5 8q2 2 5 4l6 6q105 83 259 84q173 0 280 -102q54 -51 81.5 -124t28.5 -169v-625q0 -23 -16 -39t-39 -16h-37q-23 0 -39 16t-16 39v620q-1 69 -17 117t-50 77q-71 59 -175 59q-69 -2 -124 -28 t-89 -67q-35 -51 -56 -113.5t-21 -130.5v-534q0 -23 -16 -39t-38 -16h-38q-23 0 -38.5 16t-15.5 39z" />
<glyph unicode="o" horiz-adv-x="1063" d="M23 526q0 110 31 204.5t91 173.5q124 166 359 171q235 -5 360 -171q59 -79 89 -173.5t30 -204.5q0 -215 -119 -376q-124 -168 -362 -173q-115 2 -204.5 46t-152.5 127q-57 79 -89.5 175t-32.5 201zM170 526q0 -166 90 -286q42 -57 102 -85.5t141 -30.5q165 5 248 117 q87 117 87 285q0 166 -87 286q-82 111 -247 116q-163 -4 -244 -116q-90 -123 -90 -286z" />
<glyph unicode="p" horiz-adv-x="1100" d="M77 330q0 55 1.5 114.5t6 116.5t12.5 107t22 86v-1q47 141 156 228q57 46 126.5 71t150.5 26q107 -2 192 -44.5t145 -118.5q57 -75 88 -172t31 -212q0 -113 -28 -208t-85 -173q-58 -82 -143.5 -125t-199.5 -45q-111 3 -190.5 31.5t-136.5 94.5v-416q0 -24 -16 -39.5 t-39 -15.5h-36q-24 0 -39.5 15.5t-15.5 39.5v491q0 7 -0.5 15.5t-0.5 19.5v49q0 16 -0.5 31.5t-0.5 33.5zM225 532q4 -91 29.5 -163.5t68 -124.5t101 -82t129.5 -35q80 2 138.5 31.5t93.5 86.5q77 127 77 286q0 170 -81 285q-38 58 -95 86t-134 29q-78 -1 -137 -29t-101 -86 q-44 -57 -66 -130t-23 -154z" />
<glyph unicode="q" horiz-adv-x="1100" d="M23 528q0 118 30.5 216t89.5 173q60 74 145.5 115.5t191.5 42.5q167 -1 278 -93q1 -1 1 -1.5t1 -1.5q14 -11 25 -20.5t22 -22.5v62q0 23 16 39t39 16h37q23 0 39 -16t16 -39v-1268q0 -23 -16 -39t-39 -16h-37q-23 0 -39 16t-16 39v375q-57 -58 -140 -91.5t-187 -36.5 q-109 2 -195 47.5t-146 125.5q-56 76 -86 172.5t-30 205.5zM168 528q0 -160 79 -282q71 -116 232 -122q74 5 133.5 33t102 79t66 124t26.5 169q0 38 -7 77t-19 76.5t-28 71.5t-34 62q-42 49 -103 79t-136 33q-75 -2 -133 -31.5t-96 -80.5q-37 -58 -60 -132.5t-23 -155.5z " />
<glyph unicode="r" horiz-adv-x="530" d="M64 55v943q0 23 15.5 39t39.5 16h36q24 0 39.5 -16t15.5 -39v-34q7 7 14 12t15 13q100 86 275 86h16q23 -1 38.5 -16.5t15.5 -38.5v-37q0 -23 -16.5 -39.5t-39.5 -15.5h-13q-75 0 -129 -21q-58 -23 -95 -71q-81 -107 -81 -247v-534q0 -23 -15.5 -39t-39.5 -16h-36 q-24 0 -39.5 16t-15.5 39z" />
<glyph unicode="s" horiz-adv-x="948" d="M24 377q0 23 15.5 39t39.5 16h36q22 0 38.5 -15.5t16.5 -38.5q2 -128 74 -192q70 -63 212 -62h4q48 0 92 11t86 34q68 36 73 124q0 23 -4 40t-11 29q-18 27 -57 45q-19 10 -43 20t-51 18q-14 4 -26.5 7.5t-26.5 7.5q-9 1 -16.5 2t-15.5 3t-15.5 2.5t-15.5 2.5 q-60 15 -119 33t-102 36q-72 29 -109.5 90t-37.5 156q0 106 89 195q49 44 120 71q34 13 75 18.5t90 5.5h4q185 0 284 -92q100 -93 108 -264q-2 -20 -17.5 -37.5t-37.5 -17.5h-36q-22 0 -38.5 16.5t-16.5 37.5q-2 116 -63 161q-68 49 -187 49q-44 0 -77 -5t-56 -13 q-42 -20 -63 -46q-22 -28 -25 -48q-8 -29 -8 -33q0 -50 19 -74q19 -30 50 -40q42 -14 100.5 -31t134.5 -35q28 -7 57 -14.5t56 -16.5q29 -8 58 -20.5t53 -28.5v1q58 -34 91 -90q32 -58 32 -140q-2 -85 -36.5 -146.5t-99.5 -101.5q-58 -35 -122 -52t-139 -17h-2 q-432 0 -434 400z" />
<glyph unicode="t" horiz-adv-x="494" d="M-52 962v36q0 23 16 39t39 16h119v223q0 12 8.5 27t19.5 22l37 18q14 8 28 8l1 -1q14 0 26 -6.5t19 -19t7 -29.5v-242h159q23 0 38.5 -16t15.5 -39v-36q0 -24 -15.5 -39.5t-38.5 -15.5h-159v-668q2 -70 17 -78q11 -9 27 -12q13 -3 29 -3q54 0 66 3h-1q29 8 49.5 -7.5 t20.5 -44.5v-37q0 -23 -16 -39t-39 -16h-10t-13 -1h1q-11 -2 -28 -3t-40 -1q-84 0 -139 46q-20 23 -33.5 44.5t-19.5 41.5q-17 45 -17 100v675h-119q-23 0 -39 15.5t-16 39.5z" />
<glyph unicode="u" d="M75 372v626q0 23 15.5 39t38.5 16h37q23 0 39 -16t16 -39v-621q2 -136 69 -193q70 -60 174 -60q72 1 125 25t88 75q77 98 77 240v534q0 23 15.5 39t38.5 16h37q23 0 38.5 -16t15.5 -39v-635q0 -20 -0.5 -37.5t-0.5 -34.5v-104q0 -20 -0.5 -26t-4.5 -7h5q2 0 4.5 0.5 t4.5 0.5q23 0 38.5 -15.5t15.5 -39.5v-45q0 -23 -15.5 -39t-38.5 -16q-5 0 -9 -0.5t-8 -0.5h-13q-34 0 -56.5 3.5t-37 13t-22 26t-10.5 41.5q-6 -5 -12 -9.5t-12 -9.5q-51 -40 -118 -63t-145 -24q-81 1 -151.5 28.5t-124.5 76.5q-55 52 -84 124.5t-29 165.5z" />
<glyph unicode="v" horiz-adv-x="833" d="M-51 977q-3 10 -3 20q0 17 9 32q15 24 44 24h45q14 0 29 -10.5t21 -22.5l315 -783q72 196 145 390.5t146 389.5q5 12 20.5 24t30.5 12h40q15 0 26.5 -6t18.5 -16.5t9 -24.5q1 -4 1 -7q0 -10 -4 -21l-356 -944v1q-5 -14 -21 -24.5t-30 -10.5h-47q-13 0 -28.5 10.5 t-21.5 22.5z" />
<glyph unicode="w" horiz-adv-x="1403" d="M-32 1009q2 13 9.5 22.5t19 15.5t25.5 6h36q16 0 32 -12t21 -26q30 -95 58.5 -187.5t57.5 -184.5t57.5 -184.5t58.5 -188.5q60 187 119.5 371.5t119.5 373.5q5 13 21.5 25.5t30.5 12.5h57q15 0 30.5 -12t21.5 -26l240 -745q59 187 118 372t117 373q5 14 21.5 26t31.5 12 h37q28 1 44 -21q11 -15 11 -33q0 -8 -2 -17q-74 -231 -151.5 -472t-150.5 -472q-5 -14 -21 -26t-32 -12h-47q-15 0 -31.5 11.5t-21.5 25.5l-242 751q-25 -74 -48.5 -147t-47.5 -147h-1q-38 -115 -74.5 -228.5t-73.5 -227.5q-5 -14 -21 -26t-32 -12h-52q-14 0 -30.5 12 t-21.5 26q-72 234 -146.5 472t-146.5 472q-2 9 -2 17q0 5 1 10z" />
<glyph unicode="x" horiz-adv-x="833" d="M-62 53q0 9 3 18.5t9 16.5q89 115 176.5 228t177.5 228q-33 45 -67.5 89t-67.5 89q-46 61 -92.5 122t-91.5 122q-13 18 -13 35q0 20 15.5 36t40.5 16h48q9 0 24 -7t20 -15l274 -369l281 369q7 8 21.5 15t22.5 7h43q26 0 41.5 -16.5t15.5 -36.5q0 -8 -4 -17.5t-9 -16.5 q-79 -105 -160 -211.5t-160 -210.5q6 -9 14 -19t15 -19q81 -104 162.5 -208.5t162.5 -209.5q12 -15 12 -34q0 -21 -15.5 -37.5t-40.5 -16.5h-45q-11 0 -25.5 7t-19.5 13l-312 405q-57 -74 -122.5 -159t-126.5 -165q-17 -20 -32 -40.5t-30 -39.5q-7 -7 -21 -14t-23 -7h-45 q-26 0 -41 16t-15 37z" />
<glyph unicode="y" horiz-adv-x="833" d="M-54 1004q2 13 9 24t18.5 18t25.5 7h40q14 0 29 -10.5t21 -22.5l322 -768l289 767q5 13 21 23.5t31 10.5h39q15 0 26.5 -6t18.5 -16.5t9 -24.5q1 -3 1 -7q0 -10 -4 -21l-435 -1136q-45 -115 -133 -147q-71 -20 -161 -20h-9q-23 1 -38 16.5t-15 38.5v37q0 23 15.5 38.5 t39.5 15.5q4 0 7.5 -0.5t7.5 -0.5h14q59 0 89 14q13 8 26.5 27.5t25.5 46.5q8 23 16.5 44.5t17.5 43.5q7 17 12.5 32.5t12.5 34.5q-48 114 -96 226.5t-96 227.5q-49 115 -97 229.5t-97 229.5q-4 10 -4 20q0 4 1 8z" />
<glyph unicode="z" horiz-adv-x="833" d="M-24 55v64l605 788h-501q-23 0 -38.5 15.5t-15.5 39.5v36q0 23 15.5 39t38.5 16h650q23 0 38.5 -16t15.5 -39v-65l-605 -787h580q23 0 38.5 -15.5t15.5 -39.5v-36q0 -23 -15.5 -39t-38.5 -16h-729q-23 0 -38.5 16t-15.5 39z" />
<glyph unicode="{" horiz-adv-x="682" d="M120 551v36q0 17 12.5 33t29.5 21q16 5 27 17q9 10 18 25t16 29q14 38 22.5 84t8.5 97v301q-9 257 187 256h91q24 0 39.5 -15.5t15.5 -38.5v-37q0 -23 -15.5 -38.5t-39.5 -15.5h-87q-8 0 -16 -3.5t-13 -8.5q-8 -17 -13 -50.5t-5 -79.5v-300q0 -93 -33 -192 q-10 -27 -21.5 -48.5t-22.5 -37.5q-9 -12 -9 -13q-2 -6 -7 -10q17 -17 30 -39t25 -49q38 -94 38 -211v-296q0 -51 5.5 -84t13.5 -49q8 -15 25 -13h90q24 0 39.5 -15.5t15.5 -38.5v-37q0 -23 -15.5 -39t-39.5 -16h-91q-196 0 -187 260v298q0 51 -5.5 94t-16.5 77h1 q-23 61 -88 100q-9 6 -17 21t-8 26z" />
<glyph unicode="|" horiz-adv-x="455" d="M142 -338v1836q0 23 16 39t39 16h37q23 0 39 -16t16 -39v-1836q0 -23 -16 -39t-39 -16h-37q-23 0 -39 16t-16 39z" />
<glyph unicode="}" horiz-adv-x="682" d="M59 -233q0 23 15.5 38.5t39.5 15.5h87q12 0 19.5 4.5t12.5 11.5q14 34 14 127v299q0 101 37 197q10 25 22 46.5t26 41.5q6 9 12 15q-15 19 -30 42.5t-26 47.5q-19 45 -30 99t-11 111v297q0 49 -4.5 82.5t-11.5 50.5q-4 5 -12 9t-18 3h-87q-24 0 -39.5 15.5t-15.5 38.5v37 q0 23 15.5 38.5t39.5 15.5h91q106 0 157 -80q31 -61 31 -177v-300q-1 -103 24 -170q19 -60 83 -101q9 -7 17.5 -21t8.5 -25v-36q0 -18 -12.5 -34t-31.5 -20q-29 -6 -55 -70q-34 -77 -34 -183v-303q0 -59 -8.5 -104t-25.5 -74q-46 -77 -154 -77h-91q-24 0 -39.5 16t-15.5 39 v37z" />
<glyph unicode="~" horiz-adv-x="1229" d="M122 421q-9 24 3 47q41 73 99 128q71 60 164 60q55 1 125 -20q29 -11 58 -23t55 -23q29 -14 56 -24t54 -19q33 -17 58 -17q14 1 28 7t25 19q17 17 32.5 36.5t27.5 41.5q9 16 28 23t35 1v1l36 -10q28 -8 37.5 -32t-4.5 -49q-16 -29 -40.5 -60.5t-47.5 -55.5 q-32 -32 -73 -50t-86 -18q-54 0 -107 25h1q-12 5 -23.5 9t-21.5 9q-11 5 -24 10.5t-27 10.5q-6 2 -13 5.5t-14 6.5l-34 16t-35 16q-45 16 -106 18q-17 0 -34.5 -6t-32.5 -19q-17 -14 -32.5 -34t-29.5 -47q-9 -15 -28.5 -23t-36.5 -3h1q-9 2 -19.5 5.5t-18.5 5.5 q-26 8 -35 32z" />
<glyph unicode="&#xa1;" horiz-adv-x="379" d="M108 -270v985q0 23 15.5 38.5t38.5 15.5h37q23 0 39 -15.5t16 -38.5v-985q0 -23 -16 -39t-39 -16h-37q-23 0 -38.5 16t-15.5 39zM108 869v180q0 23 15.5 39t38.5 16h37q23 0 39 -16t16 -39v-180q0 -23 -16 -38.5t-39 -15.5h-37q-23 0 -38.5 15.5t-15.5 38.5z" />
<glyph unicode="&#xa2;" horiz-adv-x="1139" d="M84 528q0 204 107 365q99 145 283 175v112q0 23 15.5 38.5t38.5 15.5h37q23 0 38.5 -15.5t15.5 -38.5v-110q128 -12 226 -87q60 -46 94.5 -112.5t47.5 -152.5q2 -24 -13.5 -42.5t-41.5 -18.5h-36q-18 0 -34 13.5t-20 32.5q-20 115 -89 166q-55 43 -134 54v-796 q43 5 78.5 23t66.5 47q72 71 86 185q3 20 19 34t36 14h36q27 0 42 -19t12 -45q-30 -166 -125 -265t-251 -119v-150q0 -23 -15.5 -38.5t-38.5 -15.5h-37q-23 0 -38.5 15.5t-15.5 38.5v151q-96 14 -163.5 58.5t-118.5 119.5q-51 77 -79.5 170.5t-28.5 196.5zM229 528 q0 -158 78 -281q56 -88 167 -115v787q-108 -26 -167 -113q-37 -60 -57.5 -130t-20.5 -148z" />
<glyph unicode="&#xa3;" horiz-adv-x="1139" d="M48 59q0 25 19 43q88 71 143 161h-1q26 42 39.5 85.5t15.5 89.5q-2 58 -10.5 106t-27.5 90h-106q-22 0 -38.5 15.5t-16.5 38.5v36q0 23 16.5 39t38.5 16h32q-11 20 -20 40t-20 40v-1q-26 48 -39.5 97.5t-14.5 99.5q4 203 153 305q136 90 317 90q238 0 370 -139 q57 -60 83.5 -136t26.5 -170q0 -20 -1 -39t-3 -37q-2 -19 -17.5 -33.5t-36.5 -14.5h-37q-23 0 -38.5 19t-15.5 41q2 14 2 25.5v22.5q0 145 -76 224q-91 92 -257 92q-127 0 -231 -62v1q-47 -29 -69 -76t-23 -113q1 -35 10.5 -71t31.5 -71q17 -32 29 -55.5t25 -46.5 q5 -9 8 -15t8 -17h257q23 0 38.5 -16t15.5 -39v-36q0 -23 -15.5 -38.5t-38.5 -15.5h-193q17 -48 24 -96.5t5 -99.5q-2 -64 -17.5 -121.5t-43.5 -109.5h15q51 0 110 -18l18 -5q17 -5 34 -10.5t40 -15.5q86 -41 157 -43q71 0 119 33q30 19 60 44.5t62 57.5q17 17 38 17t40 -17 l23 -25q8 -8 12.5 -19t4.5 -22q0 -8 -4 -17.5t-9 -16.5q-42 -48 -84.5 -83t-81.5 -56q-83 -42 -180 -42q-26 0 -53.5 4t-52.5 12q-23 8 -50.5 17.5t-50.5 17.5q-41 20 -79 29t-73 12q-53 -1 -101 -19.5t-91 -58.5q-17 -14 -37 -14q-11 0 -22 4t-18 14l1 -1q-8 9 -17 18.5 t-17 18.5q-14 15 -14 36z" />
<glyph unicode="&#xa4;" horiz-adv-x="1139" d="M30 678q3 170 103 306q-8 8 -16.5 16t-16.5 16q-9 8 -18.5 18t-18.5 19q-8 8 -12.5 18.5t-4.5 19.5t5 20t12 19l12.5 12.5t12.5 13.5q8 8 18.5 12t21.5 4q22 0 38 -16l70 -70q69 52 143 77t160 25q173 0 306 -102l69 70q16 16 38 16q10 0 20 -4t18 -12l27 -26 q8 -8 12 -18.5t4 -20.5q0 -9 -4 -19.5t-12 -18.5l-70 -69q102 -133 102 -306q0 -86 -25 -160t-77 -143l70 -70q16 -16 16 -39t-16 -38l-27 -26q-8 -8 -18 -12.5t-20 -4.5t-20 4.5t-18 12.5l-70 70q-69 -51 -143 -76t-162 -27q-85 0 -160 24.5t-144 77.5q-18 -17 -35 -34.5 t-34 -34.5q-16 -17 -38 -17q-24 0 -40 17l-25 26q-17 15 -17 38q0 22 17 39l69 70q-53 69 -77.5 143.5t-24.5 159.5zM175 678q1 -153 110 -254q100 -108 254 -110q156 2 259 110q103 101 105 254q-1 78 -26 142.5t-78 117.5q-54 54 -118 78.5t-142 25.5q-155 -2 -254 -105 q-108 -103 -110 -259z" />
<glyph unicode="&#xa5;" horiz-adv-x="1139" d="M12 1366.5q0 14.5 7 26.5t19.5 19.5t29.5 7.5h40q11 0 26 -9t21 -17q96 -158 191.5 -314.5t192.5 -314.5q69 114 137.5 224.5t137.5 223.5q26 44 54.5 90.5t56.5 90.5q6 8 21 17t26 9h40q17 0 30 -7.5t20 -19.5t6.5 -26.5t-9.5 -29.5l-385 -630h152q23 0 38.5 -16.5 t15.5 -38.5v-38q0 -23 -15.5 -38.5t-38.5 -15.5h-215v-78h215q23 0 38.5 -15.5t15.5 -38.5v-37q0 -23 -15.5 -39t-38.5 -16h-215v-281q0 -23 -15.5 -39t-38.5 -16h-38q-23 0 -38.5 16t-15.5 39v281h-216q-23 0 -38.5 16t-15.5 39v37q0 23 15.5 38.5t38.5 15.5h216v78h-216 q-23 0 -38.5 15.5t-15.5 38.5v38q0 22 15.5 38.5t38.5 16.5h156q-97 159 -192.5 315t-191.5 315q-9 15 -9 29.5z" />
<glyph unicode="&#xa6;" horiz-adv-x="455" d="M142 -109v459q0 24 16 39.5t39 15.5h37q23 0 39 -15.5t16 -39.5v-459q0 -23 -16 -38.5t-39 -15.5h-37q-23 0 -39 15.5t-16 38.5zM142 810v458q0 23 16 39t39 16h37q23 0 39 -16t16 -39v-458q0 -24 -16 -39.5t-39 -15.5h-37q-23 0 -39 15.5t-16 39.5z" />
<glyph unicode="&#xa7;" horiz-adv-x="1139" d="M80 698q1 54 20 102.5t56 89.5q20 23 42.5 43.5t45.5 35.5q-7 8 -12.5 16.5t-10.5 16.5q-19 32 -29 69t-10 81q0 93 42 156q40 61 97 92q57 27 108 39t98 11q167 0 270 -108q96 -110 98 -285q0 -23 -15.5 -39t-39.5 -16h-36q-23 0 -38.5 15.5t-16.5 38.5q-6 244 -227 249 q-17 0 -33.5 -2t-32.5 -5q-17 -5 -34.5 -11.5t-33.5 -15.5q-14 -9 -25 -21t-20 -26q-16 -28 -15 -72q3 -52 23 -81q12 -17 26.5 -32.5t31.5 -26.5q27 -18 58 -36.5t55 -32.5q32 -17 67 -36.5t68 -42.5h-1q203 -129 273 -214q40 -53 57 -105q7 -30 10.5 -58.5t3.5 -57.5 q0 -65 -29 -117q-25 -46 -67 -87q-41 -40 -79 -63q32 -36 50 -77q20 -55 20 -104q0 -10 -0.5 -18t-1.5 -14q-7 -71 -37.5 -129t-83.5 -96q-50 -35 -109 -52.5t-125 -17.5q-372 3 -374 410q0 23 15.5 38.5t38.5 15.5h37q23 0 38.5 -15.5t15.5 -38.5q0 -125 55 -195 q52 -64 175 -70q112 6 162 54q22 28 34 53.5t12 46.5q1 30 -4 54.5t-13 43.5v-1q-10 17 -40.5 43.5t-65.5 51.5q-60 40 -133 87t-149 95q-10 7 -20 12.5t-21 12.5q-134 92 -180 175q-43 81 -41 171zM226 682q0 -8 1 -16.5t3 -17.5t7 -21.5t10 -23.5q15 -27 44 -51 q17 -20 40.5 -39.5t51.5 -38.5l-1 1q48 -30 90.5 -56.5t81.5 -52t76.5 -50t75.5 -51.5q42 16 89 55q14 11 25 23t18 27q8 15 12 29.5t4 31.5q0 38 -9 71l1 -1q-5 12 -14 26.5t-23 31.5q-32 39 -89.5 84t-142.5 98v-1l-62 35q-23 14 -41.5 25.5t-36.5 22l-36 21t-39 22.5 q-2 -1 -3 -1t-3 -1h1q-4 -2 -8 -4.5t-9 -4.5q-29 -15 -52 -36q-14 -12 -24.5 -26t-20.5 -31v1q-8 -17 -12.5 -37t-4.5 -44z" />
<glyph unicode="&#xa8;" horiz-adv-x="266" d="M-90 1137v149q0 23 15.5 39t39.5 16h36q24 0 39.5 -16t15.5 -39v-149q0 -23 -15.5 -39t-39.5 -16h-36q-24 0 -39.5 16t-15.5 39zM196 1137v149q0 23 15.5 39t38.5 16h38q23 0 38.5 -16t15.5 -39v-149q0 -23 -15.5 -39t-38.5 -16h-38q-23 0 -38.5 16t-15.5 39z" />
<glyph unicode="&#xa9;" horiz-adv-x="1638" d="M35 709v2q5 318 219 526q210 210 522 213q314 -3 527 -213q104 -107 158.5 -237.5t56.5 -289.5q-2 -155 -59 -287.5t-155 -236.5q-106 -104 -238.5 -159.5t-289.5 -57.5q-310 4 -523 217q-106 106 -161 235.5t-57 287.5zM181 710q2 -127 45 -231t130 -189 q85 -87 189 -130t231 -45q127 2 231.5 44.5t190.5 130.5q86 84 128.5 188t44.5 232q-2 128 -44.5 233t-127.5 189q-167 168 -423 173q-253 -4 -420 -173q-88 -86 -130.5 -191t-44.5 -231zM338 699q0 100 31.5 186.5t89.5 150.5q60 67 143 101.5t189 34.5q149 0 259 -81 q54 -42 87.5 -103.5t46.5 -139.5q3 -24 -13 -43.5t-41 -19.5h-36q-20 0 -35.5 14t-18.5 33q-8 46 -29 84t-54 61q-73 50 -166 50q-147 -2 -225 -91q-82 -91 -82 -235q0 -145 85 -239q41 -49 97 -72t130 -24q86 0 152 54q66 52 92 154q5 17 21 29t33 12h36q28 0 43.5 -19 t10.5 -46q-17 -75 -50.5 -133t-83.5 -102v1q-103 -95 -254 -95q-104 1 -188 37t-146 105q-60 66 -91.5 149.5t-32.5 186.5z" />
<glyph unicode="&#xaa;" horiz-adv-x="614" d="M-38 882q0 35 6 65t20 53q28 45 74 70q5 2 10 4.5t11 4.5h-28q-24 0 -39 19t-16 41q13 115 84.5 176.5t203.5 63.5q107 0 182 -43q81 -52 89 -174v-331q24 2 43 -12.5t19 -40.5v-37q0 -22 -15 -38t-38 -16q-21 -1 -41 0.5t-40 9.5l1 -1q-39 6 -57 32q-38 -26 -90.5 -40 t-119.5 -14q-48 0 -88 10q-20 5 -42.5 15t-39.5 21v-1q-88 50 -89 163zM107 883q1 -14 6.5 -25t18.5 -18q40 -20 89 -20q96 0 146 49q46 46 46 110q-8 -2 -15.5 -2t-13.5 -1q-31 -2 -66.5 -5t-72.5 -5q-70 -5 -112 -25q-25 -12 -26 -58zM128 1095q54 14 113 16q44 1 82 3.5 t67 6.5q22 3 23 19q-2 94 -123 94q-134 -5 -144 -105q-3 -19 -18 -34zM413 993v75q0 8 6 10t11 -3l39 -40q7 3 13.5 6.5t12.5 6.5l12 -15q-14 -17 -34 -30t-48 -20q-12 -3 -12 10zM529 816l13 13q0 1 -0.5 1t-0.5 1q7 -2 6.5 -10.5t-7.5 -8.5q-2 0 -5 0.5t-6 3.5z" />
<glyph unicode="&#xab;" horiz-adv-x="721" d="M83 513v65l201 271q8 11 20.5 17t23.5 6q20 0 37 -15t17 -41v-81l-140 -188q20 -27 43 -58t43 -57q13 -19 27 -38t27 -36v-81q0 -26 -17 -41t-37 -15q-11 0 -23.5 6.5t-20.5 16.5zM255 513v65l199 271q9 11 21.5 17t24.5 6q20 0 37 -15t17 -41v-81l-141 -188 q19 -26 37 -49.5t38 -49.5q17 -23 33.5 -46t32.5 -44v-81q0 -26 -17 -41t-37 -15q-13 0 -25 5.5t-21 17.5z" />
<glyph unicode="&#xac;" horiz-adv-x="1229" d="M64 678v37q0 23 16.5 38.5t38.5 15.5h926q23 0 38.5 -15.5t15.5 -38.5v-490q0 -23 -15.5 -38.5t-38.5 -15.5h-38q-23 0 -38.5 15.5t-15.5 38.5v399h-834q-22 0 -38.5 15.5t-16.5 38.5z" />
<glyph unicode="&#xad;" horiz-adv-x="682" d="M108 528v36q0 24 16 39.5t39 15.5h321q23 0 38.5 -15.5t15.5 -39.5v-36q0 -23 -15.5 -39t-38.5 -16h-321q-23 0 -39 16t-16 39z" />
<glyph unicode="&#xae;" horiz-adv-x="1638" d="M35 709v2q5 318 219 526q210 210 522 213q314 -3 527 -213q104 -107 158.5 -237.5t56.5 -289.5q-2 -155 -59 -287.5t-155 -236.5q-106 -104 -238.5 -159.5t-289.5 -57.5q-310 4 -523 217q-106 106 -161 235.5t-57 287.5zM181 710q2 -127 45 -231t130 -189 q85 -87 189 -130t231 -45q127 2 231.5 44.5t190.5 130.5q86 84 128.5 188t44.5 232q-2 128 -44.5 233t-127.5 189q-167 168 -423 173q-253 -4 -420 -173q-88 -86 -130.5 -191t-44.5 -231zM490 302v789q0 24 16 39.5t39 15.5h259q317 -4 315 -269q-1 -60 -21.5 -108 t-58.5 -81q-21 -17 -43.5 -29.5t-47.5 -21.5q51 -76 100.5 -153t98.5 -153q8 -14 8.5 -29t-6 -27t-18.5 -20t-29 -8h-47q-11 0 -25 8t-21 17l-219 341h-154v-311q0 -23 -15.5 -39t-39.5 -16h-36q-23 0 -39 16t-16 39zM636 759h137q19 0 39 2t38 4q4 1 8 1.5t8 1.5 q6 1 11.5 2t9.5 2q3 2 6 2.5t6 2.5q7 2 12.5 3.5t7.5 3.5q11 5 22 14t17 18q8 11 11.5 26.5t3.5 35.5q0 45 -10 64q-7 11 -14.5 19t-15.5 13q-28 14 -60 20.5t-73 5.5h-164v-241z" />
<glyph unicode="&#xaf;" horiz-adv-x="266" d="M-141 1207v37q0 23 15.5 38.5t39.5 15.5h426q23 0 38.5 -15.5t15.5 -38.5v-37q0 -22 -15.5 -38.5t-38.5 -16.5h-426q-24 0 -39.5 16.5t-15.5 38.5z" />
<glyph unicode="&#xb0;" horiz-adv-x="819" d="M71 1062q2 131 93 224t224 93q70 0 125.5 -23.5t100.5 -69.5q44 -46 67 -101.5t24 -121.5v-2q-1 -66 -23.5 -121.5t-65.5 -102.5q-90 -95 -228 -96q-136 2 -224 94q-91 89 -93 227zM218 1063q1 -38 13 -69.5t40 -56.5q46 -48 118 -50q75 0 122 51q47 50 48 125 q0 70 -46 121q-47 47 -124 50q-69 -1 -118 -52q-27 -26 -39.5 -55.5t-13.5 -63.5z" />
<glyph unicode="&#xb1;" horiz-adv-x="1229" d="M64 55v36q0 24 16.5 39.5t38.5 15.5h926q23 0 38.5 -15.5t15.5 -39.5v-36q0 -23 -15.5 -39t-38.5 -16h-926q-22 0 -38.5 16t-16.5 39zM64 583v37q0 24 16.5 39.5t38.5 15.5h390v308q0 23 16 38.5t39 15.5h37q23 0 38.5 -15.5t15.5 -38.5v-308h390q23 0 38.5 -15.5 t15.5 -39.5v-37q0 -23 -15.5 -38.5t-38.5 -15.5h-390v-309q0 -24 -15.5 -39.5t-38.5 -15.5h-37q-23 0 -39 15.5t-16 39.5v309h-390q-22 0 -38.5 15.5t-16.5 38.5z" />
<glyph unicode="&#xb2;" horiz-adv-x="682" d="M-4 562q0 67 30 123q12 22 31 45t39 42t44 37t48 32v-1q5 4 10.5 8t10.5 7q3 2 6 3.5t6 3.5l-1 -1q6 4 11 6.5t10 6.5q7 5 16.5 11.5t17.5 12.5q48 29 87 58.5t69 61.5q26 25 39.5 53t14.5 62q-3 49 -35 73h1q-44 28 -124 28q-177 -4 -171 -166q1 -25 -14.5 -41 t-39.5 -16h-37q-23 0 -38.5 16t-15.5 40q0 72 19 128.5t56 98.5q77 85 240 85q121 0 207 -53q94 -61 97 -193q0 -20 -2.5 -40.5t-7.5 -40.5q-13 -49 -45 -90q-29 -38 -82 -82.5t-131 -96.5q-89 -55 -158 -111h1q-6 -5 -8 -7t-3.5 -3l-3 -2t-4.5 -5h412q23 0 38.5 -16 t15.5 -39v-38q0 -23 -15.5 -38.5t-38.5 -15.5h-547q-23 0 -39 15.5t-16 38.5z" />
<glyph unicode="&#xb3;" horiz-adv-x="682" d="M-17 819q1 21 17.5 36.5t37.5 15.5h36q24 0 40 -16t15 -40q-5 -89 45 -127q56 -46 159 -46q79 0 137 38q46 29 46 91q0 37 -11 57q-14 23 -35 37v-1q-14 8 -27.5 13.5t-28.5 7.5q-18 3 -37.5 5t-41.5 2h-44q-23 0 -38.5 15.5t-15.5 38.5v39q0 23 15.5 38.5t38.5 15.5h48 q71 0 126 29q36 17 38 73q0 16 -2 27.5t-5 19.5q-14 14 -31 24q-28 10 -60 16t-68 6q-182 1 -184 -154q0 -21 -16 -37t-39 -16h-37q-23 0 -38.5 15t-15.5 38q0 148 97 227q90 72 235 72q24 0 50 -1.5t52 -6.5q26 -4 51.5 -12.5t48.5 -21.5t43 -32.5t34 -42.5h-1 q32 -50 32 -121q0 -50 -18 -91t-51 -73q-2 -2 -5.5 -4.5t-6.5 -5.5q4 -2 7.5 -5t8.5 -6q77 -62 79 -186q-1 -61 -30 -114.5t-74 -90.5q-46 -33 -103.5 -51t-120.5 -18q-81 0 -146 21.5t-113 60.5q-48 45 -72.5 105.5t-20.5 136.5v-1z" />
<glyph unicode="&#xb4;" horiz-adv-x="266" d="M-29 1131q0 19 16 38l243 265q6 6 20 11t21 5h53q26 0 40.5 -16t14.5 -37q0 -23 -17 -40l-268 -264q-6 -5 -19.5 -10t-18.5 -5h-29q-26 0 -41 16t-15 37z" />
<glyph unicode="&#xb5;" horiz-adv-x="1139" d="M127 -270v1268q0 23 15.5 39t39.5 16h35q23 0 38.5 -16t15.5 -39v-621q1 -135 70 -193q69 -60 175 -60q72 1 124.5 25t87.5 75q77 98 77 240v534q0 23 15.5 39t38.5 16h37q23 0 38.5 -16t15.5 -39v-943q0 -23 -15.5 -39t-38.5 -16h-37q-23 0 -38.5 16t-15.5 39v32 q-7 -6 -14 -12.5t-13 -11.5q-104 -85 -262 -86q-108 0 -196 47h1q-25 11 -48 28v-322q0 -23 -16 -39t-39 -16h-36q-24 0 -39.5 16t-15.5 39z" />
<glyph unicode="&#xb6;" horiz-adv-x="1229" d="M95 1006q8 410 465 414h371q23 0 38 -16t15 -39v-1567q0 -24 -15 -39.5t-38 -15.5h-37q-23 0 -39 15.5t-16 39.5v1476h-189v-1476q0 -24 -16 -39.5t-39 -15.5h-36q-24 0 -39.5 15.5t-15.5 39.5v807q-81 8 -151.5 38t-124.5 78q-64 57 -98 128.5t-35 156.5z" />
<glyph unicode="&#xb7;" horiz-adv-x="569" d="M157 678q0 50 36 84q15 14 34.5 22t42.5 8q110 -3 113 -114q0 -52 -33 -79v1q-35 -35 -80 -35q-49 0 -79 34h1q-35 32 -35 79z" />
<glyph unicode="&#xb8;" horiz-adv-x="266" d="M-89 -271.5q-9 21.5 1 43.5l16 36q10 20 30.5 28t40.5 -1q27 -13 55 -18.5t58 -6.5q21 0 38.5 4t34.5 12q8 4 10.5 11t3.5 16q-1 2 -2 4.5t-2 4.5q-21 9 -41 9q-45 0 -71 -16q-12 -7 -30.5 -6t-29.5 9l-28 18q-11 8 -17 20.5t-6 24.5q0 19 12 34q25 32 51.5 66.5 t52.5 66.5q6 7 20.5 14t23.5 7h36q25 0 40.5 -16.5t15.5 -36.5q0 -21 -12 -34l-6 -8q20 -4 38 -11.5t35 -18.5q66 -41 67 -131q-1 -54 -22 -92.5t-59 -61.5q-30 -18 -69.5 -26.5t-84.5 -8.5q-26 0 -50 4t-47 12v-1q-5 2 -9.5 2.5t-9.5 2.5l1 -1q-20 5 -52 16q-24 8 -33 29.5 z" />
<glyph unicode="&#xb9;" horiz-adv-x="682" d="M73 1137v36q0 14 12 29.5t25 20.5q30 11 57 23.5t49 26.5q20 14 42 33t45 43q5 5 18.5 11.5t21.5 6.5h40q24 0 39.5 -16t15.5 -39v-750q0 -23 -15.5 -38.5t-39.5 -15.5h-37q-23 0 -38.5 15.5t-15.5 38.5v588q-8 -6 -17 -8h1q-33 -19 -65.5 -33t-66.5 -25q-29 -8 -50 8 t-21 45z" />
<glyph unicode="&#xba;" horiz-adv-x="614" d="M-38 1028q0 145 85 244v-1q43 53 104.5 80.5t140.5 27.5q161 0 250 -108q40 -51 60.5 -111t20.5 -132q0 -67 -21.5 -127.5t-59.5 -111.5q-42 -57 -106 -85.5t-146 -29.5q-158 2 -242 113q-42 51 -64 111.5t-22 129.5zM107 1028q0 -41 13 -78t40 -69q46 -61 133 -61 q85 0 133 61q51 67 51 147q0 41 -13 78t-37 70q-48 56 -135 58q-85 -3 -132 -59q-53 -65 -53 -147z" />
<glyph unicode="&#xbb;" horiz-adv-x="721" d="M130 277v81l139 189q-14 20 -29.5 41t-31.5 42q-20 26 -40 53.5t-38 51.5v81q0 26 17 41t37 15q24 0 44 -23l200 -271v-65l-200 -269q-9 -11 -21 -17t-23 -6q-20 0 -37 15t-17 41zM302 277v81l139 189q-5 7 -12 15.5t-12 16.5q-29 38 -59 79t-56 77v81q0 26 16 41t37 15 q11 0 23.5 -6t21.5 -17l200 -271v-65l-200 -269q-9 -11 -21.5 -17t-23.5 -6q-21 0 -37 15t-16 41z" />
<glyph unicode="&#xbc;" horiz-adv-x="1708" d="M176 1137v36q0 14 12 29.5t26 20.5q29 11 56.5 23.5t49.5 26.5q19 13 41 32t43 43q6 6 19.5 12.5t21.5 6.5h42q23 0 38.5 -16t15.5 -39v-750q0 -23 -15.5 -38.5t-38.5 -15.5h-37q-23 0 -39 15.5t-16 38.5v588q-8 -5 -16 -8h1q-33 -19 -66 -33t-66 -25q-28 -8 -50 7.5 t-22 45.5zM254 -8q0 15 9 29l873 1374q7 8 21 16.5t25 8.5h42q17 0 29.5 -8t19 -20t6 -27t-8.5 -29q-107 -167 -216.5 -340t-220.5 -347t-221 -347t-216 -340q-7 -9 -21 -17t-25 -8h-42q-17 0 -29 8t-18.5 20t-6.5 27zM750 242v64l407 531q6 8 20 15t23 7h46q23 0 38.5 -16 t15.5 -39v-470h85q24 0 39.5 -16t15.5 -39v-37q0 -23 -15.5 -39t-39.5 -16h-85v-132q0 -23 -15.5 -39t-38.5 -16h-37q-23 0 -38.5 16t-15.5 39v132h-352q-23 0 -38 16t-15 39zM955 334h200v259l-76 -98t-79 -102q-12 -17 -21.5 -28.5t-23.5 -30.5zM1155 622v132q0 6 4.5 8.5 t9.5 0.5l75 -32q11 -6 4 -15h1q-21 -27 -40.5 -52t-36.5 -48q-4 -6 -10.5 -4t-6.5 10z" />
<glyph unicode="&#xbd;" horiz-adv-x="1708" d="M109 1137v36q0 14 11 30t26 21v-1q29 11 56.5 23.5t48.5 26.5q20 13 43 33t44 43q7 6 21 12t20 6h40q23 0 38.5 -16t15.5 -39v-750q0 -23 -15.5 -38.5t-38.5 -15.5h-37q-23 0 -38.5 15.5t-15.5 38.5v588q-8 -6 -17 -8h1q-33 -19 -65.5 -33t-67.5 -25q-28 -8 -49 8t-21 45 zM167.5 -8q0.5 15 8.5 29l874 1374h-1q6 8 20.5 16.5t25.5 8.5h43q17 0 30 -7.5t20 -19.5t6.5 -27t-10.5 -30l-874 -1373h1q-6 -9 -20.5 -17.5t-25.5 -8.5h-42q-17 0 -29.5 8t-19.5 20t-6.5 27zM857 55q0 31 7 61t22 59q13 23 31.5 46t38.5 42q19 18 41.5 35t48.5 34 q8 5 14.5 8.5t12.5 8.5q5 4 10.5 7t10.5 7q11 7 22 14.5t22 15.5q48 27 85 55.5t67 60.5q52 50 53 117q-1 50 -32 71l1 -1q-26 14 -57 21.5t-69 7.5q-176 -5 -170 -166q1 -24 -14.5 -40.5t-39.5 -16.5h-37q-23 0 -39 16.5t-16 39.5q1 141 76 228q74 85 240 85q119 0 205 -53 q97 -65 98 -193q0 -22 -2 -42.5t-6 -40.5q-7 -23 -18 -43.5t-28 -45.5q-28 -37 -81.5 -82t-130.5 -95q-45 -29 -83.5 -56t-73.5 -55h1q-6 -5 -8.5 -7t-4.5 -3t-3.5 -3t-5.5 -6h412q23 0 39 -15.5t16 -39.5v-36q0 -23 -16 -39t-39 -16h-547q-23 0 -38 16t-15 39z" />
<glyph unicode="&#xbe;" horiz-adv-x="1708" d="M91 820q2 20 18 35.5t36 15.5h37q23 0 39.5 -17t14.5 -41v1q-5 -89 45 -126q58 -46 159 -46q80 0 139 38q45 30 46 91q-3 66 -49 94q-26 16 -54 22q-18 3 -38.5 5t-42.5 2h-11.5t-14.5 -1q-3 0 -6.5 -0.5t-7.5 -0.5q-23 -2 -40.5 14.5t-17.5 39.5v39q0 23 16 38.5 t39 15.5h47q72 0 127 29q19 9 27.5 28t9.5 45q0 16 -2 27.5t-5 19.5q-5 6 -12 12t-15 11q-28 11 -61.5 17t-70.5 6q-181 1 -183 -154q0 -21 -16.5 -37t-38.5 -16h-36q-24 0 -39.5 15t-15.5 38q0 148 97 227q93 72 234 72q24 0 51 -2t51 -6q55 -8 100 -35v1q23 -13 43.5 -32 t36.5 -45q14 -23 21 -53.5t7 -65.5q0 -99 -68 -164l-11 -10q12 -7 16 -11h-1q76 -62 80 -186q-2 -64 -30 -116.5t-75 -88.5q-47 -33 -104 -51t-121 -18q-164 0 -256 83l1 -1q-51 43 -74.5 105t-20.5 137zM353 -8q0 15 9 29l873 1374h-1q6 8 20.5 16.5t25.5 8.5h43 q17 0 29.5 -8t19 -20t6 -27t-8.5 -29q-107 -167 -216.5 -340t-220.5 -347t-221 -346.5t-216 -339.5h1q-6 -9 -20.5 -17.5t-25.5 -8.5h-43q-17 0 -29 8t-18.5 20t-6.5 27zM837 242v64l407 531q7 8 21.5 15t22.5 7h46q24 0 39.5 -16t15.5 -39v-470h85q23 0 38.5 -16t15.5 -39 v-37q0 -23 -15.5 -39t-38.5 -16h-85v-132q0 -23 -15.5 -39t-39.5 -16h-36q-23 0 -39 16t-16 39v132h-351q-24 0 -39.5 16t-15.5 39zM1042 334h201v259q-25 -32 -48 -61.5t-48 -61.5q-13 -17 -24.5 -32.5t-24 -31t-26.5 -33.5t-30 -39zM1243 622v132q0 6 4.5 8.5t9.5 0.5 l76 -32q11 -6 4 -15h1q-22 -27 -41 -51.5t-36 -48.5q-5 -6 -11.5 -4t-6.5 10z" />
<glyph unicode="&#xbf;" d="M66 13q1 73 22.5 136.5t57.5 110.5q61 79 119 123q46 43 77 80.5t50 73.5v-1q17 33 25.5 77t8.5 102q0 23 15.5 38.5t39.5 15.5h36q23 0 39 -15.5t16 -38.5q0 -63 -10.5 -119.5t-31.5 -105.5q-23 -48 -64 -101t-96 -106l-4.5 -4.5t-4.5 -3.5q-5 -5 -13.5 -12.5 t-14.5 -12.5q-14 -11 -26.5 -24.5t-25.5 -30.5q-13 -16 -25 -36.5t-23 -42.5q-10 -23 -15.5 -48.5t-5.5 -54.5q1 -51 18 -90t54 -65q37 -31 86.5 -45t112.5 -14q79 1 137 23.5t96 70.5q40 48 58.5 109t14.5 140q-1 25 14.5 41t40.5 16h36q23 0 38.5 -15.5t16.5 -37.5 q8 -217 -110 -349v1q-119 -144 -342 -144q-86 0 -158.5 23t-130.5 68q-60 47 -93.5 115t-34.5 153zM428 869v180q0 23 15.5 39t39.5 16h36q23 0 39 -16t16 -39v-180q0 -23 -16 -38.5t-39 -15.5h-36q-24 0 -39.5 15.5t-15.5 38.5z" />
<glyph unicode="&#xc0;" horiz-adv-x="1178" d="M-56.5 49q-1.5 14 4.5 29l548 1349q5 14 21 24.5t30 10.5h51q14 0 30.5 -11t21.5 -24l533 -1350q12 -30 -4 -53.5t-49 -23.5h-41q-14 0 -30 11t-21 25v-1q-42 104 -83 204.5t-83 204.5h-611q-29 -75 -59.5 -148.5t-60.5 -148.5q-12 -28 -23.5 -56t-22.5 -56v1 q-5 -14 -21.5 -25t-30.5 -11h-44q-16 0 -28 6.5t-19 17.5t-8.5 25zM321 594h493q-51 131 -103 265.5t-103 267.5q-6 14 -10 25t-8 21.5t-8 22t-10 25.5q-44 -109 -84.5 -210t-83.5 -206q-20 -51 -40.5 -102.5t-42.5 -108.5zM325 1777q0 21 16 37.5t43 16.5h55q8 0 22 -6.5 t21 -12.5q56 -65 118 -136t118 -136h-1q16 -19 16 -39q0 -21 -15.5 -37.5t-41.5 -16.5h-29q-8 0 -22 6t-19 12l-263 271q-18 18 -18 41zM523 1349q-2 6 3 10t11 0l35 -24q9 7 18 12.5t18 10.5l14 -11q-11 -27 -21 -52.5t-20 -51.5q-2 -7 -9 -6.5t-9 7.5q-3 8 -6.5 16.5 t-6.5 16.5v-1q-7 17 -13.5 35.5t-13.5 37.5z" />
<glyph unicode="&#xc1;" horiz-adv-x="1178" d="M-56.5 49q-1.5 14 4.5 29l548 1349q5 14 21 24.5t30 10.5h51q14 0 30.5 -11t21.5 -24l533 -1350q12 -30 -4 -53.5t-49 -23.5h-41q-14 0 -30 11t-21 25v-1q-42 104 -83 204.5t-83 204.5h-611q-29 -75 -59.5 -148.5t-60.5 -148.5q-12 -28 -23.5 -56t-22.5 -56v1 q-5 -14 -21.5 -25t-30.5 -11h-44q-16 0 -28 6.5t-19 17.5t-8.5 25zM321 594h493q-51 131 -103 265.5t-103 267.5q-6 14 -10 25t-8 21.5t-8 22t-10 25.5q-44 -109 -84.5 -210t-83.5 -206q-20 -51 -40.5 -102.5t-42.5 -108.5zM420 1501q0 21 17 40l250 272h-1q5 6 19.5 12 t22.5 6h54q26 0 41.5 -16.5t15.5 -37.5q0 -25 -17 -42q-69 -68 -138.5 -135.5t-138.5 -136.5q-5 -5 -18 -10.5t-21 -5.5h-29q-26 0 -41.5 16.5t-15.5 37.5zM523 1349q-2 6 3 10t11 0l35 -24q9 7 18 12.5t18 10.5l14 -11q-11 -27 -21 -52.5t-20 -51.5q-2 -7 -9 -6.5t-9 7.5 q-3 8 -6.5 16.5t-6.5 16.5v-1q-7 17 -13.5 35.5t-13.5 37.5z" />
<glyph unicode="&#xc2;" horiz-adv-x="1178" d="M-56.5 49q-1.5 14 4.5 29l548 1349q5 14 21 24.5t30 10.5h51q14 0 30.5 -11t21.5 -24l533 -1350q12 -30 -4 -53.5t-49 -23.5h-41q-14 0 -30 11t-21 25v-1q-42 104 -83 204.5t-83 204.5h-611q-29 -75 -59.5 -148.5t-60.5 -148.5q-12 -28 -23.5 -56t-22.5 -56v1 q-5 -14 -21.5 -25t-30.5 -11h-44q-16 0 -28 6.5t-19 17.5t-8.5 25zM292 1509q0 19 14 38l214 263q7 6 21 13.5t22 7.5h28q9 0 24 -6.5t20 -13.5l216 -263q14 -19 14 -38q0 -21 -16 -37.5t-42 -16.5h-38q-8 0 -22.5 6.5t-20.5 14.5q-38 46 -75.5 89.5t-75.5 89.5l-34 -42 l-34 -42q-20 -24 -38.5 -47.5t-37.5 -46.5q-7 -8 -21.5 -15t-21.5 -7h-39q-26 0 -41.5 16t-15.5 37zM321 594h493q-51 131 -103 265.5t-103 267.5q-6 14 -10 25t-8 21.5t-8 22t-10 25.5q-44 -109 -84.5 -210t-83.5 -206q-20 -51 -40.5 -102.5t-42.5 -108.5zM523 1349 q-2 6 3 10t11 0l35 -24q9 7 18 12.5t18 10.5l14 -11q-11 -27 -21 -52.5t-20 -51.5q-2 -7 -9 -6.5t-9 7.5q-3 8 -6.5 16.5t-6.5 16.5v-1q-7 17 -13.5 35.5t-13.5 37.5z" />
<glyph unicode="&#xc3;" horiz-adv-x="1178" d="M-56.5 49q-1.5 14 4.5 29l548 1349q5 14 21 24.5t30 10.5h51q14 0 30.5 -11t21.5 -24l533 -1350q12 -30 -4 -53.5t-49 -23.5h-41q-14 0 -30 11t-21 25v-1q-42 104 -83 204.5t-83 204.5h-611q-29 -75 -59.5 -148.5t-60.5 -148.5q-12 -28 -23.5 -56t-22.5 -56v1 q-5 -14 -21.5 -25t-30.5 -11h-44q-16 0 -28 6.5t-19 17.5t-8.5 25zM271 1532q2 76 53 135q27 32 60.5 50.5t70.5 19.5q43 0 89 -22q24 -13 39 -21t26 -16l3 -3q8 -6 17.5 -12t17.5 -11h-1l24 -14q8 -6 14 -8t11 -2q17 0 25 11q12 13 12 36q0 24 16.5 39.5t39.5 15.5h38 q23 0 39.5 -15.5t16.5 -39.5q0 -71 -42 -133q-53 -64 -145 -64q-51 0 -93 24q-2 2 -5 3.5t-5 3.5h1q-14 9 -28.5 17.5t-26.5 17.5q-5 4 -9 7l-8 6q-15 12 -32 22l3 -1q-8 3 -17 5.5t-17 3.5q-5 -2 -11.5 -5t-10.5 -8q-15 -19 -15 -43q0 -23 -16.5 -39t-39.5 -16h-38 q-24 0 -40.5 16.5t-15.5 39.5zM321 594h493q-51 131 -103 265.5t-103 267.5q-6 14 -10 25t-8 21.5t-8 22t-10 25.5q-44 -109 -84.5 -210t-83.5 -206q-20 -51 -40.5 -102.5t-42.5 -108.5zM523 1349q-2 6 3 10t11 0l35 -24q9 7 18 12.5t18 10.5l14 -11q-11 -27 -21 -52.5 t-20 -51.5q-2 -7 -9 -6.5t-9 7.5q-3 8 -6.5 16.5t-6.5 16.5v-1q-7 17 -13.5 35.5t-13.5 37.5z" />
<glyph unicode="&#xc4;" horiz-adv-x="1178" d="M-56.5 49q-1.5 14 4.5 29l548 1349q5 14 21 24.5t30 10.5h51q14 0 30.5 -11t21.5 -24l533 -1350q12 -30 -4 -53.5t-49 -23.5h-41q-14 0 -30 11t-21 25v-1q-42 104 -83 204.5t-83 204.5h-611q-29 -75 -59.5 -148.5t-60.5 -148.5q-12 -28 -23.5 -56t-22.5 -56v1 q-5 -14 -21.5 -25t-30.5 -11h-44q-16 0 -28 6.5t-19 17.5t-8.5 25zM321 594h493q-51 131 -103 265.5t-103 267.5q-6 14 -10 25t-8 21.5t-8 22t-10 25.5q-44 -109 -84.5 -210t-83.5 -206q-20 -51 -40.5 -102.5t-42.5 -108.5zM356 1508v153q0 25 16.5 41t39.5 16h38 q23 0 39.5 -16t16.5 -41v-153q0 -23 -16.5 -39.5t-39.5 -16.5h-38q-23 0 -39.5 16.5t-16.5 39.5zM523 1349q-2 6 3 10t11 0l35 -24q9 7 18 12.5t18 10.5l14 -11q-11 -27 -21 -52.5t-20 -51.5q-2 -7 -9 -6.5t-9 7.5q-3 8 -6.5 16.5t-6.5 16.5v-1q-7 17 -13.5 35.5t-13.5 37.5 zM651 1508v153q0 25 16 41t39 16h39q23 0 39.5 -16t16.5 -41v-153q0 -23 -16.5 -39.5t-39.5 -16.5h-39q-23 0 -39 16.5t-16 39.5z" />
<glyph unicode="&#xc5;" horiz-adv-x="1178" d="M-56.5 49q-1.5 14 4.5 29l548 1349q5 14 21 24.5t30 10.5h51q14 0 30.5 -11t21.5 -24l533 -1350q12 -30 -4 -53.5t-49 -23.5h-41q-14 0 -30 11t-21 25v-1q-42 104 -83 204.5t-83 204.5h-611q-29 -75 -59.5 -148.5t-60.5 -148.5q-12 -28 -23.5 -56t-22.5 -56v1 q-5 -14 -21.5 -25t-30.5 -11h-44q-16 0 -28 6.5t-19 17.5t-8.5 25zM321 594h493q-51 131 -103 265.5t-103 267.5q-6 14 -10 25t-8 21.5t-8 22t-10 25.5q-44 -109 -84.5 -210t-83.5 -206q-20 -51 -40.5 -102.5t-42.5 -108.5zM356 1613q0 50 21 91q8 17 20.5 34.5t26.5 31.5 q31 29 70 47t84 19q46 -1 85 -17t72 -49q65 -66 66 -155v-2q-1 -89 -65 -156q-63 -65 -158 -65q-92 0 -155 65q-66 64 -67 156zM506 1613q2 -31 24 -49q18 -23 48 -23q17 0 29 6t23 17q21 19 21 50t-20 53q-20 20 -53 20q-31 0 -49 -19q-12 -12 -17 -25.5t-6 -29.5z M523 1349q-2 6 3 10t11 0l35 -24q9 7 18 12.5t18 10.5l14 -11q-11 -27 -21 -52.5t-20 -51.5q-2 -7 -9 -6.5t-9 7.5q-3 8 -6.5 16.5t-6.5 16.5v-1q-7 17 -13.5 35.5t-13.5 37.5z" />
<glyph unicode="&#xc6;" horiz-adv-x="1745" d="M-48.5 52.5q-0.5 14.5 7.5 29.5l716 1350v-1q5 11 21 21t29 10h886q24 0 40 -16.5t16 -39.5v-38q0 -23 -16 -39.5t-40 -16.5h-685v-477h624q24 0 40.5 -16.5t16.5 -40.5v-38q0 -24 -16.5 -39.5t-40.5 -15.5h-624v-535h685q24 0 40 -16.5t16 -39.5v-38q0 -23 -16 -39.5 t-40 -16.5h-779q-24 0 -40 16.5t-16 39.5v462h-417q-23 -43 -45.5 -86t-44.5 -85q-42 -79 -84.5 -157.5t-84.5 -159.5q-7 -11 -21.5 -20.5t-27.5 -9.5h-42q-18 0 -31 7t-19.5 19t-7 26.5zM438 668h338v648q-18 -34 -34 -66.5t-33 -63.5q-35 -68 -67.5 -129.5t-64.5 -123 t-66 -126.5t-73 -139z" />
<glyph unicode="&#xc7;" horiz-adv-x="1403" d="M17 720q0 280 158 514v-1q165 255 534 262q150 -3 260.5 -46.5t184.5 -126.5h-1q150 -164 152 -320q0 -23 -16.5 -40t-39.5 -17h-39q-21 0 -37 15.5t-18 35.5q-6 67 -37.5 127t-90.5 112q-116 106 -319 110q-149 -1 -250 -61q-51 -29 -92 -66.5t-72 -82.5v1 q-63 -102 -95.5 -205t-31.5 -211q0 -248 140 -424q130 -174 379 -179q219 2 344 135q62 65 101 152.5t54 188.5q2 20 19 34t37 14h38q28 0 43.5 -18.5t11.5 -44.5q-18 -132 -68 -240.5t-131 -192.5q-120 -125 -303 -162h-1q67 -42 69 -135q-2 -112 -84 -158 q-63 -36 -158 -36q-29 1 -53.5 5t-47.5 12v-1q-5 1 -9 1.5t-9 2.5l1 -1q-10 2 -23 6t-32 11q-23 9 -33 31t0 44q4 9 8.5 18.5t8.5 18.5q9 20 31 28t42 -1q54 -23 118 -25q40 0 72 15q8 3 12 11t6 16q-2 8 -7 11q-20 11 -41 11q-44 0 -75 -18q-12 -7 -30.5 -6t-29.5 9l-28 20 h1q-13 8 -18.5 20t-5.5 25q0 19 11 35l24 29q-217 47 -358 214v-1q-174 205 -176 525z" />
<glyph unicode="&#xc8;" horiz-adv-x="1100" d="M69 56v1350q0 23 16.5 39.5t39.5 16.5h896q24 0 40 -16.5t16 -39.5v-38q0 -23 -16 -39.5t-40 -16.5h-802v-477h752q23 0 39 -16.5t16 -40.5v-38q0 -24 -16 -39.5t-39 -15.5h-752v-535h809q24 0 40 -16.5t16 -39.5v-38q0 -23 -16 -39.5t-40 -16.5h-903q-23 0 -39.5 16.5 t-16.5 39.5zM286 1777q0 21 16 37.5t42 16.5h56q7 0 21.5 -6.5t21.5 -12.5q56 -65 118 -136t118 -136h-1q8 -10 11.5 -20t3.5 -19q0 -21 -15.5 -37.5t-41.5 -16.5h-28q-8 0 -22 6t-19 11l-263 272q-18 18 -18 41z" />
<glyph unicode="&#xc9;" horiz-adv-x="1100" d="M69 56v1350q0 23 16.5 39.5t39.5 16.5h896q24 0 40 -16.5t16 -39.5v-38q0 -23 -16 -39.5t-40 -16.5h-802v-477h752q23 0 39 -16.5t16 -40.5v-38q0 -24 -16 -39.5t-39 -15.5h-752v-535h809q24 0 40 -16.5t16 -39.5v-38q0 -23 -16 -39.5t-40 -16.5h-903q-23 0 -39.5 16.5 t-16.5 39.5zM381 1501q0 21 17 40l249 272h-1q3 3 8.5 6t12 6t12.5 4.5t10 1.5h54q26 0 41.5 -16.5t15.5 -37.5q0 -25 -18 -42q-69 -68 -137.5 -135.5t-137.5 -135.5q-5 -6 -19 -11.5t-21 -5.5h-29q-26 0 -41.5 16.5t-15.5 37.5z" />
<glyph unicode="&#xca;" horiz-adv-x="1100" d="M69 56v1350q0 23 16.5 39.5t39.5 16.5h896q24 0 40 -16.5t16 -39.5v-38q0 -23 -16 -39.5t-40 -16.5h-802v-477h752q23 0 39 -16.5t16 -40.5v-38q0 -24 -16 -39.5t-39 -15.5h-752v-535h809q24 0 40 -16.5t16 -39.5v-38q0 -23 -16 -39.5t-40 -16.5h-903q-23 0 -39.5 16.5 t-16.5 39.5zM251 1509q0 9 3 19t10 19l214 263q5 7 20.5 14t24.5 7h27q8 0 22.5 -7t21.5 -13q54 -66 108 -131.5t108 -131.5q14 -19 14 -38q0 -21 -16 -37.5t-42 -16.5h-38q-8 0 -22.5 7t-19.5 15v-1q-40 48 -76 89.5t-75 89.5q-13 -14 -24.5 -29t-24.5 -30 q-24 -29 -48.5 -59.5t-47.5 -59.5v1q-2 -4 -7.5 -8t-12.5 -7.5t-13.5 -5.5t-10.5 -2h-38q-26 0 -41.5 16t-15.5 37z" />
<glyph unicode="&#xcb;" horiz-adv-x="1100" d="M69 56v1350q0 23 16.5 39.5t39.5 16.5h896q24 0 40 -16.5t16 -39.5v-38q0 -23 -16 -39.5t-40 -16.5h-802v-477h752q23 0 39 -16.5t16 -40.5v-38q0 -24 -16 -39.5t-39 -15.5h-752v-535h809q24 0 40 -16.5t16 -39.5v-38q0 -23 -16 -39.5t-40 -16.5h-903q-23 0 -39.5 16.5 t-16.5 39.5zM317 1508v153q0 25 16 41t40 16h37q25 0 41 -16t16 -41v-153q0 -23 -16 -39.5t-41 -16.5h-37q-24 0 -40 16.5t-16 39.5zM612 1508v153q0 25 15.5 41t40.5 16h37q24 0 40.5 -16t16.5 -41v-153q0 -23 -16.5 -39.5t-40.5 -16.5h-37q-25 0 -40.5 16.5t-15.5 39.5z " />
<glyph unicode="&#xcc;" horiz-adv-x="262" d="M-132 1777q0 21 16 37.5t42 16.5h56q4 0 10.5 -2t12.5 -5t11.5 -6.5t7.5 -6.5v1l237 -272h-1q16 -19 16 -39q0 -21 -16 -37.5t-42 -16.5h-29q-7 0 -21.5 6t-19.5 12l-262 271q-18 18 -18 41zM49 56v1350q0 23 16 39.5t40 16.5h39q23 0 39 -16.5t16 -39.5v-1350 q0 -23 -16 -39.5t-39 -16.5h-39q-24 0 -40 16.5t-16 39.5z" />
<glyph unicode="&#xcd;" horiz-adv-x="262" d="M-34 1501q0 20 15 40l251 272q7 6 20.5 12t19.5 6h56q26 0 41.5 -17t15.5 -37q0 -24 -19 -42l-275 -272q-5 -5 -19.5 -10.5t-20.5 -5.5h-28q-26 0 -41.5 16.5t-15.5 37.5zM53 56v1350q0 23 16.5 39.5t40.5 16.5h37q24 0 40 -16.5t16 -39.5v-1350q0 -23 -16 -39.5 t-40 -16.5h-37q-24 0 -40.5 16.5t-16.5 39.5z" />
<glyph unicode="&#xce;" horiz-adv-x="262" d="M-165 1510q0 20 13 37l214 263q3 3 8.5 7t12.5 7t13 5t10 2h28q8 0 23.5 -6.5t20.5 -13.5l216 -263q14 -19 14 -37q0 -21 -16 -38t-42 -17h-37q-8 0 -23 6.5t-21 14.5q-38 46 -75 89.5t-76 89.5q-14 -17 -28.5 -35t-29.5 -37q-23 -26 -44 -53t-42 -53q-7 -8 -21.5 -15 t-22.5 -7h-38q-26 0 -41.5 16.5t-15.5 37.5zM51 56v1350q0 23 16.5 39.5t39.5 16.5h38q24 0 40 -16.5t16 -39.5v-1350q0 -23 -16 -39.5t-40 -16.5h-38q-23 0 -39.5 16.5t-16.5 39.5z" />
<glyph unicode="&#xcf;" horiz-adv-x="262" d="M-99 1508v153q0 25 16 41t39 16h39q23 0 39.5 -16t16.5 -41v-153q0 -23 -16.5 -39.5t-39.5 -16.5h-39q-23 0 -39 16.5t-16 39.5zM51 56v1350q0 23 16.5 39.5t39.5 16.5h38q24 0 40 -16.5t16 -39.5v-1350q0 -23 -16 -39.5t-40 -16.5h-38q-23 0 -39.5 16.5t-16.5 39.5z M195 1508v153q0 25 16.5 41t39.5 16h38q24 0 40 -16t16 -41v-153q0 -23 -16 -39.5t-40 -16.5h-38q-23 0 -39.5 16.5t-16.5 39.5z" />
<glyph unicode="&#xd0;" horiz-adv-x="1327" d="M-51 740v38q0 24 16 40.5t40 16.5h65v571q0 23 16 39.5t39 16.5h474q54 0 109 -8t112 -25q55 -19 108.5 -50.5t96.5 -69.5q47 -43 84.5 -99.5t64.5 -126.5q53 -141 55 -353q-2 -192 -56 -332t-158 -228q-202 -170 -475 -170h-415q-23 0 -39 16.5t-16 39.5v629h-65 q-24 0 -40 15.5t-16 39.5zM220 150h329q223 0 376 142q76 70 114 179t40 260q0 45 -3 87t-8 82q-4 35 -11.5 65.5t-18.5 59.5v-1q-21 57 -49 100t-63 75q-32 30 -71.5 52.5t-81.5 36.5q-42 12 -89.5 18t-95.5 6h-368v-477h505q24 0 40 -16.5t16 -40.5v-38q0 -24 -16 -39.5 t-40 -15.5h-505v-535z" />
<glyph unicode="&#xd1;" horiz-adv-x="1327" d="M71 56v1350q0 23 16.5 39.5t40.5 16.5h56q9 0 23.5 -7.5t22.5 -16.5q203 -285 412 -580.5t412 -583.5v1132q0 23 16.5 39.5t39.5 16.5h38q24 0 40 -16.5t16 -39.5v-1350q0 -23 -16 -39.5t-40 -16.5h-57q-10 0 -25.5 7.5t-20.5 17.5l1 -1q-105 148 -207.5 292.5 t-204.5 288.5t-205 288.5t-208 293.5v-1131q0 -23 -15.5 -39.5t-40.5 -16.5h-37q-24 0 -40.5 16.5t-16.5 39.5zM343 1532q0 77 53 135q26 32 60 50.5t70 19.5q43 0 90 -22q24 -13 38 -21.5t25 -15.5l-1 -1q4 -2 8 -5t8 -5q13 -8 23.5 -14.5t21.5 -12.5q10 -7 16.5 -9.5 t11.5 -2.5q17 0 25 11q11 14 11 36q0 24 16 39.5t40 15.5h38q24 0 40 -15.5t16 -39.5q0 -73 -42 -133q-52 -64 -144 -64q-50 0 -93 24q-18 11 -34 21t-32 21q-14 11 -24.5 19t-22.5 16l3 -1q-8 3 -17.5 5.5t-18.5 3.5q-5 -2 -11.5 -6t-10.5 -7q-13 -21 -13 -43 q0 -23 -16.5 -39t-40.5 -16h-38q-23 0 -39.5 16.5t-15.5 39.5z" />
<glyph unicode="&#xd2;" horiz-adv-x="1477" d="M33 731q0 160 43.5 293t128.5 240q175 227 505 231q167 -2 294 -60t216 -170q169 -217 169 -534q0 -151 -45 -287t-123 -242q-88 -109 -217.5 -171t-293.5 -64q-168 2 -293 61t-211 173q-173 215 -173 530zM182 731q3 -140 40 -250.5t106 -195.5q134 -166 382 -168 q125 1 220 42.5t164 126.5q72 85 107.5 195.5t37.5 249.5q-5 277 -144 447v-1q-68 78 -166 122t-219 46q-125 -2 -219.5 -44t-162.5 -123q-69 -85 -106 -196t-40 -251zM473 1777q0 21 16 37.5t43 16.5h55q4 0 10.5 -2t12.5 -5t11.5 -6.5t7.5 -6.5v1l237 -272h-1 q16 -19 16 -39q0 -21 -15.5 -37.5t-41.5 -16.5h-29q-8 0 -22 6t-19 12l-263 271q-18 18 -18 41z" />
<glyph unicode="&#xd3;" horiz-adv-x="1477" d="M33 731q0 160 43.5 293t128.5 240q175 227 505 231q167 -2 294 -60t216 -170q169 -217 169 -534q0 -151 -45 -287t-123 -242q-88 -109 -217.5 -171t-293.5 -64q-168 2 -293 61t-211 173q-173 215 -173 530zM182 731q3 -140 40 -250.5t106 -195.5q134 -166 382 -168 q125 1 220 42.5t164 126.5q72 85 107.5 195.5t37.5 249.5q-5 277 -144 447v-1q-68 78 -166 122t-219 46q-125 -2 -219.5 -44t-162.5 -123q-69 -85 -106 -196t-40 -251zM566 1501q0 21 17 40l250 272h-1q5 6 19.5 12t22.5 6h54q26 0 41.5 -16.5t15.5 -37.5q0 -25 -17 -42 q-69 -68 -138 -135.5t-138 -135.5q-4 -6 -18 -11.5t-22 -5.5h-29q-26 0 -41.5 16.5t-15.5 37.5z" />
<glyph unicode="&#xd4;" horiz-adv-x="1477" d="M33 731q0 160 43.5 293t128.5 240q175 227 505 231q167 -2 294 -60t216 -170q169 -217 169 -534q0 -151 -45 -287t-123 -242q-88 -109 -217.5 -171t-293.5 -64q-168 2 -293 61t-211 173q-173 215 -173 530zM182 731q3 -140 40 -250.5t106 -195.5q134 -166 382 -168 q125 1 220 42.5t164 126.5q72 85 107.5 195.5t37.5 249.5q-5 277 -144 447v-1q-68 78 -166 122t-219 46q-125 -2 -219.5 -44t-162.5 -123q-69 -85 -106 -196t-40 -251zM438 1509q0 19 14 38l214 263q5 7 20 14t23 7h28q9 0 24 -6.5t20 -13.5l216 -263q14 -19 14 -38 q0 -21 -15.5 -37.5t-41.5 -16.5h-39q-8 0 -22.5 7t-19.5 15v-1q-39 48 -75.5 89.5t-75.5 89.5q-13 -14 -24.5 -29t-23.5 -30q-25 -29 -49 -59.5t-48 -59.5v1q-5 -8 -20 -15.5t-23 -7.5h-39q-26 0 -41.5 16t-15.5 37z" />
<glyph unicode="&#xd5;" horiz-adv-x="1477" d="M33 731q0 160 43.5 293t128.5 240q175 227 505 231q167 -2 294 -60t216 -170q169 -217 169 -534q0 -151 -45 -287t-123 -242q-88 -109 -217.5 -171t-293.5 -64q-168 2 -293 61t-211 173q-173 215 -173 530zM182 731q3 -140 40 -250.5t106 -195.5q134 -166 382 -168 q125 1 220 42.5t164 126.5q72 85 107.5 195.5t37.5 249.5q-5 277 -144 447v-1q-68 78 -166 122t-219 46q-125 -2 -219.5 -44t-162.5 -123q-69 -85 -106 -196t-40 -251zM416 1532q2 76 53 135q27 32 60.5 50.5t70.5 19.5q43 0 89 -22q24 -13 39 -21t26 -16l3 -3q11 -8 26 -18 t26 -16q-2 2 -0.5 1t3.5 -2q19 -12 28 -12q19 0 25 10q12 13 12 37t16.5 39.5t39.5 15.5h38q23 0 39.5 -15.5t16.5 -39.5q0 -71 -42 -133q-53 -64 -145 -64q-51 0 -93 24q-2 2 -5 3.5t-5 3.5h1q-14 9 -28.5 17.5t-26.5 17.5q-5 4 -9 7l-8 6q-15 12 -32 22l3 -1q-8 3 -17 5.5 t-17 3.5q-5 -2 -11.5 -5t-10.5 -8q-15 -20 -15 -43t-16.5 -39t-39.5 -16h-38q-23 0 -40 16.5t-16 39.5z" />
<glyph unicode="&#xd6;" horiz-adv-x="1477" d="M33 731q0 160 43.5 293t128.5 240q175 227 505 231q167 -2 294 -60t216 -170q169 -217 169 -534q0 -151 -45 -287t-123 -242q-88 -109 -217.5 -171t-293.5 -64q-168 2 -293 61t-211 173q-173 215 -173 530zM182 731q3 -140 40 -250.5t106 -195.5q134 -166 382 -168 q125 1 220 42.5t164 126.5q72 85 107.5 195.5t37.5 249.5q-5 277 -144 447v-1q-68 78 -166 122t-219 46q-125 -2 -219.5 -44t-162.5 -123q-69 -85 -106 -196t-40 -251zM504 1508v153q0 25 16.5 41t39.5 16h38q23 0 39.5 -16t16.5 -41v-153q0 -23 -16.5 -39.5t-39.5 -16.5 h-38q-23 0 -39.5 16.5t-16.5 39.5zM799 1508v153q0 25 16 41t39 16h39q23 0 39.5 -16t16.5 -41v-153q0 -23 -16.5 -39.5t-39.5 -16.5h-39q-23 0 -39 16.5t-16 39.5z" />
<glyph unicode="&#xd7;" horiz-adv-x="1229" d="M154 170q0 10 4.5 20t11.5 18l74 74l81 81t80.5 81t74.5 75l-310 310q-16 16 -16 39q0 22 16 38l25 24q16 16 38 16q10 0 20 -4t18 -12l310 -313q78 78 156 156.5t156 156.5q8 8 18 12t20 4q19 0 38 -16l26 -24q8 -8 11.5 -18.5t3.5 -19.5q0 -23 -15 -39l-311 -310 l99 -99q105 -107 212 -212q15 -17 15 -38q0 -20 -15 -38q-5 -5 -13 -12.5t-13 -13.5q-19 -17 -38 -17q-10 0 -20 4.5t-18 12.5l-312 312q-39 -39 -76 -76.5t-76 -76.5l-79.5 -79.5t-78.5 -79.5q-8 -8 -18 -12.5t-20 -4.5q-21 0 -38 17l-25 26q-6 8 -11 18t-5 20z" />
<glyph unicode="&#xd8;" horiz-adv-x="1477" d="M33 731q0 160 43.5 293t128.5 240q175 227 505 231q138 -2 248 -43.5t194 -118.5q7 8 15.5 17.5t16.5 17.5h-1l20 22l20 22q8 8 19.5 12.5t22.5 4.5q8 0 17.5 -2t17.5 -9h-1q7 -5 14.5 -11.5t14.5 -11.5q11 -8 15.5 -19.5t4.5 -22.5q0 -22 -13 -39q-23 -25 -43.5 -46.5 t-42.5 -47.5q72 -102 106 -222t34 -267q0 -151 -45 -287t-123 -242q-88 -109 -217.5 -171t-293.5 -64q-137 2 -247.5 45.5t-195.5 120.5q-11 -12 -22 -24.5t-22 -24.5q-13 -14 -25.5 -28.5t-23.5 -27.5q-8 -9 -19 -13.5t-23 -4.5q-9 0 -18.5 2.5t-16.5 9.5h1q-7 5 -14.5 11 t-14.5 11q-11 8 -16 20t-5 24q0 20 15 37l107 121q-70 102 -103.5 221.5t-33.5 263.5zM182 731q2 -111 24.5 -202.5t68.5 -168.5l776 862q-65 64 -148.5 92.5t-192.5 30.5q-121 -2 -218 -47t-164 -120q-66 -85 -104.5 -197.5t-41.5 -249.5zM369 244q65 -62 150.5 -94 t190.5 -33q125 1 220 42.5t164 126.5q72 85 107.5 195.5t37.5 249.5q-2 112 -25 204t-68 168z" />
<glyph unicode="&#xd9;" horiz-adv-x="1294" d="M71 559v847q0 23 16 39.5t41 16.5h37q24 0 40 -16.5t16 -39.5v-847q-1 -105 26.5 -185.5t79 -135.5t126.5 -85.5t169 -35.5q93 5 167.5 35.5t126.5 85.5t80 135.5t28 185.5v847q0 23 16 39.5t41 16.5h37q24 0 40 -16.5t16 -39.5v-848q-8 -591 -552 -591q-546 0 -551 592z M380 1777q0 21 16 37.5t42 16.5h56q8 0 22.5 -6.5t20.5 -12.5q56 -65 118 -136t118 -136h-1q16 -19 16 -39q0 -21 -16 -37.5t-42 -16.5h-28q-8 0 -22 6t-19 11l-263 272q-18 18 -18 41z" />
<glyph unicode="&#xda;" horiz-adv-x="1294" d="M71 559v847q0 23 16 39.5t41 16.5h37q24 0 40 -16.5t16 -39.5v-847q-1 -105 26.5 -185.5t79 -135.5t126.5 -85.5t169 -35.5q93 5 167.5 35.5t126.5 85.5t80 135.5t28 185.5v847q0 23 16 39.5t41 16.5h37q24 0 40 -16.5t16 -39.5v-848q-8 -591 -552 -591q-546 0 -551 592z M474 1501q0 21 16 40l250 272q7 6 20.5 12t20.5 6h55q26 0 41 -16.5t15 -37.5q0 -25 -18 -42q-69 -68 -137.5 -135.5t-137.5 -135.5q-5 -6 -18.5 -11.5t-20.5 -5.5h-29q-26 0 -41.5 16.5t-15.5 37.5z" />
<glyph unicode="&#xdb;" horiz-adv-x="1294" d="M71 559v847q0 23 16 39.5t41 16.5h37q24 0 40 -16.5t16 -39.5v-847q-1 -105 26.5 -185.5t79 -135.5t126.5 -85.5t169 -35.5q93 5 167.5 35.5t126.5 85.5t80 135.5t28 185.5v847q0 23 16 39.5t41 16.5h37q24 0 40 -16.5t16 -39.5v-848q-8 -591 -552 -591q-546 0 -551 592z M345 1509q0 18 13 38l214 263q5 7 20.5 14t24.5 7h27q8 0 22.5 -7t21.5 -13q54 -66 108 -131.5t108 -131.5q14 -19 14 -38q0 -21 -15.5 -37.5t-41.5 -16.5h-39q-8 0 -22.5 7t-19.5 15v-1q-40 48 -76 89.5t-75 89.5q-13 -14 -24.5 -29t-24.5 -30q-24 -29 -48.5 -59.5 t-47.5 -59.5v1q-2 -4 -7.5 -8t-12.5 -7.5t-13.5 -5.5t-10.5 -2h-37q-27 0 -42.5 16t-15.5 37z" />
<glyph unicode="&#xdc;" horiz-adv-x="1294" d="M71 559v847q0 23 16 39.5t41 16.5h37q24 0 40 -16.5t16 -39.5v-847q-1 -105 26.5 -185.5t79 -135.5t126.5 -85.5t169 -35.5q93 5 167.5 35.5t126.5 85.5t80 135.5t28 185.5v847q0 23 16 39.5t41 16.5h37q24 0 40 -16.5t16 -39.5v-848q-8 -591 -552 -591q-546 0 -551 592z M409 1508v153q0 25 16 41t40 16h38q24 0 40 -16t16 -41v-153q0 -23 -16 -39.5t-40 -16.5h-38q-24 0 -40 16.5t-16 39.5zM704 1508v153q0 25 16 41t40 16h37q24 0 40.5 -16t16.5 -41v-153q0 -23 -16.5 -39.5t-40.5 -16.5h-37q-24 0 -40 16.5t-16 39.5z" />
<glyph unicode="&#xdd;" horiz-adv-x="1102" d="M-92 1408q0 21 15.5 37.5t41.5 16.5h46q11 0 25.5 -7.5t21.5 -16.5l471 -675l475 675l-1 -1q5 9 20 17t26 8h46q26 0 41.5 -16.5t15.5 -37.5q0 -8 -2.5 -17.5t-8.5 -17.5l-537 -766v-551q0 -23 -16 -39.5t-40 -16.5h-37q-25 0 -41 16.5t-16 39.5v551 q-134 193 -267.5 383.5t-267.5 382.5q-11 17 -11 35zM383 1544q0 21 16 38l251 274q7 6 20.5 11.5t19.5 5.5h54q26 0 42 -16.5t16 -38.5q0 -24 -18 -41q-69 -69 -138 -136.5t-137 -135.5q-5 -5 -19 -10.5t-21 -5.5h-28q-26 0 -42 16.5t-16 38.5z" />
<glyph unicode="&#xde;" horiz-adv-x="1175" d="M70 56v1350q0 23 16.5 39.5t39.5 16.5h38q24 0 40 -16.5t16 -39.5v-179h452q460 -1 468 -424q-1 -103 -36.5 -182t-104.5 -135q-134 -105 -346 -105h-433v-325q0 -23 -16 -39.5t-40 -16.5h-38q-23 0 -39.5 16.5t-16.5 39.5zM220 531h452q144 0 232 73q84 68 86 199 q0 269 -319 274h-451v-546z" />
<glyph unicode="&#xdf;" horiz-adv-x="985" d="M73 55v1021q0 100 34 172q17 36 40 65t50 52q57 41 119.5 59.5t134.5 17.5q159 0 268 -91q124 -95 124 -267q0 -132 -67 -224q-12 -17 -26 -32.5t-31 -27.5q35 -17 61.5 -37.5t49.5 -49.5q81 -105 81 -273q2 -204 -112 -322q-122 -124 -402 -118q-23 1 -38.5 16.5 t-15.5 38.5v36q0 24 17 40.5t40 14.5h7q11 -1 21 -1.5t21 -0.5q141 0 223 58q48 31 70 90.5t23 147.5q0 43 -7 80t-18 63q-13 23 -30 43.5t-35 31.5q-48 26 -108.5 39.5t-134.5 13.5h-17h-17q-23 0 -39 15.5t-16 38.5v36q0 24 16.5 40t39.5 15q127 -4 220 51v-1 q77 48 78 177q-2 103 -66 154q-69 59 -180 59q-29 0 -74 -6q-18 -3 -37 -11.5t-38 -19.5q-17 -11 -32 -27t-26 -37q-24 -44 -24 -126v-1014q0 -23 -16 -39t-39 -16h-37q-23 0 -39 16t-16 39z" />
<glyph unicode="&#xe0;" horiz-adv-x="985" d="M23 287q0 104 36 170q17 32 40.5 57t53.5 45q29 17 61 31t62 19q27 6 60 10t62 5q11 2 25 2t25 1q3 0 6 0.5t5 0.5h-1l35 3q20 2 39 3t36 2h-1q32 3 57.5 7t45.5 10q26 7 37 20q10 14 10 49q0 38 -6 82q-4 17 -11 32t-16 31q-8 12 -23 23t-32 19q-26 9 -59.5 14t-72.5 5 q-125 -2 -192 -57.5t-77 -168.5q-2 -21 -18 -35.5t-37 -14.5h-36q-24 0 -40 16t-15 40q3 81 31.5 146.5t81.5 116.5q106 103 300 104q144 1 250 -67q109 -78 117 -257v-599q1 0 1.5 0.5t1.5 0.5q8 2 17 3t21 -1q14 -2 24.5 -9.5t16.5 -18.5t6 -24t-6 -26v1 q-17 -34 -49 -55.5t-67 -21.5q-38 0 -67.5 22t-40.5 77q-12 -11 -22.5 -19.5t-24.5 -19.5q-117 -83 -280 -84q-80 0 -145.5 20.5t-115.5 57.5q-51 41 -79.5 99.5t-29.5 132.5zM168 288q0 -15 3.5 -31t8.5 -29q5 -12 13 -24.5t19 -21.5q26 -29 70 -43t107 -15 q78 1 140.5 25.5t105.5 69.5h-1q40 47 61.5 101t21.5 115v77q-20 -6 -42 -10t-45 -6q-51 -5 -108.5 -9.5t-116.5 -7.5q-23 -1 -46.5 -3.5t-48.5 -8.5q-41 -10 -79 -33q-28 -16 -42 -48q-10 -19 -15.5 -43t-5.5 -55zM231 1358q0 21 15 37t41 16h54q8 0 22 -6.5t19 -10.5 l230 -265h-1q16 -19 16 -39t-15 -36t-41 -16h-29q-6 0 -19.5 5t-18.5 10l-256 266q-17 19 -17 39zM717 526v82q0 8 6 10t11 -3l37 -39q8 4 15 8l14 8t12 -2.5t0 -12.5q-25 -35 -77 -58l-8 -3q-10 0 -10 10z" />
<glyph unicode="&#xe1;" horiz-adv-x="985" d="M23 287q0 104 36 170q17 32 40.5 57t53.5 45q29 17 61 31t62 19q27 6 60 10t62 5q11 2 25 2t25 1q3 0 6 0.5t5 0.5h-1l35 3q20 2 39 3t36 2h-1q32 3 57.5 7t45.5 10q26 7 37 20q10 14 10 49q0 38 -6 82q-4 17 -11 32t-16 31q-8 12 -23 23t-32 19q-26 9 -59.5 14t-72.5 5 q-125 -2 -192 -57.5t-77 -168.5q-2 -21 -18 -35.5t-37 -14.5h-36q-24 0 -40 16t-15 40q3 81 31.5 146.5t81.5 116.5q106 103 300 104q144 1 250 -67q109 -78 117 -257v-599q1 0 1.5 0.5t1.5 0.5q8 2 17 3t21 -1q14 -2 24.5 -9.5t16.5 -18.5t6 -24t-6 -26v1 q-17 -34 -49 -55.5t-67 -21.5q-38 0 -67.5 22t-40.5 77q-12 -11 -22.5 -19.5t-24.5 -19.5q-117 -83 -280 -84q-80 0 -145.5 20.5t-115.5 57.5q-51 41 -79.5 99.5t-29.5 132.5zM168 288q0 -15 3.5 -31t8.5 -29q5 -12 13 -24.5t19 -21.5q26 -29 70 -43t107 -15 q78 1 140.5 25.5t105.5 69.5h-1q40 47 61.5 101t21.5 115v77q-20 -6 -42 -10t-45 -6q-51 -5 -108.5 -9.5t-116.5 -7.5q-23 -1 -46.5 -3.5t-48.5 -8.5q-41 -10 -79 -33q-28 -16 -42 -48q-10 -19 -15.5 -43t-5.5 -55zM323 1091q0 21 15 39l244 265q5 5 18.5 10.5t21.5 5.5h53 q25 0 40.5 -16.5t15.5 -37.5t-18 -39l-269 -265q-5 -5 -17.5 -10t-20.5 -5h-28q-26 0 -40.5 16.5t-14.5 36.5zM717 526v82q0 8 6 10t11 -3l37 -39q8 4 15 8l14 8t12 -2.5t0 -12.5q-25 -35 -77 -58l-8 -3q-10 0 -10 10z" />
<glyph unicode="&#xe2;" horiz-adv-x="985" d="M23 287q0 104 36 170q17 32 40.5 57t53.5 45q29 17 61 31t62 19q27 6 60 10t62 5q11 2 25 2t25 1q3 0 6 0.5t5 0.5h-1l35 3q20 2 39 3t36 2h-1q32 3 57.5 7t45.5 10q26 7 37 20q10 14 10 49q0 38 -6 82q-4 17 -11 32t-16 31q-8 12 -23 23t-32 19q-26 9 -59.5 14t-72.5 5 q-125 -2 -192 -57.5t-77 -168.5q-2 -21 -18 -35.5t-37 -14.5h-36q-24 0 -40 16t-15 40q3 81 31.5 146.5t81.5 116.5q106 103 300 104q144 1 250 -67q109 -78 117 -257v-599q1 0 1.5 0.5t1.5 0.5q8 2 17 3t21 -1q14 -2 24.5 -9.5t16.5 -18.5t6 -24t-6 -26v1 q-17 -34 -49 -55.5t-67 -21.5q-38 0 -67.5 22t-40.5 77q-12 -11 -22.5 -19.5t-24.5 -19.5q-117 -83 -280 -84q-80 0 -145.5 20.5t-115.5 57.5q-51 41 -79.5 99.5t-29.5 132.5zM168 288q0 -15 3.5 -31t8.5 -29q5 -12 13 -24.5t19 -21.5q26 -29 70 -43t107 -15 q78 1 140.5 25.5t105.5 69.5h-1q40 47 61.5 101t21.5 115v77q-20 -6 -42 -10t-45 -6q-51 -5 -108.5 -9.5t-116.5 -7.5q-23 -1 -46.5 -3.5t-48.5 -8.5q-41 -10 -79 -33q-28 -16 -42 -48q-10 -19 -15.5 -43t-5.5 -55zM198 1099q0 20 14 36l207 256q5 6 20 13t23 7h26 q8 0 22.5 -7t21.5 -12q51 -63 105 -128t105 -128q12 -17 12 -36q0 -20 -15 -36.5t-41 -16.5h-36q-9 0 -23 6.5t-19 12.5l-146 174q-17 -20 -33.5 -40.5t-33.5 -40.5q-20 -23 -38 -46t-36 -45q-2 -3 -7.5 -7t-11.5 -7t-12.5 -5t-10.5 -2h-37q-26 0 -41 16t-15 36zM717 526v82 q0 8 6 10t11 -3l37 -39q8 4 15 8l14 8t12 -2.5t0 -12.5q-25 -35 -77 -58l-8 -3q-10 0 -10 10z" />
<glyph unicode="&#xe3;" horiz-adv-x="985" d="M23 287q0 104 36 170q17 32 40.5 57t53.5 45q29 17 61 31t62 19q27 6 60 10t62 5q11 2 25 2t25 1q3 0 6 0.5t5 0.5h-1l35 3q20 2 39 3t36 2h-1q32 3 57.5 7t45.5 10q26 7 37 20q10 14 10 49q0 38 -6 82q-4 17 -11 32t-16 31q-8 12 -23 23t-32 19q-26 9 -59.5 14t-72.5 5 q-125 -2 -192 -57.5t-77 -168.5q-2 -21 -18 -35.5t-37 -14.5h-36q-24 0 -40 16t-15 40q3 81 31.5 146.5t81.5 116.5q106 103 300 104q144 1 250 -67q109 -78 117 -257v-599q1 0 1.5 0.5t1.5 0.5q8 2 17 3t21 -1q14 -2 24.5 -9.5t16.5 -18.5t6 -24t-6 -26v1 q-17 -34 -49 -55.5t-67 -21.5q-38 0 -67.5 22t-40.5 77q-12 -11 -22.5 -19.5t-24.5 -19.5q-117 -83 -280 -84q-80 0 -145.5 20.5t-115.5 57.5q-51 41 -79.5 99.5t-29.5 132.5zM168 288q0 -15 3.5 -31t8.5 -29q5 -12 13 -24.5t19 -21.5q26 -29 70 -43t107 -15 q78 1 140.5 25.5t105.5 69.5h-1q40 47 61.5 101t21.5 115v77q-20 -6 -42 -10t-45 -6q-51 -5 -108.5 -9.5t-116.5 -7.5q-23 -1 -46.5 -3.5t-48.5 -8.5q-41 -10 -79 -33q-28 -16 -42 -48q-10 -19 -15.5 -43t-5.5 -55zM176 1121q2 74 52 131q26 31 58.5 49t68.5 19q44 0 86 -22 q23 -11 37 -19t26 -16q2 -2 3 -4q13 -8 26 -16.5t25 -16.5q1 -1 3 -2q4 -2 7 -3q14 -8 20 -8q16 0 24 11q12 15 12 35q0 23 15.5 39t38.5 16h37q23 0 38.5 -16t15.5 -39q0 -70 -40 -128q-53 -63 -141 -63q-46 0 -90 23q-17 11 -33 21t-31 20q-4 4 -8 7l-8 6q-8 5 -14.5 10.5 t-14.5 10.5l1 -1q-7 3 -17.5 5.5t-18.5 3.5q-5 -2 -10 -5t-8 -8q-8 -10 -10.5 -20t-2.5 -20q0 -24 -16.5 -39.5t-38.5 -15.5h-38q-22 0 -38.5 16t-15.5 39zM717 526v82q0 8 6 10t11 -3l37 -39q8 4 15 8l14 8t12 -2.5t0 -12.5q-25 -35 -77 -58l-8 -3q-10 0 -10 10z" />
<glyph unicode="&#xe4;" horiz-adv-x="985" d="M23 287q0 104 36 170q17 32 40.5 57t53.5 45q29 17 61 31t62 19q27 6 60 10t62 5q11 2 25 2t25 1q3 0 6 0.5t5 0.5h-1l35 3q20 2 39 3t36 2h-1q32 3 57.5 7t45.5 10q26 7 37 20q10 14 10 49q0 38 -6 82q-4 17 -11 32t-16 31q-8 12 -23 23t-32 19q-26 9 -59.5 14t-72.5 5 q-125 -2 -192 -57.5t-77 -168.5q-2 -21 -18 -35.5t-37 -14.5h-36q-24 0 -40 16t-15 40q3 81 31.5 146.5t81.5 116.5q106 103 300 104q144 1 250 -67q109 -78 117 -257v-599q1 0 1.5 0.5t1.5 0.5q8 2 17 3t21 -1q14 -2 24.5 -9.5t16.5 -18.5t6 -24t-6 -26v1 q-17 -34 -49 -55.5t-67 -21.5q-38 0 -67.5 22t-40.5 77q-12 -11 -22.5 -19.5t-24.5 -19.5q-117 -83 -280 -84q-80 0 -145.5 20.5t-115.5 57.5q-51 41 -79.5 99.5t-29.5 132.5zM168 288q0 -15 3.5 -31t8.5 -29q5 -12 13 -24.5t19 -21.5q26 -29 70 -43t107 -15 q78 1 140.5 25.5t105.5 69.5h-1q40 47 61.5 101t21.5 115v77q-20 -6 -42 -10t-45 -6q-51 -5 -108.5 -9.5t-116.5 -7.5q-23 -1 -46.5 -3.5t-48.5 -8.5q-41 -10 -79 -33q-28 -16 -42 -48q-10 -19 -15.5 -43t-5.5 -55zM261 1098v148q0 24 15.5 39.5t38.5 15.5h37 q23 0 38.5 -15.5t15.5 -39.5v-148q0 -23 -15.5 -39t-38.5 -16h-37q-23 0 -38.5 16t-15.5 39zM546 1098v148q0 24 16 39.5t39 15.5h37q23 0 39 -15.5t16 -39.5v-148q0 -23 -16 -39t-39 -16h-37q-23 0 -39 16t-16 39zM717 526v82q0 8 6 10t11 -3l37 -39q8 4 15 8l14 8t12 -2.5 t0 -12.5q-25 -35 -77 -58l-8 -3q-10 0 -10 10z" />
<glyph unicode="&#xe5;" horiz-adv-x="985" d="M23 287q0 104 36 170q17 32 40.5 57t53.5 45q29 17 61 31t62 19q27 6 60 10t62 5q11 2 25 2t25 1q3 0 6 0.5t5 0.5h-1l35 3q20 2 39 3t36 2h-1q32 3 57.5 7t45.5 10q26 7 37 20q10 14 10 49q0 38 -6 82q-4 17 -11 32t-16 31q-8 12 -23 23t-32 19q-26 9 -59.5 14t-72.5 5 q-125 -2 -192 -57.5t-77 -168.5q-2 -21 -18 -35.5t-37 -14.5h-36q-24 0 -40 16t-15 40q3 81 31.5 146.5t81.5 116.5q106 103 300 104q144 1 250 -67q109 -78 117 -257v-599q1 0 1.5 0.5t1.5 0.5q8 2 17 3t21 -1q14 -2 24.5 -9.5t16.5 -18.5t6 -24t-6 -26v1 q-17 -34 -49 -55.5t-67 -21.5q-38 0 -67.5 22t-40.5 77q-12 -11 -22.5 -19.5t-24.5 -19.5q-117 -83 -280 -84q-80 0 -145.5 20.5t-115.5 57.5q-51 41 -79.5 99.5t-29.5 132.5zM168 288q0 -15 3.5 -31t8.5 -29q5 -12 13 -24.5t19 -21.5q26 -29 70 -43t107 -15 q78 1 140.5 25.5t105.5 69.5h-1q40 47 61.5 101t21.5 115v77q-20 -6 -42 -10t-45 -6q-51 -5 -108.5 -9.5t-116.5 -7.5q-23 -1 -46.5 -3.5t-48.5 -8.5q-41 -10 -79 -33q-28 -16 -42 -48q-10 -19 -15.5 -43t-5.5 -55zM261 1290q0 50 19 89q8 17 20 34t26 31q29 26 68.5 44 t82.5 19q44 -1 82 -16t70 -47q63 -64 64 -152v-2q-1 -86 -63 -151q-63 -63 -153 -63q-89 0 -152 63q-32 32 -47.5 69t-16.5 82zM406 1290q2 -27 24 -48q18 -20 47 -20q30 0 50 20q19 20 19 49q0 32 -18 52q-19 19 -51 19q-30 0 -48 -19q-21 -20 -23 -53zM717 526v82 q0 8 6 10t11 -3l37 -39q8 4 15 8l14 8t12 -2.5t0 -12.5q-25 -35 -77 -58l-8 -3q-10 0 -10 10z" />
<glyph unicode="&#xe6;" horiz-adv-x="1821" d="M51 287q0 101 35 168q17 34 41.5 59.5t53.5 44.5t60.5 31.5t62.5 18.5q29 7 60 11t63 4q3 0 7 0.5t9 0.5q8 0 13 1q11 1 22.5 1.5t22.5 1.5q25 2 49 4t44 3q35 3 60.5 7t41.5 9q23 8 38 21q5 9 8 22t3 27q0 22 -1.5 43t-3.5 38q-7 31 -29 64q-9 14 -23.5 24.5t-31.5 18.5 q-25 8 -57 13t-75 5q-246 -5 -269 -226q-2 -20 -18 -35t-36 -15h-37q-23 0 -39 16t-16 40q9 161 115 264q51 50 126 76t173 27q148 2 251 -67q53 -38 84 -108q19 24 39 45.5t43 39.5q56 43 125 66t150 24q122 -2 212 -45t147 -130q51 -75 76 -160.5t25 -186.5v-19t-1 -20 q-1 -20 -17.5 -35t-36.5 -15h-726q8 -71 27 -128t52 -104q70 -107 239 -108q62 0 115 17.5t95 49.5q39 35 65.5 86t36.5 114q3 19 18.5 32.5t34.5 13.5h38q23 0 38 -20t16 -41q-11 -86 -47.5 -160t-93.5 -125q-62 -54 -141 -83t-175 -31q-136 3 -233.5 57t-155.5 157 q-42 -71 -108 -119q-63 -46 -136 -70t-158 -25q-80 0 -145 20.5t-115 57.5q-51 41 -80 99.5t-30 132.5zM197 288q0 -14 4 -30.5t12 -35.5q8 -23 33 -45q43 -51 172 -53q80 1 141 24t103 71q83 93 83 216v77q-19 -6 -41 -9.5t-46 -6.5q-51 -5 -108.5 -9.5t-117.5 -7.5 q-23 -1 -47 -3.5t-47 -8.5q-22 -5 -41 -13.5t-38 -19.5q-14 -8 -25.5 -21t-19.5 -32q-17 -30 -17 -93zM745 526v82q0 8 6 10t11 -3l38 -39q8 4 14.5 7.5t13.5 6.5q6 3 11 -3t0 -12q-27 -34 -76 -56l-4 -1q1 0 0.5 -0.5t-1.5 -0.5q-13 -4 -13 9zM897 610h630q-5 67 -25 119 t-52 96q-75 102 -235 103q-147 -1 -226 -94v1q-35 -43 -58 -98t-34 -127z" />
<glyph unicode="&#xe7;" d="M28 506q0 114 30 213t89 180q61 83 155 128.5t221 47.5q152 0 271 -90q114 -96 140 -267q2 -24 -14 -42.5t-40 -18.5h-37q-19 0 -34.5 13.5t-19.5 32.5q-9 56 -33.5 99.5t-56.5 70.5q-73 55 -175 55q-48 0 -89 -9t-74 -26q-32 -18 -60 -42.5t-45 -50.5q-39 -65 -61 -140 t-21 -154q0 -161 86 -271q42 -57 101.5 -83.5t139.5 -27.5q125 0 206 69h-1q76 66 90 188q2 20 18 34.5t36 14.5h37q26 0 42 -18t13 -44q-45 -314 -320 -375q5 -2 8.5 -4t7.5 -4q65 -40 67 -132q-2 -108 -80 -154q-30 -18 -70 -26.5t-85 -8.5q-28 0 -51.5 4t-45.5 12v-2 l-24 6q-12 3 -23.5 6.5t-23.5 7.5q-23 8 -31 30.5t0 43.5q3 8 8 18t8 18q9 20 30 28t41 -1q26 -13 54 -18.5t59 -6.5q39 0 73 16q13 7 15 27q-2 6 -6 9h1q-11 5 -20.5 7t-20.5 2q-42 0 -72 -16q-5 -3 -13 -4.5t-16.5 -1t-16.5 2.5t-14 6l-27 18q-12 8 -18 20t-6 25 q0 18 12 33l34 43q-40 8 -72 22t-60 33.5t-52 44t-47 54.5q-56 72 -86.5 162.5t-30.5 192.5z" />
<glyph unicode="&#xe8;" d="M17 526q5 264 145 403q136 146 323 146q124 -2 215.5 -47.5t149.5 -128.5q51 -75 77.5 -162t26.5 -184v-19.5t-1 -19.5q-2 -20 -18 -35t-36 -15h-733q6 -70 24.5 -129.5t50.5 -104.5q35 -54 95 -79.5t145 -26.5q131 1 209 69t107 200q3 18 18.5 31t34.5 13h37 q25 0 41.5 -18.5t13.5 -43.5q-26 -185 -148 -291q-63 -52 -139.5 -79t-169.5 -28q-245 2 -357 165q-113 153 -111 384zM168 610h637q-6 63 -25.5 117t-53.5 98q-41 53 -100 77.5t-138 25.5q-64 -1 -120 -25.5t-100 -70.5q-38 -42 -63.5 -96.5t-36.5 -125.5zM246 1358 q0 21 15 37t41 16h53q9 0 23 -6.5t19 -11.5v1q58 -67 115 -133.5t115 -132.5q13 -17 13 -38q0 -20 -14.5 -36t-40.5 -16h-28q-6 0 -20 5.5t-19 10.5l-255 265q-17 19 -17 39z" />
<glyph unicode="&#xe9;" d="M17 526q5 264 145 403q136 146 323 146q124 -2 215.5 -47.5t149.5 -128.5q51 -75 77.5 -162t26.5 -184v-19.5t-1 -19.5q-2 -20 -18 -35t-36 -15h-733q6 -70 24.5 -129.5t50.5 -104.5q35 -54 95 -79.5t145 -26.5q131 1 209 69t107 200q3 18 18.5 31t34.5 13h37 q25 0 41.5 -18.5t13.5 -43.5q-26 -185 -148 -291q-63 -52 -139.5 -79t-169.5 -28q-245 2 -357 165q-113 153 -111 384zM168 610h637q-6 63 -25.5 117t-53.5 98q-41 53 -100 77.5t-138 25.5q-64 -1 -120 -25.5t-100 -70.5q-38 -42 -63.5 -96.5t-36.5 -125.5zM335 1091 q0 20 16 39l243 265q6 5 19.5 10.5t20.5 5.5h53q26 0 41 -16t15 -37q0 -22 -18 -40l-268 -265q-5 -5 -17.5 -10t-20.5 -5h-28q-26 0 -41 16.5t-15 36.5z" />
<glyph unicode="&#xea;" d="M17 526q5 264 145 403q136 146 323 146q124 -2 215.5 -47.5t149.5 -128.5q51 -75 77.5 -162t26.5 -184v-19.5t-1 -19.5q-2 -20 -18 -35t-36 -15h-733q6 -70 24.5 -129.5t50.5 -104.5q35 -54 95 -79.5t145 -26.5q131 1 209 69t107 200q3 18 18.5 31t34.5 13h37 q25 0 41.5 -18.5t13.5 -43.5q-26 -185 -148 -291q-63 -52 -139.5 -79t-169.5 -28q-245 2 -357 165q-113 153 -111 384zM168 610h637q-6 63 -25.5 117t-53.5 98q-41 53 -100 77.5t-138 25.5q-64 -1 -120 -25.5t-100 -70.5q-38 -42 -63.5 -96.5t-36.5 -125.5zM211 1100 q0 18 12 35l208 256q5 6 20.5 13t23.5 7h26q8 0 23 -6.5t20 -12.5l210 -256q13 -16 13 -36t-15 -36.5t-41 -16.5h-37q-8 0 -22 6.5t-19 13.5q-38 46 -73.5 87t-73.5 86l-8 -10t-9 -11q-31 -38 -62.5 -76t-60.5 -75q-7 -6 -21 -13.5t-22 -7.5h-36q-26 0 -41 16.5t-15 36.5z " />
<glyph unicode="&#xeb;" d="M17 526q5 264 145 403q136 146 323 146q124 -2 215.5 -47.5t149.5 -128.5q51 -75 77.5 -162t26.5 -184v-19.5t-1 -19.5q-2 -20 -18 -35t-36 -15h-733q6 -70 24.5 -129.5t50.5 -104.5q35 -54 95 -79.5t145 -26.5q131 1 209 69t107 200q3 18 18.5 31t34.5 13h37 q25 0 41.5 -18.5t13.5 -43.5q-26 -185 -148 -291q-63 -52 -139.5 -79t-169.5 -28q-245 2 -357 165q-113 153 -111 384zM168 610h637q-6 63 -25.5 117t-53.5 98q-41 53 -100 77.5t-138 25.5q-64 -1 -120 -25.5t-100 -70.5q-38 -42 -63.5 -96.5t-36.5 -125.5zM274 1098v148 q0 24 16 39.5t39 15.5h37q23 0 39 -15.5t16 -39.5v-148q0 -23 -16 -39t-39 -16h-37q-23 0 -39 16t-16 39zM561 1098v148q0 24 15.5 39.5t38.5 15.5h37q23 0 38.5 -15.5t15.5 -39.5v-148q0 -23 -15.5 -39t-38.5 -16h-37q-23 0 -38.5 16t-15.5 39z" />
<glyph unicode="&#xec;" horiz-adv-x="266" d="M-123 1358q0 21 15 37t41 16h54q8 0 22 -6t19 -11l231 -266q14 -19 14 -38q0 -20 -15 -36t-41 -16h-28q-8 0 -21 5.5t-18 10.5l-256 265q-17 17 -17 39zM51 55v943q0 23 15.5 39t39.5 16h36q23 0 39 -16t16 -39v-943q0 -23 -16 -39t-39 -16h-36q-24 0 -39.5 16t-15.5 39z " />
<glyph unicode="&#xed;" horiz-adv-x="266" d="M-30 1090q0 21 17 40l242 265q5 5 19 10.5t22 5.5h53q26 0 40.5 -16t14.5 -37q0 -23 -17 -40l-269 -266q-5 -5 -18.5 -9.5t-18.5 -4.5h-29q-25 0 -40.5 16t-15.5 36zM57 55v943q0 23 15.5 39t38.5 16h37q23 0 38.5 -16t15.5 -39v-943q0 -23 -15.5 -39t-38.5 -16h-37 q-23 0 -38.5 16t-15.5 39z" />
<glyph unicode="&#xee;" horiz-adv-x="266" d="M-153 1100q0 19 13 35l208 256q5 6 20 13t23 7h27q4 0 10 -2t12.5 -4.5t12 -6t8.5 -6.5l209 -256q14 -17 14 -36q0 -20 -15.5 -36.5t-40.5 -16.5h-38q-8 0 -22 6.5t-19 13.5q-38 46 -73 87t-73 86q-5 -5 -9 -10t-9 -11q-31 -38 -62 -76.5t-60 -75.5q-5 -6 -20 -13t-24 -7 h-36q-26 0 -41 16.5t-15 36.5zM53 55v943q0 23 16 39t39 16h36q24 0 39.5 -16t15.5 -39v-943q0 -23 -15.5 -39t-39.5 -16h-36q-23 0 -39 16t-16 39z" />
<glyph unicode="&#xef;" horiz-adv-x="266" d="M-91 1098v148q0 24 15.5 39.5t39.5 15.5h36q24 0 39.5 -15.5t15.5 -39.5v-148q0 -23 -15.5 -39t-39.5 -16h-36q-24 0 -39.5 16t-15.5 39zM53 55v943q0 23 16 39t39 16h36q24 0 39.5 -16t15.5 -39v-943q0 -23 -15.5 -39t-39.5 -16h-36q-23 0 -39 16t-16 39zM195 1098v148 q0 24 15.5 39.5t38.5 15.5h38q23 0 38.5 -15.5t15.5 -39.5v-148q0 -23 -15.5 -39t-38.5 -16h-38q-23 0 -38.5 16t-15.5 39z" />
<glyph unicode="&#xf0;" horiz-adv-x="1063" d="M23 510q0 106 31.5 198t91.5 168q63 78 152.5 119.5t204.5 43.5q32 0 63.5 -3.5t61.5 -9.5l-2 1q-34 39 -63 70t-56 54l-65 -35q-30 -17 -61.5 -35.5t-63.5 -35.5q-14 -8 -34 -5t-31 15q-7 7 -14.5 14t-13.5 13q-17 19 -17 40q0 14 7 27t21 21l148 81q-20 13 -45 27 t-52 28q-29 17 -29 47q0 12 5.5 24t16.5 20l29 26q11 9 30 11t31 -5q43 -24 84 -50t74 -51q22 11 41.5 23t40.5 24q28 15 54.5 30t55.5 31q16 8 36 5t31 -16h-1q7 -8 14 -15t13 -15q7 -8 11.5 -18.5t4.5 -19.5q0 -30 -29 -48l-154 -87q170 -168 255 -346t83 -367 q0 -209 -119 -364q-126 -161 -362 -166q-233 5 -356 166q-123 156 -123 365zM170 510q0 -159 89 -273q83 -107 244 -111q167 5 248 111q87 114 87 273q0 161 -87 271q-82 108 -247 113q-164 -4 -245 -113q-89 -111 -89 -271z" />
<glyph unicode="&#xf1;" d="M73 55v943q0 23 15.5 39t38.5 16h38q22 0 38 -16t16 -39v-33q5 5 9.5 8t9.5 8q2 2 5 4l6 6q105 83 259 84q173 0 280 -102q54 -51 81.5 -124t28.5 -169v-625q0 -23 -16 -39t-39 -16h-37q-23 0 -39 16t-16 39v620q-1 69 -17 117t-50 77q-71 59 -175 59q-69 -2 -124 -28 t-89 -67q-35 -51 -56 -113.5t-21 -130.5v-534q0 -23 -16 -39t-38 -16h-38q-23 0 -38.5 16t-15.5 39zM192 1121q2 74 52 131q26 31 58.5 49t68.5 19q44 0 87 -22q23 -11 37 -19t25 -16l2 -2q15 -11 29.5 -20t28.5 -18v1q17 -11 24 -11q16 0 24 11q12 15 12 35q0 23 15.5 39 t38.5 16h37q23 0 39 -16t16 -39q0 -35 -10.5 -67t-30.5 -61q-53 -63 -141 -63q-48 0 -89 23q-17 11 -33 21t-31 20q-6 5 -11.5 8.5t-10.5 7.5q-5 5 -11.5 9t-13.5 9l-18 4.5t-15 3.5q-11 -4 -19 -13q-14 -18 -14 -40q0 -24 -15.5 -39.5t-39.5 -15.5h-36q-23 0 -39.5 16 t-15.5 39z" />
<glyph unicode="&#xf2;" horiz-adv-x="1063" d="M23 526q0 110 31 204.5t91 173.5q124 166 359 171q235 -5 360 -171q59 -79 89 -173.5t30 -204.5q0 -215 -119 -376q-124 -168 -362 -173q-115 2 -204.5 46t-152.5 127q-57 79 -89.5 175t-32.5 201zM170 526q0 -166 90 -286q42 -57 102 -85.5t141 -30.5q165 5 248 117 q87 117 87 285q0 166 -87 286q-82 111 -247 116q-163 -4 -244 -116q-90 -123 -90 -286zM267 1359q0 21 15 36.5t41 15.5h54q8 0 22 -6t19 -11l231 -266q13 -20 13 -38q0 -20 -15 -36t-41 -16h-27q-8 0 -21.5 5.5t-17.5 10.5l-256 265q-7 9 -12 20t-5 20z" />
<glyph unicode="&#xf3;" horiz-adv-x="1063" d="M23 526q0 110 31 204.5t91 173.5q124 166 359 171q235 -5 360 -171q59 -79 89 -173.5t30 -204.5q0 -215 -119 -376q-124 -168 -362 -173q-115 2 -204.5 46t-152.5 127q-57 79 -89.5 175t-32.5 201zM170 526q0 -166 90 -286q42 -57 102 -85.5t141 -30.5q165 5 248 117 q87 117 87 285q0 166 -87 286q-82 111 -247 116q-163 -4 -244 -116q-90 -123 -90 -286zM357 1091q0 20 16 39l242 265q5 5 19 10.5t21 5.5h53q26 0 41 -16t15 -37t-17 -40l-268 -265q-5 -5 -19 -10t-20 -5h-27q-26 0 -41 16.5t-15 36.5z" />
<glyph unicode="&#xf4;" horiz-adv-x="1063" d="M23 526q0 110 31 204.5t91 173.5q124 166 359 171q235 -5 360 -171q59 -79 89 -173.5t30 -204.5q0 -215 -119 -376q-124 -168 -362 -173q-115 2 -204.5 46t-152.5 127q-57 79 -89.5 175t-32.5 201zM170 526q0 -166 90 -286q42 -57 102 -85.5t141 -30.5q165 5 248 117 q87 117 87 285q0 166 -87 286q-82 111 -247 116q-163 -4 -244 -116q-90 -123 -90 -286zM232 1100q0 19 13 35l208 256q3 3 8.5 6.5t12 6.5t12.5 5t10 2h27q8 0 23 -6.5t20 -12.5l209 -256q14 -17 14 -36q0 -20 -15.5 -36.5t-40.5 -16.5h-37q-8 0 -23 6.5t-19 13.5 q-38 46 -73 87t-73 86q-5 -5 -9 -10t-8 -11q-32 -38 -63 -76.5t-60 -75.5q-5 -6 -20 -13t-23 -7h-37q-26 0 -41 16.5t-15 36.5z" />
<glyph unicode="&#xf5;" horiz-adv-x="1063" d="M23 526q0 110 31 204.5t91 173.5q124 166 359 171q235 -5 360 -171q59 -79 89 -173.5t30 -204.5q0 -215 -119 -376q-124 -168 -362 -173q-115 2 -204.5 46t-152.5 127q-57 79 -89.5 175t-32.5 201zM170 526q0 -166 90 -286q42 -57 102 -85.5t141 -30.5q165 5 248 117 q87 117 87 285q0 166 -87 286q-82 111 -247 116q-163 -4 -244 -116q-90 -123 -90 -286zM214 1121q2 76 52 131q26 31 58 49t68 19q43 0 88 -22q23 -11 37 -19t25 -16l2 -2q15 -11 29 -20l28 -18v1q19 -11 25 -11q17 0 23 11q12 15 12 35q0 23 15.5 39t38.5 16h38 q22 0 38 -16t16 -39q0 -70 -41 -128q-51 -63 -140 -63q-47 0 -90 23q-37 22 -64 41q-5 4 -9 7l-8 6q-8 5 -14 10.5t-14 10.5l1 -1q-8 3 -18 5.5t-18 3.5q-10 -3 -18 -13q-14 -18 -14 -40q0 -24 -16 -39.5t-39 -15.5h-36q-23 0 -39.5 16t-15.5 39z" />
<glyph unicode="&#xf6;" horiz-adv-x="1063" d="M23 526q0 110 31 204.5t91 173.5q124 166 359 171q235 -5 360 -171q59 -79 89 -173.5t30 -204.5q0 -215 -119 -376q-124 -168 -362 -173q-115 2 -204.5 46t-152.5 127q-57 79 -89.5 175t-32.5 201zM170 526q0 -166 90 -286q42 -57 102 -85.5t141 -30.5q165 5 248 117 q87 117 87 285q0 166 -87 286q-82 111 -247 116q-163 -4 -244 -116q-90 -123 -90 -286zM296 1098v148q0 24 16 39.5t39 15.5h36q24 0 39.5 -15.5t15.5 -39.5v-148q0 -23 -15.5 -39t-39.5 -16h-36q-23 0 -39 16t-16 39zM582 1098v148q0 24 15.5 39.5t39.5 15.5h36 q23 0 39 -15.5t16 -39.5v-148q0 -23 -16 -39t-39 -16h-36q-24 0 -39.5 16t-15.5 39z" />
<glyph unicode="&#xf7;" horiz-adv-x="1229" d="M64 500v38q0 22 16.5 38.5t38.5 16.5h926q23 0 38.5 -16.5t15.5 -38.5v-38q0 -23 -15.5 -38t-38.5 -15h-926q-22 0 -38.5 15t-16.5 38zM452 131q1 127 131 129q122 -8 129 -128q2 -131 -129 -132h-2q-130 1 -129 131zM452 909q2 128 131 128q122 -6 129 -127 q2 -131 -129 -132h-2q-130 1 -129 131z" />
<glyph unicode="&#xf8;" horiz-adv-x="1063" d="M6 95q0 10 3.5 20t11.5 18l80 84q-78 135 -78 309q0 109 30.5 203.5t90.5 174.5q126 167 359 171q96 -1 173 -31t136 -85l42 45q16 16 39 16q20 0 39 -16l25 -27q7 -7 11.5 -17t4.5 -21q0 -9 -4.5 -19.5t-10.5 -18.5q-14 -14 -28 -28.5t-28 -29.5q42 -68 61 -147t19 -170 q0 -105 -31 -201t-88 -175q-63 -83 -153.5 -127t-207.5 -46q-97 2 -176 33t-138 86q-15 -15 -31.5 -32t-31.5 -33q-8 -7 -18 -11.5t-21 -4.5q-22 0 -38 15l-27 27q-15 16 -15 38zM170 526q0 -55 8.5 -103t28.5 -94l502 524q-78 71 -206 75q-163 -4 -243 -116 q-90 -123 -90 -286zM291 204q80 -79 212 -80q81 2 143 32t104 85q42 58 64.5 130t22.5 155q0 56 -11.5 108t-31.5 98z" />
<glyph unicode="&#xf9;" d="M73 372v626q0 23 15.5 39t38.5 16h38q22 0 38 -16t16 -39v-621q0 -133 69 -193q70 -60 175 -60q141 1 213 100q75 97 75 240v534q0 23 16 39t39 16h37q23 0 39 -16t16 -39v-943q0 -23 -16 -39t-39 -16h-37q-23 0 -39 16t-16 39v30q-5 -5 -12 -10.5t-14 -10.5 q-51 -40 -117.5 -63t-144.5 -24q-81 1 -152 28.5t-125 76.5q-55 52 -84 124.5t-29 165.5zM244 1358q0 21 15 37t41 16h54q8 0 22 -7t19 -11v1q58 -67 115 -133.5t115 -132.5q14 -19 14 -38q0 -20 -15 -36t-41 -16h-28q-7 0 -20 5t-18 10l-256 266q-17 19 -17 39z" />
<glyph unicode="&#xfa;" d="M73 372v626q0 23 15.5 39t38.5 16h38q22 0 38 -16t16 -39v-621q0 -133 69 -193q70 -60 175 -60q141 1 213 100q75 97 75 240v534q0 23 16 39t39 16h37q23 0 39 -16t16 -39v-943q0 -23 -16 -39t-39 -16h-37q-23 0 -39 16t-16 39v30q-5 -5 -12 -10.5t-14 -10.5 q-51 -40 -117.5 -63t-144.5 -24q-81 1 -152 28.5t-125 76.5q-55 52 -84 124.5t-29 165.5zM337 1091q0 20 16 39l242 265q5 5 19 10.5t22 5.5h53q26 0 41 -16t15 -37q0 -22 -18 -40l-268 -265q-5 -5 -18.5 -10t-19.5 -5h-28q-26 0 -41 16.5t-15 36.5z" />
<glyph unicode="&#xfb;" d="M73 372v626q0 23 15.5 39t38.5 16h38q22 0 38 -16t16 -39v-621q0 -133 69 -193q70 -60 175 -60q141 1 213 100q75 97 75 240v534q0 23 16 39t39 16h37q23 0 39 -16t16 -39v-943q0 -23 -16 -39t-39 -16h-37q-23 0 -39 16t-16 39v30q-5 -5 -12 -10.5t-14 -10.5 q-51 -40 -117.5 -63t-144.5 -24q-81 1 -152 28.5t-125 76.5q-55 52 -84 124.5t-29 165.5zM213 1100q0 18 12 35l208 256q5 6 20.5 13t23.5 7h26q8 0 23 -6.5t20 -12.5l209 -256q14 -17 14 -36q0 -20 -15.5 -36.5t-40.5 -16.5h-37q-8 0 -22.5 6.5t-18.5 13.5q-38 46 -73.5 87 t-73.5 86q-5 -5 -8.5 -10t-8.5 -11q-32 -38 -63 -76.5t-60 -75.5q-5 -6 -19.5 -13t-23.5 -7h-36q-26 0 -41 16.5t-15 36.5z" />
<glyph unicode="&#xfc;" d="M73 372v626q0 23 15.5 39t38.5 16h38q22 0 38 -16t16 -39v-621q0 -133 69 -193q70 -60 175 -60q141 1 213 100q75 97 75 240v534q0 23 16 39t39 16h37q23 0 39 -16t16 -39v-943q0 -23 -16 -39t-39 -16h-37q-23 0 -39 16t-16 39v30q-5 -5 -12 -10.5t-14 -10.5 q-51 -40 -117.5 -63t-144.5 -24q-81 1 -152 28.5t-125 76.5q-55 52 -84 124.5t-29 165.5zM274 1098v148q0 24 16 39.5t39 15.5h37q23 0 39 -15.5t16 -39.5v-148q0 -23 -16 -39t-39 -16h-37q-23 0 -39 16t-16 39zM561 1098v148q0 24 15.5 39.5t38.5 15.5h37q23 0 38.5 -15.5 t15.5 -39.5v-148q0 -23 -15.5 -39t-38.5 -16h-37q-23 0 -38.5 16t-15.5 39z" />
<glyph unicode="&#xfd;" horiz-adv-x="834" d="M-54 1003.5q2 13.5 9 24.5t18.5 18t25.5 7h40q14 0 29 -10.5t21 -22.5l322 -768l289 767q5 13 21 23.5t31 10.5h39q15 0 26.5 -6t18.5 -16.5t9 -24t-3 -28.5l-435 -1136q-45 -115 -133 -147q-74 -21 -170 -20q-23 1 -38 16.5t-15 38.5v37q0 23 15.5 38.5t39.5 15.5 q4 0 7.5 -0.5t7.5 -0.5h14q59 0 89 14q13 8 26.5 27.5t25.5 46.5q8 23 16.5 44.5t17.5 43.5q7 17 12.5 32.5t12.5 34.5q-48 114 -96 226.5t-96 227.5q-49 115 -97 229.5t-97 229.5q-5 14 -3 27.5zM250 1131q0 19 16 38l242 265q5 5 19 10.5t21 5.5h53q26 0 41 -16t15 -37 t-17 -40l-268 -264q-6 -5 -19.5 -10t-19.5 -5h-27q-26 0 -41 16t-15 37z" />
<glyph unicode="&#xfe;" horiz-adv-x="1100" d="M76 -270v1635q0 23 15.5 39t39.5 16h36q23 0 39 -16t16 -39v-426q10 11 21 22t22 20q55 45 125.5 69t158.5 25q224 -1 344 -159q112 -151 112 -388q0 -220 -102 -376q-58 -87 -146 -130t-208 -45q-110 4 -189.5 34.5t-137.5 97.5v-379q0 -23 -16 -39t-39 -16h-36 q-24 0 -39.5 16t-15.5 39zM222 528q1 -99 23 -174t70 -127q87 -103 234 -103q45 0 82 9t67 25v-1q28 18 51.5 40.5t39.5 48.5q21 32 34.5 64.5t22.5 66.5q13 74 13 151q0 82 -20.5 157t-55.5 133l1 -1q-35 52 -94 80.5t-141 30.5q-80 -2 -142 -31t-100 -80 q-38 -58 -61.5 -133t-23.5 -156z" />
<glyph unicode="&#xff;" horiz-adv-x="834" d="M-54 1003.5q2 13.5 9 24.5t18.5 18t25.5 7h40q14 0 29 -10.5t21 -22.5l322 -768l289 767q5 13 21 23.5t31 10.5h39q15 0 26.5 -6t18.5 -16.5t9 -24t-3 -28.5l-435 -1136q-45 -115 -133 -147q-74 -21 -170 -20q-23 1 -38 16.5t-15 38.5v37q0 23 15.5 38.5t39.5 15.5 q4 0 7.5 -0.5t7.5 -0.5h14q59 0 89 14q13 8 26.5 27.5t25.5 46.5q8 23 16.5 44.5t17.5 43.5q7 17 12.5 32.5t12.5 34.5q-48 114 -96 226.5t-96 227.5q-49 115 -97 229.5t-97 229.5q-5 14 -3 27.5zM187 1137v149q0 23 16 39t39 16h36q24 0 39.5 -16t15.5 -39v-149 q0 -23 -15.5 -39t-39.5 -16h-36q-23 0 -39 16t-16 39zM473 1137v149q0 23 15.5 39t39.5 16h36q23 0 39 -16t16 -39v-149q0 -23 -16 -39t-39 -16h-36q-24 0 -39.5 16t-15.5 39z" />
<glyph unicode="&#x152;" horiz-adv-x="2087" d="M45 724q0 154 43.5 288.5t126.5 246.5q87 109 215 171t293 65q179 1 317 -91v2q0 23 15.5 39.5t39.5 16.5h821q23 0 39 -16.5t16 -39.5v-38q0 -23 -16 -39.5t-39 -16.5h-726v-477h635q24 0 40 -16.5t16 -40.5v-38q0 -24 -16 -39.5t-40 -15.5h-635v-535h726q23 0 39 -16.5 t16 -39.5v-38q0 -23 -16 -39.5t-39 -16.5h-821q-24 0 -39.5 16.5t-15.5 39.5v7q-73 -48 -152.5 -72.5t-164.5 -23.5q-164 3 -290.5 61.5t-214.5 169.5q-84 107 -128.5 240.5t-44.5 285.5zM194 724q3 -137 40 -245.5t106 -192.5q69 -85 164 -126.5t220 -42.5q35 0 82 11 q25 5 47 12.5t42 15.5q39 15 75 39.5t70 59.5v957q-66 66 -145 100t-171 33q-243 -2 -380 -165q-144 -170 -150 -456z" />
<glyph unicode="&#x153;" horiz-adv-x="1823" d="M51 525q-2 100 23.5 194.5t71.5 174.5q53 85 140.5 132t205.5 49q87 -1 160 -28.5t127 -75.5q25 -23 45.5 -50t37.5 -56q29 53 75 101q104 101 295 109q117 -2 201.5 -44t138.5 -121q100 -151 100 -363v-28q0 -23 -15.5 -39t-38.5 -16h-682q10 -164 88.5 -248t209.5 -92 q63 2 115 19.5t80 52.5q34 38 56 84t29 100q4 19 20 33t34 14h38q26 0 41 -19t12 -45q-14 -85 -47.5 -154t-85.5 -119q-112 -112 -294 -113q-270 4 -371 201q-53 -99 -143.5 -147.5t-224.5 -53.5q-237 5 -344 182h1q-102 158 -99 366zM197 526q-1 -76 20 -151t53 -132h-1 q17 -25 40.5 -48t50.5 -39q51 -32 132 -32q79 2 138.5 33.5t93.5 79.5h-1q33 57 50 130t16 159q0 83 -18 156.5t-50 133.5q-65 107 -228 112q-160 -5 -222 -112q-75 -124 -74 -290zM938 610h587q-9 127 -70 217q-34 52 -88.5 76t-131.5 25q-160 -2 -224 -97v1 q-27 -42 -46.5 -99t-26.5 -123z" />
<glyph unicode="&#x178;" horiz-adv-x="1102" d="M-92 1408q0 21 15.5 37.5t41.5 16.5h46q11 0 25.5 -7.5t21.5 -16.5l471 -675l475 675l-1 -1q5 9 20 17t26 8h46q26 0 41.5 -16.5t15.5 -37.5q0 -8 -2.5 -17.5t-8.5 -17.5l-537 -766v-551q0 -23 -16 -39.5t-40 -16.5h-37q-25 0 -41 16.5t-16 39.5v551 q-134 193 -267.5 383.5t-267.5 382.5q-11 17 -11 35zM318 1508v153q0 25 16.5 41t40.5 16h37q25 0 40.5 -16t15.5 -41v-153q0 -23 -15.5 -39.5t-40.5 -16.5h-37q-24 0 -40.5 16.5t-16.5 39.5zM613 1508v153q0 25 16 41t40 16h38q24 0 40 -16t16 -41v-153q0 -23 -16 -39.5 t-40 -16.5h-38q-24 0 -40 16.5t-16 39.5z" />
<glyph unicode="&#x2c6;" horiz-adv-x="266" d="M-152 1139q0 19 13 36l208 255q7 6 21 13t22 7h27q4 0 10 -1.5t12.5 -4.5t12 -6.5t8.5 -6.5l209 -255q14 -19 14 -37q0 -20 -15.5 -36.5t-40.5 -16.5h-38q-8 0 -22 6.5t-19 13.5q-38 46 -73.5 87.5t-73.5 87.5q-17 -20 -31.5 -39.5t-31.5 -39.5q-18 -23 -38.5 -48 t-37.5 -48q-5 -6 -20 -13t-24 -7h-36q-26 0 -41 16.5t-15 36.5z" />
<glyph unicode="&#x2dc;" horiz-adv-x="266" d="M-171 1161q2 73 52 130q53 66 127 68q42 0 87 -21q24 -12 37.5 -20t24.5 -16l2 -2q16 -10 28.5 -18t26.5 -16q11 -8 17.5 -10.5t10.5 -2.5q16 0 23 10q12 15 12 35q0 24 15.5 39.5t38.5 15.5h37q23 0 38.5 -15.5t15.5 -39.5q0 -68 -40 -128q-52 -63 -140 -63 q-47 0 -91 25q-14 8 -30.5 18.5t-32.5 21.5q-3 2 -5.5 4t-4.5 4q-10 7 -17.5 13t-18.5 13q-13 6 -31 8q-13 -4 -22 -14q-13 -19 -13 -40q0 -23 -16 -39t-39 -16h-37q-23 0 -39.5 16.5t-15.5 39.5z" />
<glyph unicode="&#x2000;" horiz-adv-x="936" />
<glyph unicode="&#x2001;" horiz-adv-x="1873" />
<glyph unicode="&#x2002;" horiz-adv-x="936" />
<glyph unicode="&#x2003;" horiz-adv-x="1873" />
<glyph unicode="&#x2004;" horiz-adv-x="624" />
<glyph unicode="&#x2005;" horiz-adv-x="468" />
<glyph unicode="&#x2006;" horiz-adv-x="312" />
<glyph unicode="&#x2007;" horiz-adv-x="312" />
<glyph unicode="&#x2008;" horiz-adv-x="234" />
<glyph unicode="&#x2009;" horiz-adv-x="374" />
<glyph unicode="&#x200a;" horiz-adv-x="104" />
<glyph unicode="&#x2010;" horiz-adv-x="682" d="M108 528v36q0 24 16 39.5t39 15.5h321q23 0 38.5 -15.5t15.5 -39.5v-36q0 -23 -15.5 -39t-38.5 -16h-321q-23 0 -39 16t-16 39z" />
<glyph unicode="&#x2011;" horiz-adv-x="682" d="M108 528v36q0 24 16 39.5t39 15.5h321q23 0 38.5 -15.5t15.5 -39.5v-36q0 -23 -15.5 -39t-38.5 -16h-321q-23 0 -39 16t-16 39z" />
<glyph unicode="&#x2012;" horiz-adv-x="682" d="M108 528v36q0 24 16 39.5t39 15.5h321q23 0 38.5 -15.5t15.5 -39.5v-36q0 -23 -15.5 -39t-38.5 -16h-321q-23 0 -39 16t-16 39z" />
<glyph unicode="&#x2013;" d="M-28 528v36q0 24 15.5 39.5t38.5 15.5h918q23 0 39 -15.5t16 -39.5v-36q0 -23 -16 -39t-39 -16h-918q-23 0 -38.5 16t-15.5 39z" />
<glyph unicode="&#x2014;" horiz-adv-x="2048" d="M237 528v36q0 24 15.5 39.5t38.5 15.5h1359q22 0 38.5 -15.5t16.5 -39.5v-36q0 -23 -16.5 -39t-38.5 -16h-1359q-23 0 -38.5 16t-15.5 39z" />
<glyph unicode="&#x2018;" horiz-adv-x="342" d="M89 952v217q0 51 6.5 91.5t17.5 66.5q12 27 36 50t55 37q13 4 27 2.5t25 -8.5t18 -18t7 -25v-37q0 -10 -8 -25t-17 -21q-9 -10 -15.5 -38.5t-5.5 -74.5v-217q0 -23 -15.5 -39t-39.5 -16h-36q-23 0 -39 16t-16 39z" />
<glyph unicode="&#x2019;" horiz-adv-x="342" d="M43 952v36q0 11 9 26.5t19 22.5q7 3 11 20v-1q4 17 5.5 40.5t1.5 52.5v216q0 23 16 39t39 16h36q23 0 38.5 -16t15.5 -39v-216q0 -53 -5 -91.5t-16 -63.5q-25 -59 -92 -91q-14 -6 -28 -5.5t-25 7.5t-18 19t-7 28z" />
<glyph unicode="&#x201a;" horiz-adv-x="342" d="M41 -128q0 8 5.5 21t11.5 19q15 13 20 40q9 34 9 103v180q0 23 15.5 39t38.5 16h37q23 0 38.5 -16t15.5 -39v-180q1 -95 -24.5 -160.5t-81.5 -103.5q-8 -6 -16.5 -8.5t-16.5 -2.5q-21 0 -36.5 15.5t-15.5 40.5v36z" />
<glyph unicode="&#x201c;" horiz-adv-x="569" d="M114 952v217q0 54 6.5 94t17.5 69q14 26 36 47t55 35q15 7 28.5 6t24.5 -8t17.5 -19.5t6.5 -27.5v-37q0 -10 -8.5 -25t-16.5 -21q-9 -10 -15.5 -38.5t-5.5 -74.5v-217q0 -23 -16 -39t-39 -16h-36q-24 0 -39.5 16t-15.5 39zM298 952v217q0 108 23 158q28 58 91 87 q15 7 29 6t25 -8t17.5 -19.5t6.5 -27.5v-37q0 -11 -8.5 -25.5t-17.5 -20.5v1q-22 -14 -21 -114v-217q0 -23 -15.5 -39t-38.5 -16h-37q-23 0 -38.5 16t-15.5 39z" />
<glyph unicode="&#x201d;" horiz-adv-x="569" d="M49 952v36q0 11 9.5 26.5t19.5 22.5q7 4 13 20l-1 -1q2 17 4 40.5t2 52.5v216q0 23 15.5 39t38.5 16h38q23 0 39 -16t16 -39v-216q0 -103 -22 -155q-14 -28 -36.5 -51.5t-56.5 -39.5q-14 -6 -28.5 -5.5t-25.5 7.5t-18 19t-7 28zM234 952v36q0 11 8 26t16 21q10 4 15 20 q2 17 4 41t2 53v216q0 23 16 39t39 16h36q24 0 39.5 -16t15.5 -39v-216q0 -101 -21 -155q-27 -58 -91 -90q-15 -8 -29 -8t-25.5 7t-18 19.5t-6.5 29.5z" />
<glyph unicode="&#x201e;" horiz-adv-x="569" d="M49 -128q0 8 6.5 21.5t11.5 18.5q14 13 21 38q4 20 6 46.5t2 58.5v180q0 23 16 39t39 16h37q23 0 39 -16t16 -39v-180q1 -188 -106 -264q-15 -11 -34 -11q-21 0 -37.5 15.5t-16.5 40.5v36zM234 -128q0 8 6 21.5t11 18.5q7 7 12 17.5t8 22.5q8 37 8 103v180q0 23 16 39 t39 16h36q24 0 39.5 -16t15.5 -39v-180q2 -190 -106 -264q-15 -11 -33 -11q-21 0 -36.5 15.5t-15.5 40.5v36z" />
<glyph unicode="&#x2022;" d="M104 710q1 80 31 149.5t83 122.5q53 51 120.5 79.5t146.5 29.5q166 -2 272 -110q109 -109 112 -271q-3 -160 -112 -269q-108 -113 -272 -114q-81 1 -148 30t-120 84q-57 54 -84.5 120.5t-28.5 148.5z" />
<glyph unicode="&#x2026;" horiz-adv-x="2048" d="M287 55v180q0 23 15.5 39t38.5 16h36q24 0 39.5 -16t15.5 -39v-180q0 -23 -15.5 -39t-39.5 -16h-36q-23 0 -38.5 16t-15.5 39zM897 55v180q0 23 15.5 39t38.5 16h38q22 0 38 -16t16 -39v-180q0 -23 -16 -39t-38 -16h-38q-23 0 -38.5 16t-15.5 39zM1509 55v180 q0 23 15.5 39t38.5 16h37q23 0 38.5 -16t15.5 -39v-180q0 -23 -15.5 -39t-38.5 -16h-37q-23 0 -38.5 16t-15.5 39z" />
<glyph unicode="&#x202f;" horiz-adv-x="374" />
<glyph unicode="&#x2039;" horiz-adv-x="530" d="M79 513v65l200 271q9 11 21 17t23 6q21 0 37.5 -15t16.5 -41v-81l-139 -188q21 -31 44 -62t46 -61q12 -17 25 -33.5t24 -32.5v-81q0 -26 -16.5 -41t-37.5 -15q-11 0 -23 6.5t-21 16.5z" />
<glyph unicode="&#x203a;" horiz-adv-x="530" d="M125 277v81l140 189q-15 20 -30.5 41t-31.5 42q-20 26 -40 53.5t-38 51.5v81q0 26 17 41t37 15q11 0 23.5 -6t20.5 -17l201 -271v-65l-201 -269q-8 -11 -20.5 -17t-23.5 -6q-20 0 -37 15t-17 41z" />
<glyph unicode="&#x205f;" horiz-adv-x="468" />
<glyph unicode="&#x20ac;" horiz-adv-x="1139" d="M-21 567l12 32l-1 -1q5 14 21 25.5t31 11.5h40v45q0 8 -1 10t1 19h-52q-32 0 -47 22.5t-4 51.5l12 31v-1q5 13 20.5 24.5t30.5 11.5h55q21 114 70.5 212t126 170t178 113t226.5 41q110 0 200 -32.5t175 -100.5q15 -11 19.5 -32t-4.5 -37v1q-4 -8 -8.5 -15t-8.5 -15 q-8 -15 -21 -22.5t-27 -7.5q-18 0 -34 11q-37 29 -71.5 48.5t-68.5 32.5q-65 26 -153 26q-91 0 -166.5 -30t-132.5 -82.5t-95.5 -124.5t-55.5 -156h681q17 0 29.5 -7t19.5 -19t7.5 -26.5t-7.5 -29.5v1q-4 -7 -8.5 -14.5t-8.5 -15.5q-6 -11 -21 -20t-27 -9h-683v-54 q0 -5 -0.5 -7.5t1.5 -12.5h644q16 0 29 -7t19.5 -19t7 -26.5t-7.5 -29.5v1q-4 -7 -8.5 -15t-8.5 -16q-6 -11 -21 -20t-27 -9h-607q20 -80 59 -149t94.5 -120t128 -80.5t159.5 -29.5q101 0 187 41.5t152 116.5q8 11 20 16t23 5q20 0 36.5 -15t16.5 -41v-49q0 -7 -5.5 -20.5 t-11.5 -18.5q-88 -91 -193 -134t-230 -43q-120 0 -218.5 40t-173.5 110t-125 165t-72 206h-66q-31 0 -46.5 22t-4.5 51z" />
<glyph unicode="&#x2122;" horiz-adv-x="2027" d="M147 1328v37q0 23 15.5 39t38.5 16h588q23 0 38.5 -16t15.5 -39v-37q0 -23 -15.5 -38.5t-38.5 -15.5h-221v-666q0 -23 -15.5 -39t-39.5 -16h-36q-23 0 -39 16t-16 39v666h-221q-23 0 -38.5 15.5t-15.5 38.5zM907 608v757q0 23 15.5 39t39.5 16h62q13 0 29 -10.5t21 -23.5 q63 -150 123.5 -293t123.5 -292q21 51 43 101.5t43 101.5q41 96 81 190.5t80 191.5q6 13 21 23.5t29 10.5h62q24 0 39.5 -16t15.5 -39v-757q0 -23 -15.5 -39t-39.5 -16h-35q-24 0 -39.5 16t-15.5 39v459q-51 -121 -101 -239.5t-99 -239.5q-6 -13 -21 -24t-29 -11h-37 q-14 0 -29 11t-21 24q-51 123 -99.5 237.5t-100.5 239.5v-457q0 -23 -16 -39t-39 -16h-36q-24 0 -39.5 16t-15.5 39z" />
<glyph unicode="&#xe000;" horiz-adv-x="1055" d="M0 0v1055h1055v-1055h-1055z" />
</font>
</defs>
</svg>
